<?xml version="1.0" encoding="UTF-8" standalone="no"?>
<svg
   xmlns:dc="http://purl.org/dc/elements/1.1/"
   xmlns:cc="http://creativecommons.org/ns#"
   xmlns:rdf="http://www.w3.org/1999/02/22-rdf-syntax-ns#"
   xmlns:svg="http://www.w3.org/2000/svg"
   xmlns="http://www.w3.org/2000/svg"
   xmlns:sodipodi="http://sodipodi.sourceforge.net/DTD/sodipodi-0.dtd"
   xmlns:inkscape="http://www.inkscape.org/namespaces/inkscape"
   style="shape-rendering:crispEdges"
   id="svg8"
   version="1.1"
   viewBox="0 0 92 97"
   height="97mm"
   width="92mm"
   sodipodi:docname="catdisk-borderless-plain-noalpha-paw.svg"
   inkscape:version="0.92.2 5c3e80d, 2017-08-06">
  <sodipodi:namedview
     pagecolor="#ffffff"
     bordercolor="#666666"
     borderopacity="1"
     objecttolerance="10"
     gridtolerance="10"
     guidetolerance="10"
     inkscape:pageopacity="0"
     inkscape:pageshadow="2"
     inkscape:window-width="1286"
     inkscape:window-height="762"
     id="namedview14"
     showgrid="false"
     inkscape:zoom="1.4974871"
     inkscape:cx="173.85827"
     inkscape:cy="183.30709"
     inkscape:window-x="0"
     inkscape:window-y="0"
     inkscape:window-maximized="0"
     inkscape:current-layer="svg8"
     showguides="false" />
  <defs
     id="defs2">
    <clipPath
       clipPathUnits="userSpaceOnUse"
       id="clipPath4937">
      <path
         id="use4939"
         d="m 15.808355,199.72141 h 70.043797 l 0.1257,0.15344 v 50.35393 c 0,1.89096 -1.52232,3.41329 -3.41329,3.41329 H 19.095943 c -1.890961,0 -3.413287,-1.52233 -3.413287,-3.41329 v -50.39555 z"
         style="opacity:1;fill:#0d0a0a;fill-opacity:1;stroke:none;stroke-width:0.64696324;stroke-miterlimit:1;stroke-dasharray:none;stroke-opacity:0.51658768" />
    </clipPath>
    <clipPath
       clipPathUnits="userSpaceOnUse"
       id="clipPath5102">
      <path
         id="use5104"
         d="m 15.808355,199.72141 h 70.043797 l 0.1257,0.15344 v 50.35393 c 0,1.89096 -1.52232,3.41329 -3.41329,3.41329 H 19.095943 c -1.890961,0 -3.413287,-1.52233 -3.413287,-3.41329 v -50.39555 z"
         style="opacity:1;fill:#0d0a0a;fill-opacity:1;stroke:none;stroke-width:0.64696324;stroke-miterlimit:1;stroke-dasharray:none;stroke-opacity:0.51658768" />
    </clipPath>
  </defs>
  <metadata
     id="metadata5">
    <rdf:RDF>
      <cc:Work
         rdf:about="">
        <dc:format>image/svg+xml</dc:format>
        <dc:type
           rdf:resource="http://purl.org/dc/dcmitype/StillImage" />
        <dc:title></dc:title>
      </cc:Work>
    </rdf:RDF>
  </metadata>
  <path
     style="display:inline;opacity:1;fill:#e9c6af;fill-opacity:1;stroke:none;stroke-width:0.64999998;stroke-miterlimit:1;stroke-dasharray:none;stroke-opacity:1"
     d="m 2.7321943,1.2858867 c -0.9596308,0 -1.732194,0.772564 -1.732194,1.732194 V 90.657175 l 5.3309405,5.342826 3.6964152,-0.06149 0.02325,-0.392743 8.36073,-0.02326 1.454692,-1.362708 2.60966,0.0072 v 0.791684 l 57.925146,0.0021 -0.02326,-1.185455 2.239656,0.01498 -0.02273,1.501198 h 6.673496 c 0.95963,0 1.732192,-0.772562 1.732192,-1.732192 V 3.0180807 c 0,-0.95963 -0.772562,-1.732194 -1.732192,-1.732194 l -6.762181,0.019759 6.3e-5,0.2123117 -72.90706,7.144e-4 V 1.2858867 Z M 84.052295,8.1862406 h 4.249869 v 3.5000444 h -4.249869 z"
     id="rect4636"
     inkscape:connector-curvature="0" />
  <path
     style="display:inline;opacity:1;fill:#999999;fill-opacity:1;stroke:none;stroke-width:0.64999998;stroke-miterlimit:1;stroke-dasharray:none;stroke-opacity:1"
     d="m 24.346897,63.667609 c -1.445525,0 -2.609145,1.163621 -2.609145,2.609143 V 95.3804 l 0.317811,0.399976 h 48.070449 l 0.08165,-0.204121 V 66.276752 c 0,-1.445522 -1.164135,-2.609143 -2.609662,-2.609143 z m 5.573302,2.063956 h 10.983309 c 0.344972,0 0.6227,0.277728 0.6227,0.622699 v 24.044529 c 0,0.344972 -0.277728,0.6227 -0.6227,0.6227 H 29.920199 c -0.344972,0 -0.622702,-0.277728 -0.622702,-0.6227 V 66.354264 c 0,-0.344971 0.27773,-0.622699 0.622702,-0.622699 z"
     id="rect4663"
     inkscape:connector-curvature="0" />
  <path
     style="display:inline;opacity:1;fill:#e3dbdb;fill-opacity:1;stroke:none;stroke-width:0.64696324;stroke-miterlimit:1;stroke-dasharray:none;stroke-opacity:1"
     d="m 11.270192,1.23744 h 70.043799 l 0.125699,0.15344 v 50.35393 c 0,1.89096 -1.522326,3.41329 -3.413287,3.41329 H 14.55778 c -1.890961,0 -3.413287,-1.52233 -3.413287,-3.41329 V 1.34926 Z"
     id="rect4673"
     inkscape:connector-curvature="0" />
  <path
     id="use4770"
     transform="scale(0.26458334)"
     style="display:inline;opacity:1;fill:#ff00ef;fill-opacity:1;stroke:none;stroke-width:0.68801147;stroke-miterlimit:1;stroke-dasharray:none;stroke-opacity:1"
     d="m 42.121094,174.30273 v 2.78907 H 307.80273 v -2.78907 z m 0,-30.68359 v 2.78906 H 307.80273 v -2.78906 z m 0,-30.68164 v 2.78906 H 307.80273 v -2.78906 z m 0,-30.683594 v 2.791016 H 307.80273 v -2.791016 z m 0,-30.68164 v 2.789062 H 307.80273 V 51.572266 Z M 42.595703,4.6777344 42.121094,5.0996094 V 24.376953 H 307.80273 V 5.2578125 l -0.47461,-0.5800781 z" />
  <path
     style="display:inline;fill:#0d0066;fill-opacity:1;stroke:none;stroke-width:0.51904601"
     clip-path="none"
     d="m 66.951172,11.894531 -0.652344,1.876953 c -0.359818,1.032 -1.12504,2.551366 -1.699219,3.375 -0.574182,0.823597 -1.317439,2.304144 -1.652343,3.291016 -0.334885,0.98691 -1.040621,2.27225 -1.56836,2.855469 -0.527735,0.583219 -1.131062,1.760746 -1.339844,2.617187 -0.387764,1.590652 -0.474796,2.775769 -1.066406,14.509766 -0.225195,4.466532 -0.585712,7.076845 -1.072265,7.771484 -0.450554,0.643238 -0.732422,2.361448 -0.732422,4.460938 0,1.877707 -0.250386,3.664561 -0.556641,3.970703 -0.467346,0.467301 -0.611011,3.603118 -0.402344,8.767578 0.0412,1.019603 -2.078162,3.344229 -9.488281,10.408203 -1.881867,1.793975 -3.334977,3.387426 -4.599609,5.023438 v 15.609375 c 1.76007,-2.738563 5.097035,-7.118557 9.24414,-12.074219 1.050694,-1.255559 2.098141,-2.601321 2.328125,-2.990234 0.418375,-0.707566 6.015165,-6.267167 8.277344,-8.222657 0.66051,-0.570897 1.543964,-1.519592 1.962891,-2.107422 0.930735,-1.306091 6.105499,-5.417968 6.818359,-5.417968 0.283166,0 1.547668,-0.845659 2.808594,-1.878907 1.260918,-1.033209 3.635472,-2.518532 5.277344,-3.300781 1.641875,-0.782211 4.735888,-2.579362 6.876953,-3.992187 4.86607,-3.210898 10.198215,-6.119141 12.068359,-6.583985 C 98.56826,49.668144 99.210938,49.280063 99.210938,49 c -10e-7,-0.280101 0.232904,-0.509766 0.517578,-0.509766 0.284654,0 2.327764,-0.851368 4.541014,-1.890625 9.25668,-4.346607 10.05226,-4.663557 12.83399,-5.125 2.07156,-0.343634 5.86939,-1.470144 7.80078,-2.314453 1.14803,-0.501883 2.8508,-0.898199 6.74804,-1.570312 1.42738,-0.246161 3.17889,-0.595107 3.89258,-0.775391 0.71369,-0.180246 3.63353,0.07149 6.48828,0.558594 6.5247,1.11239 9.21874,1.105267 10.94727,-0.02734 1.41763,-0.928932 2.24125,-0.903552 7.99609,0.238281 1.57012,0.311509 4.12959,0.667803 5.6875,0.791016 1.55792,0.123364 3.19435,0.382282 3.63477,0.576172 0.44042,0.193814 3.48656,0.541374 6.76953,0.773437 14.13276,0.997682 15.84383,1.201438 21.28125,2.541016 0.99916,0.246161 2.98281,0.724169 4.41016,1.060547 1.42738,0.33634 5.00734,1.75199 7.95507,3.146484 2.94773,1.394532 5.51845,2.535938 5.71094,2.53711 0.19249,0.0012 1.49796,0.586349 2.90234,1.298828 1.40439,0.712516 2.93629,1.294922 3.4043,1.294922 0.46801,0 1.30523,0.342569 1.85938,0.761718 0.55414,0.41915 1.50396,0.771738 2.11132,0.779297 0.60737,0.0091 1.39772,0.369235 1.75586,0.800781 0.35815,0.431547 1.65118,1.227106 2.87305,1.767579 1.22188,0.54051 3.77795,2.175641 5.68164,3.634765 1.90369,1.459087 4.20268,3.032724 5.10742,3.496094 0.90475,0.463408 2.96144,1.977581 4.57032,3.365234 1.60887,1.387616 3.17634,2.523438 3.48437,2.523438 0.30804,0 0.80966,0.466174 1.11524,1.037109 0.30556,0.570973 0.84844,1.039063 1.20507,1.039063 0.35662,0 1.06246,0.700237 1.56836,1.55664 0.50591,0.856441 1.26508,1.556641 1.6875,1.556641 1.52012,0 13.14961,12.537833 14.8086,15.964844 0.59452,1.228082 1.87403,3.181142 2.84375,4.341797 0.96971,1.160655 1.76367,2.423257 1.76367,2.804687 0,0.700536 0.31954,1.252319 4.45703,7.718743 1.26006,1.96929 2.29102,3.80443 2.29102,4.07617 0,0.27179 1.28338,2.78259 2.85351,5.58008 1.57009,2.79746 2.85547,5.34911 2.85547,5.67188 0,0.32273 1.31343,2.13752 2.91992,4.03125 1.60649,1.89369 3.48564,4.63001 4.17578,6.08203 1.56458,3.29178 2.14195,4.25825 3.9336,6.58984 0.78504,1.02165 1.42773,2.14416 1.42773,2.49414 0,0.3501 0.73554,2.07977 1.63477,3.84375 3.27545,6.42524 3.55468,7.06455 3.55468,8.11133 0,0.58575 -0.29165,1.07863 -0.64843,1.09375 -0.35687,0.0147 -3.3453,0.005 -6.64063,-0.0254 -5.09038,-0.0458 -9.20497,0.34022 -18.92187,1.77734 -8.81106,1.30319 -13.94286,2.63548 -16.86914,4.38086 -5.33509,3.1821 -5.64603,6.78983 -0.82813,9.61329 3.10204,1.81787 4.78771,1.71823 12.24805,-0.72266 3.49013,-1.14191 6.95993,-2.07617 7.71289,-2.07617 0.75296,0 3.00571,-0.37132 5.0039,-0.82422 4.96955,-1.12641 12.41695,-1.6688 18.94336,-1.37891 0.94649,0.042 1.76757,0.10356 2.53125,0.17578 v -34.125 c -1.12831,-1.75192 -2.01171,-3.4141 -2.01171,-3.84765 0,-0.48284 -0.38865,-1.19806 -0.86329,-1.58985 -0.47459,-0.39178 -1.32543,-1.7642 -1.89062,-3.04882 -0.56527,-1.28463 -1.48331,-2.80212 -2.04102,-3.37305 -1.22358,-1.25261 -7.66211,-12.58015 -7.66211,-13.48047 0,-0.35036 -0.65215,-1.54874 -1.44921,-2.66211 -0.79711,-1.11333 -2.10585,-3.292186 -2.90821,-4.841792 -2.20819,-4.264592 -2.53482,-4.817742 -4.04297,-6.81836 -0.76698,-1.017411 -1.69714,-2.511632 -2.0664,-3.322265 -0.36938,-0.810633 -1.33917,-2.198076 -2.1543,-3.082031 -2.24802,-2.437758 -2.67376,-2.953165 -4.76758,-5.759766 -2.56834,-3.442734 -7.89572,-8.64886 -10.58984,-10.34961 -1.19152,-0.752163 -2.37674,-1.922872 -2.63477,-2.601562 -0.25803,-0.678652 -0.9498,-1.385557 -1.53711,-1.572266 -0.5873,-0.186368 -1.06836,-0.530097 -1.06836,-0.763672 0,-0.233688 -0.7597,-0.810472 -1.6875,-1.28125 -0.92779,-0.470777 -2.73684,-1.666719 -4.02148,-2.658203 -1.28464,-0.991521 -3.5618,-2.625316 -5.06055,-3.630859 -1.49875,-1.005543 -2.72461,-2.049257 -2.72461,-2.318359 0,-0.62812 3.0094,-2.199911 3.56055,-1.859375 0.2294,0.141807 1.22802,-0.291635 2.21875,-0.964844 0.99073,-0.673247 2.95702,-1.73206 4.36914,-2.351563 1.41212,-0.619426 3.50067,-1.565764 4.64258,-2.103515 1.1419,-0.537827 3.01045,-1.25145 4.15234,-1.585938 2.0973,-0.613984 6.92201,-2.522659 9.95508,-3.939453 0.90686,-0.423572 2.19025,-0.693342 2.85352,-0.599609 1.08423,0.1536 1.19163,0.405236 1.05859,2.505859 -0.0929,1.46555 -0.49517,2.626693 -1.07812,3.115235 -0.51103,0.42822 -1.2267,1.828657 -1.5918,3.113281 -0.36507,1.284661 -0.87303,2.873549 -1.12891,3.529297 -0.25561,0.655785 -0.46484,1.651479 -0.46484,2.21289 0,0.561373 -0.20771,1.42619 -0.46094,1.921875 -0.86302,1.689978 -2.57263,7.643819 -2.81641,9.804688 -0.22011,1.951937 -0.0653,2.320589 1.64649,3.917969 1.03963,0.970129 2.51698,2.076621 3.2832,2.457031 1.25356,0.622375 1.6254,0.554721 3.70508,-0.664063 2.14163,-1.25503 4.50391,-4.240143 4.50391,-5.691406 0,-0.341254 0.9434,-3.073601 2.0957,-6.070312 1.1523,-2.996788 2.92804,-7.900933 3.94727,-10.898438 1.01926,-2.997505 2.03274,-5.683396 2.25195,-5.96875 0.49345,-0.64286 1.04662,-3.33172 1.38867,-6.75 0.18739,-1.873436 -0.0432,-3.405891 -0.82812,-5.503906 l -1.08789,-2.908203 -3.75391,-0.410157 c -4.99068,-0.544819 -7.4528,-0.475852 -9.96875,0.279297 -1.14943,0.344996 -3.6073,1.084078 -5.46289,1.642578 -4.25896,1.281865 -11.15708,3.953509 -13.38281,5.183594 -0.93648,0.517569 -2.03855,0.941406 -2.45118,0.941406 -0.41262,0 -1.51648,0.465279 -2.45117,1.035157 -0.93469,0.569877 -2.21047,1.037966 -2.83594,1.039062 -0.62547,0.0011 -1.28377,0.237454 -1.46289,0.527344 -0.33629,0.544138 -3.49949,2.019023 -4.99804,2.330078 -0.46724,0.09694 -1.34201,0.428297 -1.94532,0.736328 -0.60329,0.308107 -1.56183,0.792771 -2.1289,1.078125 -0.56708,0.285468 -1.46732,0.519531 -2.00196,0.519531 -0.53463,0 -1.99849,0.896843 -3.25195,1.992188 l -2.27929,1.990234 -2.07618,-1.160156 c -4.16467,-2.328 -10.41894,-5.285917 -11.9375,-5.646484 -0.85642,-0.203452 -1.90772,-0.670874 -2.33593,-1.03711 -1.13963,-0.974438 -9.11475,-3.404297 -11.17188,-3.404297 -0.97141,0 -2.83632,-0.596874 -4.14258,-1.326171 -1.31169,-0.732284 -2.78736,-1.194967 -3.29687,-1.033204 -0.5074,0.161046 -2.8916,-0.08606 -5.29883,-0.548828 -2.40723,-0.462765 -6.71361,-1.043834 -9.56836,-1.291015 -2.85475,-0.247144 -6.70887,-0.699718 -8.56445,-1.00586 -1.85559,-0.306293 -5.12456,-0.749666 -7.26563,-0.984375 -2.14106,-0.234519 -5.41199,-0.672184 -7.26758,-0.972656 -2.00006,-0.323717 -10.53874,-0.499672 -20.9707,-0.431641 l -17.59766,0.115235 -0.45312,1.226562 c -0.24945,0.674306 -0.78538,1.481536 -1.19141,1.792969 -0.40602,0.311395 -0.80862,1.498716 -0.89453,2.640625 l -0.15625,2.076172 -3.37304,0.574219 c -4.22075,0.716296 -10.47203,2.282746 -11.16016,2.796875 -0.28548,0.213278 -1.45379,0.688073 -2.5957,1.054687 -1.14191,0.366728 -3.307323,1.330207 -4.812504,2.142578 -1.505178,0.81241 -3.028016,1.478516 -3.384766,1.478516 -0.356734,0 -1.462238,0.65465 -2.455078,1.455078 -0.992837,0.800391 -5.270018,3.188619 -9.50586,5.308594 -4.235841,2.120012 -7.922934,4.268114 -8.193359,4.773437 -0.270436,0.505285 -0.936409,0.919922 -1.480469,0.919922 -0.544059,0 -1.134118,0.232224 -1.310546,0.517578 -0.176436,0.285468 -0.804105,0.519532 -1.394532,0.519532 -1.175138,0 -1.162275,-0.771071 0.13086,-8.044922 0.304509,-1.712844 0.75583,-6.03316 1.001953,-9.601563 0.582021,-8.438967 1.221197,-11.236109 3.236328,-14.144531 0.593303,-0.856328 1.465911,-1.427734 2.181641,-1.427734 1.252747,0 5.398706,1.495502 8.777343,3.166015 1.097515,0.542627 2.265826,0.994394 2.595703,1.001953 0.32987,0.0089 1.995589,0.711111 3.701172,1.558594 3.399587,1.689146 4.800289,1.85153 7.539063,0.878906 2.843851,-1.009965 3.113281,-1.331295 3.113281,-3.701172 0,-2.555754 -0.31851,-2.914527 -5.189453,-5.839843 -3.888609,-2.33537 -5.780544,-3.151376 -8.25,-3.560547 C 88.435891,16.398191 87.087725,15.827066 86.40625,15.291016 85.724767,14.754965 84.181427,14.153062 82.976562,13.953125 81.771691,13.752961 80.150042,13.264832 79.373047,12.867188 78.48716,12.413833 75.906346,12.09739 72.455078,12.019531 Z M 111.5293,67.880859 c -7.07474,-0.0113 -14.109086,1.738065 -20.81055,5.21875 -1.388326,0.721096 -2.850939,1.581023 -3.25,1.91211 -0.399073,0.3312 -1.371935,0.98135 -2.162109,1.443359 -2.03249,1.188359 -13.605469,13.345933 -13.605469,14.292969 0,0.431773 -0.700215,1.583173 -1.556641,2.558594 -0.856426,0.97542 -1.558472,2.091883 -1.560547,2.482421 -0.0019,0.390539 -0.467966,1.411175 -1.035156,2.267579 -0.567186,0.856441 -1.033575,2.141779 -1.037109,2.855469 -0.0038,0.71369 -0.471873,1.99707 -1.039063,2.85351 -0.787676,1.18935 -1.03061,2.43871 -1.033203,5.28711 -0.0019,2.05115 0.21681,4.30869 0.486328,5.01758 0.326676,0.8592 0.28952,1.81821 -0.109375,2.875 -0.517512,1.37103 -0.448478,1.78722 0.511719,3.08594 0.610602,0.82586 1.338119,2.64261 1.615234,4.03711 0.277108,1.39453 0.795746,3.35241 1.152344,4.35156 0.356591,0.99916 0.895798,2.51856 1.199219,3.375 0.574405,1.62119 4.7893,6.48828 5.61914,6.48828 0.261604,0 2.089833,1.05209 4.0625,2.33985 1.972676,1.28772 4.237685,2.58372 5.033204,2.8789 0.795518,0.29522 1.688992,0.85557 1.986328,1.24414 0.297339,0.38858 2.282912,1.31934 4.412109,2.06836 3.750867,1.31944 4.137125,1.35189 12.386717,1.0586 4.71071,-0.16729 9.80289,-0.63718 11.39844,-1.05274 1.58615,-0.41329 3.87243,-0.75195 5.08008,-0.75195 1.20765,0 3.81446,-0.58323 5.79297,-1.29688 1.97851,-0.71372 3.88542,-1.29882 4.23828,-1.29882 0.58024,0 6.21088,-2.44206 8.43945,-3.66016 0.49571,-0.27114 1.15317,-0.49219 1.46094,-0.49219 0.30778,0 1.12283,-0.6706 1.8125,-1.49023 0.68967,-0.81963 1.97211,-1.63323 2.84961,-1.8086 1.89543,-0.37904 8.02013,-6.06893 9.01953,-8.3789 2.78639,-6.44054 3.21625,-8.98908 3.77734,-22.38281 0.2956,-7.056344 0.0417,-7.915668 -4.30078,-14.521489 -2.13895,-3.253757 -7.03637,-8.511719 -7.92773,-8.511719 -0.27528,0 -0.57866,-0.176325 -0.67383,-0.390624 -0.23276,-0.52373 -6.92284,-6.256445 -9.51563,-8.154297 -1.14189,-0.835843 -2.26195,-1.824605 -2.49023,-2.197266 -0.2283,-0.372586 -1.27959,-0.679562 -2.33594,-0.681641 -1.05634,-0.0022 -3.38506,-0.449586 -5.17578,-0.99414 -4.21056,-1.280452 -8.47,-1.920957 -12.71484,-1.927735 z m 4.6289,10.314453 c 1.0643,-0.0085 1.81003,0.09251 1.96289,0.339844 0.19602,0.316989 1.05077,0.576172 1.90039,0.576172 0.84963,0 2.18007,0.404605 2.95508,0.898438 2.79889,1.783521 6.62941,4.958352 8.06446,6.683593 0.80584,0.968807 1.78193,1.761719 2.16992,1.761719 0.38799,0 1.22726,0.757711 1.86523,1.685547 0.63799,0.927761 1.82203,2.316955 2.63086,3.085937 0.83398,0.79287 1.4707,1.948978 1.4707,2.669922 0,0.699251 0.31886,1.3933 0.70899,1.542969 1.15821,0.444435 2.55067,6.542327 2.22461,9.742187 -0.45659,4.48097 -1.2038,8.91432 -1.78711,10.59961 -1.53108,4.42337 -4.73077,8.25357 -8.45703,10.125 -1.26077,0.63318 -2.75913,1.56212 -3.33008,2.06445 -0.57095,0.50238 -2.67354,1.5507 -4.67188,2.33008 -1.99832,0.77934 -4.33302,1.71535 -5.18945,2.08008 -2.37504,1.01125 -7.3321,2.00664 -7.98437,1.60352 -0.3462,-0.21396 -0.58008,-1.97374 -0.58008,-4.36524 0,-3.43846 0.2202,-4.43 1.55664,-7.00586 1.06673,-2.05602 1.56288,-3.76978 1.57422,-5.4375 0.009,-1.33897 0.39683,-4.76829 0.86328,-7.62305 0.78161,-4.78348 0.8678,-6.66684 0.63086,-14.042964 -0.0502,-1.562533 0.25698,-3.285492 0.75976,-4.257813 0.46435,-0.89794 0.84375,-1.876443 0.84375,-2.175781 0,-0.936302 -3.82533,-4.537162 -6.24804,-5.88086 -3.23754,-1.795653 -5.05565,-1.419433 -7.90235,1.628907 -2.00804,2.150324 -2.319104,2.826413 -2.890622,6.300781 -0.612461,3.723326 -0.85751,4.837266 -2.123047,9.66406 -0.308084,1.17502 -0.560547,2.88344 -0.560547,3.79688 0,0.91343 -0.212435,2.05868 -0.472656,2.54492 -0.260213,0.4862 -0.590035,4.49853 -0.734375,8.91797 -0.144359,4.41951 -0.433469,8.46592 -0.640625,8.99219 -0.207148,0.52618 -0.06789,2.59076 0.308594,4.58593 0.585468,3.10281 0.576411,3.69504 -0.05664,4.09571 v -0.002 c -0.949323,0.6031 -2.726379,0.61694 -3.361328,0.0293 -0.271204,-0.25096 -1.407505,-0.7495 -2.525391,-1.10742 -2.165389,-0.6929 -6.53125,-4.7438 -6.53125,-6.06055 0,-0.43022 -0.328289,-1.5184 -0.730468,-2.41797 -0.402184,-0.8996 -0.85304,-2.2199 -1.001953,-2.93359 -0.148902,-0.71369 -0.56287,-2.23114 -0.919922,-3.37305 -0.77599,-2.4819 -0.820601,-9.45733 -0.08008,-12.7168 1.828433,-8.04797 4.022929,-12.156359 9.091797,-17.027339 0.785056,-0.754431 1.425781,-1.794225 1.425781,-2.310547 0,-0.516359 0.408621,-1.091454 0.908203,-1.279296 C 91.7945,86.335595 93.839564,85.199924 95.837891,84 c 1.998326,-1.199962 4.678629,-2.353114 5.957029,-2.5625 1.2784,-0.209461 2.88304,-0.74759 3.56641,-1.195312 1.54079,-1.009616 7.60397,-2.021277 10.79687,-2.046876 z m 92.49024,1.853516 c -1.62046,0.01304 -2.97255,0.08007 -3.81055,0.214844 -3.16827,0.509594 -12.8585,4.126538 -14.27539,5.328125 -0.42821,0.363137 -1.8755,1.235629 -3.2168,1.939453 -1.3413,0.703861 -3.29429,2.308542 -4.33984,3.566406 -1.04555,1.257903 -2.16704,2.381574 -2.49219,2.496094 -0.65869,0.232176 -6.04101,5.605751 -6.04101,6.03125 0,0.148687 -1.10884,1.72579 -2.46485,3.50391 -5.67867,7.44627 -6.84494,10.91379 -7.02148,20.88086 l -0.11133,6.22851 2.33008,4.92969 c 1.28069,2.71204 2.73821,5.23633 3.24023,5.60937 0.50203,0.37304 0.91407,1.00269 0.91407,1.39844 0,0.90731 5.60556,7.00586 6.43945,7.00586 0.34037,0 0.8812,0.26191 1.20117,0.58203 0.84074,0.84076 6.43645,3.04818 7.73633,3.05078 1.6183,0.004 4.86463,1.47138 5.20312,2.35352 0.16086,0.41938 0.72539,0.76172 1.25586,0.76172 0.53048,0 1.78379,0.71817 2.78321,1.5957 2.50684,2.20105 6.59058,3.58721 10.66796,3.625 1.85963,0.0165 4.31513,0.23902 5.45704,0.49414 3.05332,0.68221 17.29056,-0.29368 21.54101,-1.47656 5.15821,-1.4355 8.93915,-3.12785 10.13672,-4.53516 0.29426,-0.34579 2.1628,-1.49024 4.15234,-2.54492 2.70661,-1.43478 4.99205,-3.3293 9.07422,-7.52344 7.54742,-7.75445 7.4962,-7.58844 7.00586,-22.62695 -0.20901,-6.41012 -0.58819,-11.78456 -0.84179,-11.94141 -0.2536,-0.15673 -0.46094,-0.98393 -0.46094,-1.83984 0,-3.08961 -1.14861,-5.98665 -3.79492,-9.574219 -3.68098,-4.990223 -6.31692,-8.013672 -6.98633,-8.013672 -0.30756,0 -1.30767,-0.630501 -2.22266,-1.40039 -2.58691,-2.176781 -7.53488,-4.268943 -14.24609,-6.023438 -0.57095,-0.149215 -2.89892,-0.774335 -5.17383,-1.390625 -2.27492,-0.616252 -5.19476,-1.35004 -6.48828,-1.630859 -3.0172,-0.654917 -10.28901,-1.113346 -15.15039,-1.074219 z m 7.03515,10.886719 c 4.66392,-0.02502 9.77506,0.648617 12.09571,1.849609 0.91361,0.472857 2.44414,0.859375 3.40039,0.859375 0.95624,0 1.95929,0.203235 2.23047,0.451172 0.2712,0.247937 1.65429,0.883165 3.07422,1.412109 1.80955,0.674079 3.59856,2.001116 5.98046,4.435547 2.93216,2.996821 3.58691,4.031161 4.77149,7.541021 1.70012,5.03739 1.93697,6.87744 2.05859,16.02734 0.0907,6.82065 0.0113,7.47165 -1.22851,10.17969 -0.72857,1.5914 -1.95904,3.33488 -2.73438,3.87304 -0.77534,0.53813 -2.26236,1.70485 -3.30469,2.59375 -1.04232,0.88891 -2.59602,1.97422 -3.45312,2.41211 -0.8571,0.4379 -2.00372,1.28852 -2.54688,1.88867 -0.54314,0.60019 -1.37293,1.08985 -1.84375,1.08985 -0.47081,0 -1.89294,0.6532 -3.16211,1.45117 -3.31074,2.08165 -4.89841,2.57637 -9.57421,2.97852 -2.28381,0.19649 -5.08662,0.43606 -6.22852,0.5332 -1.1419,0.0971 -2.89536,-0.13099 -3.89453,-0.50781 -3.97722,-1.49946 -5.70753,-2.42284 -5.69922,-3.03516 0.005,-0.35297 0.91861,-1.5384 2.03125,-2.63477 1.11264,-1.0964 2.17776,-2.61385 2.36719,-3.37304 0.18943,-0.7592 0.64406,-1.73194 1.00976,-2.16016 0.36572,-0.42822 0.83093,-1.36244 1.03321,-2.07617 0.20227,-0.71365 0.61001,-2.11413 0.90625,-3.11328 0.29624,-0.99916 0.75071,-3.56792 1.00976,-5.70899 0.44661,-3.69154 0.85209,-6.79021 1.91211,-14.55468 0.25639,-1.87801 1.02148,-4.3633 1.71094,-5.5625 1.19326,-2.07549 1.20966,-2.2275 0.38086,-3.61133 -0.47606,-0.79487 -2.22757,-2.26253 -3.89258,-3.26172 -2.5148,-1.508901 -3.51134,-1.813567 -5.88281,-1.78711 -3.70589,0.03984 -6.03327,1.27517 -7.07617,3.75586 -0.44465,1.05762 -1.37946,3.09215 -2.07618,4.51953 -1.1535,2.36323 -2.04644,5.04065 -4.15429,12.45703 -0.40569,1.42738 -0.99793,4.95571 -1.31836,7.8418 -0.53693,4.83602 -0.49411,5.58804 0.56054,9.60156 0.82523,3.14041 1.5745,4.79976 2.6836,5.94727 0.84592,0.87518 1.41152,1.71764 1.25781,1.87109 -0.36579,0.36575 -7.2987,-1.55139 -9.49219,-2.625 -2.65837,-1.30118 -5.30406,-4.35112 -6.65429,-7.66992 -1.69866,-4.17521 -2.67706,-13.44276 -1.73633,-16.44336 0.37214,-1.18704 0.86962,-2.37902 1.10547,-2.65039 0.23585,-0.27118 0.42968,-0.92513 0.42968,-1.45313 0,-1.60229 1.50814,-4.01124 5.07032,-8.0957 5.2685,-6.04097 12.13458,-11.423629 16.20898,-12.705078 1.28464,-0.404031 3.73832,-1.17103 5.45117,-1.705078 1.77765,-0.55423 4.41454,-0.820922 7.21289,-0.835937 z M 111.92773,154.93555 c -2.39483,0.0497 -4.6949,1.62877 -4.54882,3.12304 0.0669,0.68448 0.27012,3.11462 0.45312,5.39844 0.23322,2.91077 0.61273,4.46174 1.26758,5.18945 0.51379,0.57094 1.53614,2.24154 2.27148,3.71094 0.73535,1.46944 2.14749,3.38363 3.13868,4.25391 1.96467,1.72501 7.91134,4.86742 10.39453,5.49414 2.44282,0.61648 8.41415,0.37292 10.3164,-0.42188 3.48425,-1.45568 5.68382,-1.52221 7.33594,-0.22265 3.05884,2.40608 7.8856,4.84157 11.625,5.86718 3.16356,0.86763 2.6454,0.85425 9.13086,0.25977 3.14023,-0.28785 6.29412,-0.81257 7.00781,-1.16406 1.96047,-0.96571 6.25509,-3.97028 8.36133,-5.84961 1.03011,-0.91914 2.09119,-1.75872 2.35742,-1.86719 0.26624,-0.10866 1.23235,-1.53665 2.14844,-3.17383 2.70799,-4.83949 2.19903,-8.8797 -1.20117,-9.51758 -0.99971,-0.18754 -2.02807,-0.71833 -2.28516,-1.17773 -0.37727,-0.67427 -0.75159,-0.73174 -1.93945,-0.30469 -0.97468,0.34999 -1.93851,0.35509 -2.85352,0.0176 -1.16417,-0.42954 -1.6831,-0.27926 -3.29882,0.95313 -1.05463,0.80439 -2.25469,2.26746 -2.66602,3.25195 -2.12818,5.09344 -8.8092,8.67893 -12.46094,6.6875 -3.10231,-1.69179 -7.06205,-6.55675 -7.76367,-9.53906 -0.18235,-0.77511 -0.76438,-2.13079 -1.29297,-3.01172 -0.84801,-1.41328 -1.40495,-1.68153 -4.73437,-2.28516 -2.07538,-0.37625 -3.99445,-0.88153 -4.26563,-1.12304 -0.7836,-0.69797 -1.64285,-0.52278 -3.56836,0.72851 -1.6757,1.08888 -3.12574,3.67111 -4.25195,7.57227 -0.20858,0.72249 -1.08622,1.52228 -2.16406,1.97265 -1.72588,0.72114 -1.8981,0.69408 -3.58399,-0.59179 -2.15168,-1.64119 -3.32655,-3.78443 -3.33008,-6.07422 -0.005,-2.70131 -0.9865,-5.5411 -2.125,-6.15039 -1.77199,-0.94832 -5.83824,-2.03988 -7.47461,-2.00586 z m 161.23633,16.98633 c -1.89766,-0.004 -3.48945,0.69421 -5.78906,2.2539 -2.0143,1.36622 -2.56288,2.04323 -2.57422,3.16602 -0.007,0.78504 0.19045,1.42578 0.44141,1.42578 0.25084,0 0.73727,0.67803 1.08008,1.50586 0.4467,1.07845 1.37234,1.81673 3.26562,2.60351 2.56297,1.06515 3.78096,1.31809 8.69336,1.8086 3.06573,0.30614 4.00917,0.6871 6.45313,2.60351 1.1227,0.88033 2.87617,2.11851 3.89453,2.75196 3.13644,1.95084 8.33789,1.09666 8.33789,-1.36914 0,-1.37367 -2.66625,-5.20895 -5.88282,-8.4629 -3.17147,-3.20829 -7.74951,-5.68779 -13.95507,-7.55468 -1.5769,-0.47441 -2.82625,-0.72999 -3.96485,-0.73242 z"
     transform="scale(0.26458334)"
     id="path5095"
     inkscape:connector-curvature="0"
     sodipodi:nodetypes="ccccccscscccccccccscccccsccccccccccccccccscccccccscscsccscscscccscscccccssccccscccscccccccccsccsscccccccccccscccccscccccccsccsscccccscccccscccccccccccccccccscccscscccsccccscccccccscccsscccccccccccsccccccscscssccscscccccsccsccsccsccccccccssccccsccccsccccccccscccccscccccccccccscccccsscccscccsccsscscscccccccsccssccccccscccccccccccscccccccccccccccscccccccccscccccccccccccccccccccccccccccccscccccsccc" />
  <path
     id="path5494"
     style="color:#000000;font-style:normal;font-variant:normal;font-weight:normal;font-stretch:normal;font-size:medium;line-height:normal;font-family:sans-serif;font-variant-ligatures:normal;font-variant-position:normal;font-variant-caps:normal;font-variant-numeric:normal;font-variant-alternates:normal;font-feature-settings:normal;text-indent:0;text-align:start;text-decoration:none;text-decoration-line:none;text-decoration-style:solid;text-decoration-color:#000000;letter-spacing:normal;word-spacing:normal;text-transform:none;writing-mode:lr-tb;direction:ltr;text-orientation:mixed;dominant-baseline:auto;baseline-shift:baseline;text-anchor:start;white-space:normal;shape-padding:0;clip-rule:nonzero;display:inline;overflow:visible;visibility:visible;opacity:1;isolation:auto;mix-blend-mode:normal;color-interpolation:sRGB;color-interpolation-filters:linearRGB;solid-color:#000000;solid-opacity:1;vector-effect:none;fill:#0d0066;fill-opacity:1;fill-rule:nonzero;stroke:none;stroke-width:2.63201809;stroke-linecap:round;stroke-linejoin:round;stroke-miterlimit:4;stroke-dasharray:none;stroke-dashoffset:0;stroke-opacity:1;color-rendering:auto;image-rendering:auto;shape-rendering:crispEdges;text-rendering:auto;enable-background:accumulate"
     d="m 46.048555,84.38275 v 0.396875 h 2.252171 V 84.38275 Z m 0,-6.349952 v 0.396875 h 2.252171 v -0.396875 z m -1.622554,1.585682 v 0.396875 h 5.506125 V 79.61848 Z m -0.333828,0.79375 v 0.396875 H 50.26544 V 80.41223 Z m -0.108003,0.79375 v 0.210323 0.186552 h 6.389275 V 81.416303 81.20598 Z m 0.102058,0.79375 v 0.396875 h 6.185154 V 81.99973 Z m 0.326078,0.79375 v 0.396875 H 49.94582 V 82.79348 Z m 0.655,0.79375 v 0.396875 h 4.224287 V 83.58723 Z M 59.487455,66.918398 v 0.396875 h 1.539623 v -0.396875 z m -14.395633,11.90625 v 0.396875 h 4.17494 v -0.396875 z m 13.014968,-11.1125 v 0.396875 h 4.274675 v -0.396875 z m -0.706159,0.79375 v 0.396875 h 5.686991 v -0.396875 z m -0.371036,0.79375 v 0.396875 h 6.429065 v -0.396875 z m -7.132352,6.6e-5 v 0.396809 l 2.618846,6.6e-5 v -0.396875 z m -0.989116,0.793684 v 0.396875 h 4.597136 v -0.396875 z m 7.971089,0 v 0.396875 h 6.729823 v -0.396875 z m -8.695073,0.79375 v 0.396875 l 6.044329,6.6e-5 v -0.396875 z m 8.74236,0 v 0.396875 h 6.63525 v -0.396875 z m -9.148541,0.79375 v 0.396875 h 6.856431 v -0.396875 z m 9.397619,0 v 0.396875 h 6.137093 v -0.396875 z m -9.582618,0.79375 v 0.396875 h 7.225914 v -0.396875 z m 10.091891,0 v 0.396875 h 5.11855 v -0.396875 z m -10.097061,0.79375 v 0.396875 h 7.236251 v -0.396875 z m 11.118961,0 v 0.396875 h 3.074747 v -0.396875 z m -10.943778,0.79375 v 0.396875 h 6.886401 v -0.396875 z m 0.389125,0.79375 v 0.396875 h 6.108928 v -0.396875 z m 0.699699,0.79375 v 0.396875 h 4.70979 v -0.396875 z m 0.92347,0.79375 v 0.396941 h 2.862792 v -0.396875 z m 6.329835,0 v 0.396875 h 5.23534 v -0.396875 z m -1.352372,0.79375 v 0.396875 h 7.940601 v -0.396875 z m -0.860673,0.79375 v 0.396875 h 9.662461 v -0.396875 z m -0.612624,0.79375 v 0.396875 h 10.887707 v -0.396875 z m -0.443641,0.79375 v 0.396875 h 11.775508 v -0.396875 z m -0.310835,0.79375 v 0.396875 h 12.397177 v -0.396875 z m -0.198693,0.79375 v 0.396875 H 65.12109 v -0.396875 z m -0.09354,0.79375 v 0.396875 H 65.21488 v -0.396875 z m 0.0016,0.79375 v 0.396875 h 12.978788 v -0.396875 z m 0.09844,0.79375 v 0.396875 H 65.11463 v -0.396875 z m 0.202571,0.79375 v 0.396875 h 12.376505 v -0.396875 z m 0.316259,0.79375 v 0.396875 h 11.743729 v -0.396875 z m 0.449844,0.79375 v 0.396875 h 10.844041 v -0.396875 z m 0.620375,0.79375 v 0.396875 h 9.603033 v -0.396875 z m 0.872299,0.79375 v 0.396875 h 7.857919 v -0.396875 z m 1.389321,0.79375 v 0.396875 h 5.078759 v -0.396875 z"
     inkscape:connector-curvature="0"
     sodipodi:nodetypes="cccccccccccccccccccccccccccccccccccccccccccccccccccccccccccccccccccccccccccccccccccccccccccccccccccccccccccccccccccccccccccccccccccccccccccccccccccccccccccccccccccccccccccccccccccccccccccccccccccccccccccccccccccccccccccccc" />
  <g
     aria-label="O"
     style="font-style:normal;font-variant:normal;font-weight:normal;font-stretch:normal;font-size:5.64444494px;line-height:1.25;font-family:'Arial Black';-inkscape-font-specification:'Arial Black, ';letter-spacing:0px;word-spacing:0px;fill:none;fill-opacity:1;stroke:#0d0066;stroke-width:0.26458335;stroke-opacity:1"
     id="text5519" />
  <path
     style="color:#000000;font-style:normal;font-variant:normal;font-weight:900;font-stretch:normal;font-size:5.64444447px;line-height:1.25;font-family:'Arial Black';-inkscape-font-specification:'Arial Black, Heavy';font-variant-ligatures:normal;font-variant-position:normal;font-variant-caps:normal;font-variant-numeric:normal;font-variant-alternates:normal;font-feature-settings:normal;text-indent:0;text-align:start;text-decoration:none;text-decoration-line:none;text-decoration-style:solid;text-decoration-color:#000000;letter-spacing:0px;word-spacing:0px;text-transform:none;writing-mode:lr-tb;direction:ltr;text-orientation:mixed;dominant-baseline:auto;baseline-shift:baseline;text-anchor:start;white-space:normal;shape-padding:0;clip-rule:nonzero;display:inline;overflow:visible;visibility:visible;opacity:1;isolation:auto;mix-blend-mode:normal;color-interpolation:sRGB;color-interpolation-filters:linearRGB;solid-color:#000000;solid-opacity:1;vector-effect:none;fill:#0d0066;fill-opacity:1;fill-rule:nonzero;stroke:none;stroke-width:0.36917418;stroke-linecap:butt;stroke-linejoin:miter;stroke-miterlimit:4;stroke-dasharray:none;stroke-dashoffset:2.64583349;stroke-opacity:1;color-rendering:auto;image-rendering:auto;shape-rendering:auto;text-rendering:auto;enable-background:accumulate"
     d="m 10.332031,82.045187 v 0.36914 h 2.871094 v 0.556641 l -2.167969,2.617187 h 2.423828 v -0.36914 h -1.638672 l 1.751954,-2.115235 v -1.058593 z m 0,0.863281 v 0.369141 h 1.357422 l -1.7304686,2.08789 v 1.089844 h 3.4999996 v -0.369141 h -3.130859 v -0.585937 l 2.146484,-2.591797 z"
     id="path5502"
     inkscape:connector-curvature="0" />
  <path
     style="color:#000000;font-style:normal;font-variant:normal;font-weight:normal;font-stretch:normal;font-size:medium;line-height:normal;font-family:sans-serif;font-variant-ligatures:normal;font-variant-position:normal;font-variant-caps:normal;font-variant-numeric:normal;font-variant-alternates:normal;font-feature-settings:normal;text-indent:0;text-align:start;text-decoration:none;text-decoration-line:none;text-decoration-style:solid;text-decoration-color:#000000;letter-spacing:normal;word-spacing:normal;text-transform:none;writing-mode:lr-tb;direction:ltr;text-orientation:mixed;dominant-baseline:auto;baseline-shift:baseline;text-anchor:start;white-space:normal;shape-padding:0;clip-rule:nonzero;display:inline;overflow:visible;visibility:visible;opacity:1;isolation:auto;mix-blend-mode:normal;color-interpolation:sRGB;color-interpolation-filters:linearRGB;solid-color:#000000;solid-opacity:1;vector-effect:none;fill:#0d0066;fill-opacity:1;fill-rule:nonzero;stroke:none;stroke-width:0.36917418;stroke-linecap:butt;stroke-linejoin:miter;stroke-miterlimit:4;stroke-dasharray:none;stroke-dashoffset:0;stroke-opacity:1;color-rendering:auto;image-rendering:auto;shape-rendering:auto;text-rendering:auto;enable-background:accumulate"
     d="m 15.837793,81.976913 c -0.607413,0 -1.113049,0.206378 -1.466577,0.61495 -0.353729,0.408805 -0.523482,0.973151 -0.523482,1.662433 0,0.493127 0.08385,0.915926 0.261483,1.263488 0.05528,0.10817 0.118942,0.20547 0.186552,0.297138 l 0.242879,-0.293005 c -0.03519,-0.05384 -0.06954,-0.109963 -0.101286,-0.172082 -0.143522,-0.280824 -0.220658,-0.644255 -0.220658,-1.095539 0,-0.629963 0.151353,-1.093917 0.433565,-1.420069 0.282409,-0.326382 0.659786,-0.488342 1.187524,-0.488342 0.453659,0 0.794982,0.113628 1.0573,0.336413 l 0.234611,-0.283187 c -0.336281,-0.279897 -0.776171,-0.422198 -1.291911,-0.422198 z m 1.682068,0.885219 -0.254248,0.305925 c 0.133943,0.279659 0.205156,0.62657 0.205156,1.053166 0,0.454184 -0.06791,0.815477 -0.191203,1.08572 -0.123851,0.272955 -0.296533,0.47702 -0.527617,0.626835 -0.223887,0.144455 -0.509862,0.222726 -0.871264,0.222726 -0.370851,0 -0.664173,-0.07019 -0.888318,-0.195336 -0.0099,-0.0056 -0.01868,-0.01326 -0.02842,-0.01912 l -0.236678,0.285256 c 0.02801,0.01832 0.05404,0.03989 0.0832,0.05633 0.293966,0.164653 0.653285,0.241845 1.070219,0.241845 0.414443,0 0.776332,-0.09117 1.070735,-0.28112 h 0.0016 c 0.290387,-0.188262 0.512889,-0.453189 0.662492,-0.782897 0.153337,-0.336095 0.224275,-0.750006 0.224275,-1.240234 0,-0.535631 -0.104578,-0.992534 -0.319877,-1.359091 z m -1.682068,0.07183 c -0.188328,-0.003 -0.299669,0.0069 -0.456819,0.06615 -0.122949,0.04958 -0.210902,0.133181 -0.285254,0.21911 -0.1649,0.190571 -0.290939,0.501634 -0.290939,1.035079 0,0.356277 0.05717,0.605824 0.136943,0.781862 l 0.278019,-0.334862 c -0.02507,-0.113361 -0.04392,-0.259046 -0.04392,-0.447 0,-0.478968 0.09812,-0.678493 0.197404,-0.793234 0.05911,-0.06832 0.09118,-0.09458 0.146245,-0.11679 0.05507,-0.02221 0.148887,-0.03927 0.318326,-0.03927 h 0.0155 c 0.164963,0.0016 0.26948,0.01854 0.326595,0.04082 0.04342,0.01694 0.07282,0.04005 0.104903,0.07183 l 0.234095,-0.282154 c -0.05683,-0.05192 -0.120849,-0.100648 -0.204639,-0.133326 -0.125145,-0.04881 -0.272924,-0.06821 -0.476457,-0.06821 z m 0.988571,0.763778 -0.320394,0.385506 c 0.0023,0.0465 0.0078,0.08442 0.0078,0.137978 0,0.356714 -0.06055,0.591015 -0.10542,0.689364 l -0.0021,0.0057 c -0.05859,0.127847 -0.09378,0.161523 -0.1757,0.214974 -0.045,0.02891 -0.123403,0.06615 -0.349849,0.06615 -0.120299,0 -0.210221,-0.01114 -0.278019,-0.02532 l -0.255799,0.308507 c 0.116202,0.04943 0.283931,0.08785 0.533818,0.08785 0.275799,0 0.445633,-0.06077 0.550871,-0.128673 h 0.0021 c 0.123142,-0.08035 0.230256,-0.198157 0.310575,-0.375171 v -0.0021 l 0.01757,-0.03514 v -0.01188 c 0.06981,-0.173712 0.12299,-0.429528 0.12299,-0.794785 0,-0.211116 -0.02389,-0.377513 -0.05839,-0.522965 z"
     id="path5530"
     inkscape:connector-curvature="0" />
</svg>
