<?xml version="1.0" encoding="UTF-8" standalone="no"?>
<svg
   xmlns:dc="http://purl.org/dc/elements/1.1/"
   xmlns:cc="http://creativecommons.org/ns#"
   xmlns:rdf="http://www.w3.org/1999/02/22-rdf-syntax-ns#"
   xmlns:svg="http://www.w3.org/2000/svg"
   xmlns="http://www.w3.org/2000/svg"
   xmlns:xlink="http://www.w3.org/1999/xlink"
   style="shape-rendering:crispEdges"
   id="svg8"
   version="1.1"
   viewBox="0 0 92 97"
   height="97mm"
   width="92mm">
  <defs
     id="defs2">
    <clipPath
       id="clipPath4937"
       clipPathUnits="userSpaceOnUse">
      <use
         height="100%"
         width="100%"
         id="use4939"
         xlink:href="#rect4673"
         y="0"
         x="0" />
    </clipPath>
    <clipPath
       id="clipPath5102"
       clipPathUnits="userSpaceOnUse">
      <use
         height="100%"
         width="100%"
         id="use5104"
         xlink:href="#rect4673"
         y="0"
         x="0" />
    </clipPath>
  </defs>
  <metadata
     id="metadata5">
    <rdf:RDF>
      <cc:Work
         rdf:about="">
        <dc:format>image/svg+xml</dc:format>
        <dc:type
           rdf:resource="http://purl.org/dc/dcmitype/StillImage" />
        <dc:title></dc:title>
      </cc:Work>
    </rdf:RDF>
  </metadata>
  <g
     style="display:inline"
     transform="translate(-28.999901,-173.38128)"
     id="layer1">
    <g
       transform="translate(24.461738,-25.102691)"
       id="g5111">
      <path
         style="opacity:1;fill:#e9c6af;fill-opacity:0.93838866;stroke:none;stroke-width:2.45669293;stroke-miterlimit:1;stroke-dasharray:none;stroke-opacity:0.51658768"
         d="m 27.478516,10.46875 c -3.626951,0 -6.546875,2.919927 -6.546875,6.546875 V 348.25 l 20.148437,20.19336 13.970703,-0.23242 0.08789,-1.48438 31.599609,-0.0879 5.498047,-5.15039 9.863283,0.0273 v 2.99219 l 218.92969,0.008 -0.0879,-4.48046 8.46484,0.0566 -0.0859,5.67382 H 354.543 c 3.62695,0 6.54687,-2.91992 6.54687,-6.54687 V 17.015625 c 0,-3.626948 -2.91992,-6.546875 -6.54687,-6.546875 l -25.55785,0.07468 2.4e-4,0.802438 -275.554246,0.0027 V 10.46875 Z M 334.83008,36.548828 h 16.0625 v 13.228516 h -16.0625 z"
         id="rect4636"
         transform="matrix(0.26458333,0,0,0.26458333,0,197)" />
      <path
         style="opacity:1;fill:#999999;fill-opacity:1;stroke:none;stroke-width:2.45669293;stroke-miterlimit:1;stroke-dasharray:none;stroke-opacity:0.51658768"
         d="m 109.17188,246.24219 c -5.4634,0 -9.861333,4.39794 -9.861333,9.86133 v 109.99804 l 1.201173,1.51172 h 181.68359 l 0.3086,-0.77148 V 256.10352 c 0,-5.46339 -4.39988,-9.86133 -9.86329,-9.86133 z m 21.06445,7.80078 h 41.51172 c 1.30383,0 2.35351,1.04968 2.35351,2.35351 v 90.87696 c 0,1.30383 -1.04968,2.35351 -2.35351,2.35351 h -41.51172 c -1.30383,0 -2.35352,-1.04968 -2.35352,-2.35351 v -90.87696 c 0,-1.30383 1.04969,-2.35351 2.35352,-2.35351 z"
         transform="matrix(0.26458333,0,0,0.26458333,0,197)"
         id="rect4663" />
      <path
         style="opacity:1;fill:#e3dbdb;fill-opacity:1;stroke:none;stroke-width:0.64696324;stroke-miterlimit:1;stroke-dasharray:none;stroke-opacity:0.51658768"
         d="m 15.808355,199.72141 h 70.043799 l 0.125699,0.15344 v 50.35393 c 0,1.89096 -1.522326,3.41329 -3.413287,3.41329 H 19.095943 c -1.890961,0 -3.413287,-1.52233 -3.413287,-3.41329 v -50.39555 z"
         id="rect4673" />
      <path
         id="use4770"
         style="opacity:1;fill:#ff00ef;fill-opacity:1;stroke:none;stroke-width:0.18203637;stroke-miterlimit:1;stroke-dasharray:none;stroke-opacity:0.51658768"
         d="m 15.129151,244.60146 h 71.771218 v 0.73801 H 15.129151 Z m 0,-8.11808 h 71.771218 v 0.73801 H 15.129151 Z m 0,-8.11808 h 71.771218 v 0.73801 H 15.129151 Z m 0,-8.11807 h 71.771218 v 0.73801 H 15.129151 Z m 0,-8.11808 h 71.771218 v 0.73801 H 15.129151 Z m 0,-13.28413 h 71.771218 v 6.08856 H 15.129151 Z"
         clip-path="url(#clipPath4937)" />
      <path
         style="fill:#0d0066;fill-opacity:1;stroke:none;stroke-width:0.13733093"
         d="m 46.374843,329.9362 c -0.37766,-0.0716 -0.824569,-0.15671 -0.993131,-0.18907 -0.449324,-0.0863 -1.212458,-0.80782 -1.784327,-1.68715 -0.275782,-0.42405 -0.517855,-0.79389 -0.537943,-0.82188 -0.120183,-0.16743 -1.780987,-0.36557 -5.954437,-0.71036 -2.499619,-0.20652 -4.645567,-0.52276 -5.946263,-0.87628 -0.437994,-0.11905 -1.074502,-0.21645 -1.414462,-0.21645 -0.33996,0 -0.798529,-0.0933 -1.019044,-0.20734 -0.400897,-0.2073 -1.399625,-0.40856 -2.950033,-0.59448 -0.836037,-0.10026 -1.887672,-0.41308 -2.883949,-0.8579 -2.384142,-1.06446 -2.550534,-1.0632 -3.592473,0.0272 -0.441165,0.46165 -1.168548,1.0841 -1.616407,1.38322 -0.708238,0.47301 -0.93181,0.54954 -1.716636,0.58762 -0.496291,0.0241 -1.094636,0.0874 -1.329652,0.14078 -0.560234,0.12717 -1.179354,-0.19469 -1.952909,-1.01528 -0.884383,-0.93816 -1.37644,-1.63951 -1.53995,-2.19495 -0.424806,-1.44308 -0.536863,-1.98373 -0.468011,-2.25807 0.04182,-0.16661 -0.0043,-0.53801 -0.102521,-0.82531 -0.155114,-0.45379 -0.313781,-0.5912 -1.2085386,-1.04672 -0.56649,-0.2884 -1.184479,-0.59308 -1.373309,-0.67708 -0.18883,-0.084 -0.714121,-0.36469 -1.167313,-0.62377 -0.453192,-0.25908 -1.13298,-0.57034 -1.51064,-0.69168 -0.85966,-0.27622 -1.229871,-0.45067 -1.922633,-0.90603 -0.302128,-0.19859 -0.71172,-0.4006 -0.910205,-0.44893 -0.359771,-0.0876 -0.998369,-0.54007 -2.08662201,-1.47847 -0.315577,-0.27212 -0.891481,-0.71587 -1.279787,-0.98611 -0.77090099,-0.5365 -3.89457599,-3.52986 -3.89457599,-3.7321 0,-0.0689 -0.247196,-0.41841 -0.549324,-0.77671 -0.302128,-0.35831 -0.549324,-0.70563 -0.549324,-0.77181 0,-0.0662 -0.154497,-0.32976 -0.343327,-0.58571 -0.18883,-0.25594 -0.343327,-0.54301 -0.343327,-0.63792 0,-0.0949 -0.278096,-0.75583 -0.617989,-1.4687 -0.339895,-0.71288 -0.616245,-1.34935 -0.614113,-1.41439 0.0021,-0.065 -0.176115,-0.48904 -0.396105,-0.94224 -0.891048,-1.83561 -1.236079,-2.65433 -1.504741,-3.5706 -0.5516574,-1.88144 -0.8198954,-2.89505 -0.9812454,-3.70794 -0.08995,-0.45319 -0.216424,-1.04028 -0.281043,-1.30464 -0.06462,-0.26436 -0.190389,-0.94416 -0.279488,-1.51064 -0.0891,-0.5665 -0.218923,-1.22209 -0.288499,-1.45689 -0.06958,-0.23479 -0.137162,-1.52393 -0.150189,-2.86475 -0.02688,-2.76678 0.06873,-2.54472 -1.331715,-3.09267 -0.804349,-0.31473 -0.967374,-0.46744 -1.385223,-1.29767 -0.328625,-0.65295 -0.335888,-0.81361 -0.05608,-1.24066 0.288074,-0.43965 0.831304,-0.53887 1.554128,-0.28384 0.326507,0.1152 0.649804,0.17475 0.718438,0.13233 0.284485,-0.17582 0.532621,-1.1102 0.532621,-2.00563 0,-0.52383 0.05898,-1.36602 0.131079,-1.87152 0.0721,-0.50551 0.204281,-1.568 0.29375,-2.36108 0.08947,-0.79309 0.253414,-1.64197 0.364324,-1.88641 0.11091,-0.24443 0.254359,-0.80062 0.318774,-1.23597 0.230632,-1.55873 0.6456444,-3.41264 0.9150164,-4.0875 0.150745,-0.37766 0.317174,-0.93385 0.369844,-1.23598 0.114593,-0.65734 0.273108,-1.17232 0.782022,-2.54062 0.210695,-0.56649 0.454547,-1.30808 0.541891,-1.64797 0.08734,-0.33989 0.204709,-0.74159 0.260809,-0.89265 0.28237,-0.76035 0.594885,-1.69193 0.691052,-2.05996 0.05921,-0.2266 0.207183,-0.64176 0.328832,-0.92258 0.12165,-0.28082 0.221412,-0.65161 0.221695,-0.82398 2.88e-4,-0.17238 0.12388,-0.51575 0.274662,-0.76305 0.150781,-0.24731 0.274148,-0.55939 0.274148,-0.69353 0,-0.13413 0.05269,-0.30258 0.117085,-0.37433 0.0644,-0.0718 0.194702,-0.43947 0.289569,-0.81713 0.09487,-0.37766 0.251543,-0.87205 0.348171,-1.09864 0.586415,-1.37516 1.168054,-2.95447 1.169548,-3.17564 9.34e-4,-0.1417 0.186353,-0.62169 0.411993,-1.06664 0.225639,-0.44495 0.410253,-0.86859 0.410253,-0.9414 0,-0.0728 0.185396,-0.4071 0.411993,-0.74285 0.226595,-0.33575 0.411992,-0.69857 0.411992,-0.80625 0,-0.10769 0.123367,-0.39814 0.274149,-0.64544 0.150781,-0.24731 0.274379,-0.57704 0.274662,-0.73275 2.88e-4,-0.1557 0.123499,-0.4151 0.273814,-0.57645 0.450703,-0.48377 1.22985699,-2.00663 1.44056099,-2.81558 0.108547,-0.41673 0.321623,-0.96539 0.473504,-1.21923 0.567143,-0.9479 1.65790001,-3.27166 1.65790001,-3.53201 0,-0.21197 -0.125446,-0.28934 -0.583657,-0.36002 -1.81066801,-0.27928 -2.43762401,-0.68445 -2.43762401,-1.57531 0,-0.32812 0.107693,-0.48514 0.514991,-0.75091 0.931035,-0.60751 2.70723501,-1.03064 4.61582801,-1.09959 0.616868,-0.0223 0.715941,-0.0776 1.304643,-0.72842 2.266524,-2.50564 2.527013,-2.89014 2.213749,-3.26761 -0.207551,-0.25008 -1.47945,-0.2233 -3.499301,0.0737 -1.447459,0.21282 -1.656798,0.20629 -2.07017,-0.0645 -0.274265,-0.1797 -0.340156,-0.32286 -0.306859,-0.66671 0.03711,-0.38324 0.110936,-0.45577 0.591727,-0.58134 0.797967,-0.20841 1.579306,-0.57559 1.579306,-0.74217 0,-0.0794 0.146642,-0.14434 0.32587,-0.14434 0.179229,0 0.619659,-0.12996 0.978734,-0.2888 0.692167,-0.30618 1.738096,-0.30871 3.295982,-0.008 1.055387,0.20372 1.363176,0.0914 1.7360796,-0.63367 0.281144,-0.54664 0.722922,-1.19129 1.223193,-1.78492 0.081,-0.0961 0.232661,-0.37912 0.337032,-0.62892 0.104372,-0.2498 0.286034,-0.53407 0.403695,-0.63172 0.117663,-0.0976 0.213932,-0.24324 0.213932,-0.32355 0,-0.0803 0.115672,-0.27358 0.257049,-0.42951 0.211939,-0.23375 1.65734,-2.31371 2.48957,-3.58253 0.428439,-0.6532 0.91636,-1.22289 1.630053,-1.90325 1.960594,-1.86901 2.521561,-2.48438 2.510661,-2.75415 -0.05521,-1.36643 -0.01711,-2.19602 0.106542,-2.31966 0.08103,-0.081 0.147334,-0.55382 0.147334,-1.05063 0,-0.55549 0.07463,-1.00985 0.193839,-1.18004 0.128734,-0.18379 0.223975,-0.87442 0.283558,-2.05619 0.15653,-3.10462 0.179604,-3.41854 0.2822,-3.8394 0.05524,-0.2266 0.214678,-0.53826 0.354308,-0.69257 0.139631,-0.15431 0.32637,-0.4942 0.414975,-0.75532 0.08861,-0.26111 0.285399,-0.65304 0.437318,-0.87095 0.151918,-0.21792 0.354109,-0.61961 0.449311,-0.89266 l 0.173096,-0.49643 1.456193,0.0328 c 0.913148,0.0206 1.595585,0.10414 1.829976,0.22409 0.20558,0.10521 0.634608,0.23461 0.953397,0.28757 0.318787,0.0529 0.727138,0.21234 0.907447,0.35417 0.180307,0.14183 0.53747,0.29261 0.793694,0.33505 0.653377,0.10826 1.153639,0.3242 2.1825,0.9421 1.288771,0.77399 1.37331,0.86911 1.37331,1.54532 0,0.62703 -0.07155,0.71207 -0.823986,0.97929 -0.724634,0.25734 -1.095322,0.21406 -1.994796,-0.23286 -0.451269,-0.22423 -0.891897,-0.40963 -0.979175,-0.41199 -0.08728,-0.002 -0.396271,-0.12178 -0.686655,-0.26535 -0.893931,-0.44199 -1.990777,-0.83761 -2.322233,-0.83761 -0.18937,0 -0.42035,0.15109 -0.577328,0.37766 -0.53317,0.76952 -0.702525,1.50946 -0.856518,3.74227 -0.06512,0.94414 -0.184311,2.08743 -0.264879,2.54062 -0.342142,1.92454 -0.345452,2.12863 -0.03453,2.12863 0.156217,0 0.322223,-0.0618 0.368905,-0.13733 0.04668,-0.0755 0.202651,-0.13734 0.3466,-0.13734 0.143949,0 0.32027,-0.10939 0.391823,-0.24308 0.07155,-0.1337 1.047061,-0.70201 2.167794,-1.26293 1.120733,-0.56091 2.252624,-1.19311 2.515312,-1.40488 0.262689,-0.21178 0.554841,-0.38505 0.649227,-0.38505 0.09439,0 0.497448,-0.17586 0.895693,-0.39081 0.398246,-0.21494 0.971279,-0.47019 1.273407,-0.56722 0.302131,-0.097 0.611126,-0.22258 0.686658,-0.27901 0.182068,-0.13603 1.835876,-0.55057 2.952615,-0.74009 l 0.892651,-0.1515 0.04134,-0.54932 c 0.02273,-0.30213 0.129234,-0.61672 0.236662,-0.69911 0.107429,-0.0824 0.249325,-0.29577 0.315324,-0.47418 l 0.120001,-0.3244 4.655916,-0.0304 c 2.760123,-0.018 5.019383,0.0285 5.548567,0.11415 0.490957,0.0795 1.356142,0.1953 1.922632,0.25735 0.566491,0.0621 1.431676,0.17912 1.922634,0.26016 0.490957,0.081 1.51064,0.20084 2.26596,0.26623 0.75532,0.0654 1.89442,0.21908 2.531333,0.34152 0.636914,0.12244 1.267865,0.18776 1.402113,0.14515 0.134808,-0.0428 0.525427,0.0796 0.87248,0.27335 0.345615,0.19296 0.838678,0.35083 1.095697,0.35083 0.544281,0 2.654697,0.64329 2.956222,0.90111 0.113298,0.0969 0.391393,0.22018 0.617989,0.27401 0.401785,0.0954 2.056709,0.87838 3.158612,1.49433 l 0.549323,0.30707 0.602992,-0.52695 c 0.331644,-0.28981 0.718726,-0.52694 0.860181,-0.52694 0.141456,0 0.37995,-0.0618 0.52999,-0.13733 0.150039,-0.0755 0.403398,-0.20402 0.56302,-0.28554 0.159625,-0.0815 0.39137,-0.16921 0.514992,-0.19486 0.396492,-0.0823 1.233152,-0.4722 1.32213,-0.61617 0.04739,-0.0767 0.221561,-0.13963 0.387051,-0.13992 0.165489,-2.9e-4 0.503229,-0.12388 0.750534,-0.27466 0.247304,-0.15078 0.53897,-0.27415 0.648144,-0.27415 0.109175,0 0.401226,-0.11203 0.649002,-0.24897 0.588891,-0.32546 2.413599,-1.03227 3.540449,-1.37143 0.49096,-0.14777 1.14149,-0.34335 1.44561,-0.43463 0.66568,-0.1998 1.31704,-0.21805 2.63749,-0.0739 l 0.99316,0.10841 0.2879,0.76948 c 0.20769,0.5551 0.26875,0.96093 0.21917,1.45661 -0.0905,0.90442 -0.23678,1.61566 -0.36734,1.78575 -0.058,0.0755 -0.32605,0.78622 -0.59573,1.57931 -0.26967,0.79309 -0.73977,2.0907 -1.04465,2.8836 -0.30488,0.79288 -0.55433,1.51549 -0.55433,1.60578 0,0.38398 -0.62524,1.17411 -1.19188,1.50617 -0.55025,0.32247 -0.64847,0.34005 -0.98014,0.17538 -0.20273,-0.10065 -0.59366,-0.39302 -0.86873,-0.6497 -0.45291,-0.42264 -0.49406,-0.52055 -0.43582,-1.037 0.0645,-0.57173 0.51717,-2.14693 0.74551,-2.59407 0.067,-0.13115 0.12178,-0.35999 0.12178,-0.50852 0,-0.14854 0.0554,-0.41202 0.12303,-0.58553 0.0677,-0.1735 0.20205,-0.59355 0.29864,-0.93345 0.0966,-0.33989 0.28623,-0.71068 0.42144,-0.82398 0.15424,-0.12926 0.26042,-0.43622 0.28501,-0.82398 0.0352,-0.55579 0.007,-0.62255 -0.27987,-0.66319 -0.17549,-0.0248 -0.51538,0.0465 -0.75532,0.15857 -0.8025,0.37486 -2.07865,0.88001 -2.63356,1.04246 -0.302127,0.0885 -0.796518,0.27723 -1.098646,0.41953 -0.302129,0.14228 -0.855017,0.39281 -1.228641,0.5567 -0.373624,0.16391 -0.89379,0.44375 -1.155921,0.62188 -0.262132,0.17812 -0.526265,0.29317 -0.586961,0.25565 -0.145825,-0.0901 -0.942409,0.32546 -0.942409,0.49165 0,0.0712 0.324444,0.34727 0.720988,0.61332 0.396543,0.26605 0.999082,0.69837 1.338976,0.96071 0.339894,0.26233 0.818836,0.57888 1.064315,0.70344 0.245479,0.12456 0.446326,0.27707 0.446326,0.3389 0,0.0618 0.127138,0.15279 0.282528,0.2021 0.155391,0.0494 0.338387,0.2366 0.406659,0.41616 0.06827,0.17957 0.382061,0.48931 0.697316,0.68832 0.71282,0.44999 2.12212,1.82741 2.80166,2.7383 0.55399,0.74258 0.66684,0.87889 1.26163,1.52388 0.21567,0.23388 0.47209,0.60073 0.56982,0.81521 0.0977,0.21448 0.34371,0.61021 0.54664,0.8794 0.39903,0.52933 0.48581,0.67562 1.07006,1.80396 0.21229,0.41 0.55853,0.98647 0.76943,1.28104 0.21089,0.29458 0.38344,0.61144 0.38344,0.70414 0,0.23821 1.70344,3.23543 2.02718,3.56685 0.14756,0.15106 0.39066,0.55276 0.54022,0.89265 0.14954,0.33989 0.37465,0.70281 0.50022,0.80647 0.12558,0.10366 0.22832,0.29301 0.22832,0.42076 0,0.12776 0.28448,0.65649 0.6322,1.17494 0.34771,0.51846 1.01859,1.68869 1.49085,2.60052 0.47227,0.91182 1.08924,2.05955 1.37105,2.55051 0.28182,0.49096 0.9351,1.75963 1.45175,2.81927 0.51664,1.05964 1.06745,2.04255 1.22402,2.18424 0.15657,0.1417 0.28468,0.33575 0.28468,0.43121 0,0.0955 0.0842,0.34855 0.18718,0.56238 0.54846,1.13919 0.89938,1.93635 0.98729,2.24275 0.0542,0.18884 0.18288,0.46523 0.286,0.61422 0.10313,0.14898 0.1875,0.35415 0.1875,0.45591 0,0.10177 0.20057,0.47426 0.44571,0.82777 0.44969,0.64845 0.71576,1.23862 0.92053,2.04183 0.0614,0.24078 0.39278,1.01327 0.73641,1.71663 0.34364,0.70338 0.76049,1.64965 0.92633,2.10285 0.16584,0.45319 0.40651,0.94758 0.53481,1.09864 0.12831,0.15106 0.40565,0.67635 0.61633,1.16731 0.21067,0.49096 0.4687,1.02953 0.57341,1.19682 0.10471,0.16729 0.19039,0.45718 0.19039,0.64422 0,0.18703 0.0533,0.373 0.11849,0.41328 0.0652,0.0402 0.20061,0.36837 0.30098,0.7291 0.10036,0.36072 0.28966,0.84125 0.42067,1.06784 0.131,0.22661 0.36964,0.81369 0.5303,1.30465 0.160675,0.49096 0.412435,1.15463 0.559485,1.47481 0.14706,0.32019 0.26737,0.71007 0.26737,0.86641 0,0.15634 0.17839,0.82135 0.39642,1.47781 0.53107,1.59892 0.67213,2.32457 0.75262,3.8715 0.0676,1.29846 0.44503,3.78953 0.6139,4.05127 0.0487,0.0755 0.13119,2.02219 0.18325,4.32591 0.0961,4.25293 0.32026,6.80593 0.64989,7.40212 0.11606,0.2099 0.15284,0.54396 0.10131,0.91991 -0.0512,0.37409 -0.004,0.80674 0.12837,1.18107 0.23137,0.65305 0.29357,4.02927 0.11335,6.15263 -0.0545,0.64203 -0.10839,2.12762 -0.11978,3.30133 -0.0114,1.17371 -0.0722,2.21722 -0.135,2.31893 -0.0628,0.1017 -0.15678,1.18076 -0.20871,2.3979 -0.0756,1.77183 -0.17176,2.50892 -0.48237,3.69739 -0.34919,1.33607 -0.36684,1.50551 -0.17665,1.69572 0.16114,0.16114 0.27574,0.17683 0.48265,0.0661 0.54381,-0.29104 2.32669,-0.80958 3.33131,-0.96889 0.5665,-0.0898 1.35432,-0.22624 1.75072,-0.30313 0.49866,-0.0967 0.94295,-0.0945 1.44197,0.007 0.39669,0.0809 1.15384,0.17492 1.68257,0.2089 1.2592,0.0809 3.23702,0.43611 3.80591,0.68348 0.54008,0.23483 1.81293,0.62808 2.03296,0.62808 0.0862,0 0.50717,0.3012 0.93552,0.66933 0.42834,0.36814 0.91785,0.74111 1.08781,0.82882 0.22873,0.11805 0.30899,0.28096 0.30899,0.6272 0,0.25725 0.0618,0.50591 0.13733,0.5526 0.0761,0.047 0.13733,0.67009 0.13733,1.39611 0,1.15299 -0.0473,1.41305 -0.39161,2.15485 -0.21539,0.464 -0.46387,1.02902 -0.55217,1.25562 -0.24081,0.61795 -2.42394,2.70791 -3.29022,3.14979 -1.08858,0.55529 -3.20524,1.09049 -5.17317,1.30804 -0.75532,0.0835 -1.8149,0.21503 -2.35461,0.29229 -0.53972,0.0772 -1.6521,0.16773 -2.47196,0.20104 -0.81986,0.0333 -2.35584,0.099 -3.41329,0.14597 -3.075975,0.1366 -4.062265,-0.13008 -5.513055,-1.49064 -0.56852,-0.53316 -0.87324,-0.45334 -1.24596,0.32638 -0.23994,0.50193 -0.51646,0.7765 -1.30464,1.29542 -0.5501,0.36218 -1.08185,0.7399 -1.18166,0.83939 -0.0998,0.0995 -0.23331,0.18088 -0.29666,0.18088 -0.0634,0 -0.41428,0.23287 -0.77985,0.51749 -0.79975,0.62268 -1.2988,0.85581 -1.83196,0.85581 -0.43238,0 -0.96857,0.19801 -1.51064,0.55785 -0.18884,0.12535 -0.68323,0.30687 -1.09865,0.40337 -0.41543,0.0965 -1.18792,0.39236 -1.71664,0.65746 -0.52872,0.26509 -1.2394,0.56075 -1.5793,0.65701 -0.3399,0.0963 -0.98878,0.30506 -1.44197,0.46398 -1.40763,0.49361 -1.65216,0.55627 -2.17075,0.55627 -0.49612,0 -0.87471,0.0747 -2.49851,0.49287 -3.703915,0.9539 -3.605881,0.93747 -4.51478,0.75681 -0.668461,-0.13287 -0.934403,-0.13393 -1.217727,-0.005 -0.284551,0.12966 -0.504487,0.12763 -1.022925,-0.009 -0.875731,-0.23152 -10.363722,-0.31334 -11.921573,-0.10281 -0.604256,0.0817 -1.36258,0.13578 -1.685162,0.12025 -0.322583,-0.0155 -0.971472,0.0658 -1.441975,0.18065 -0.470504,0.11489 -1.504349,0.2372 -2.297435,0.2718 -0.793086,0.0346 -1.890135,0.10655 -2.437885,0.15987 -0.89114,0.0868 -1.02839,0.14007 -1.304644,0.50674 -0.45555,0.60464 -1.615324,1.92804 -1.862865,2.12569 -0.242169,0.19335 -0.736007,0.19437 -1.741811,0.004 z m 8.850893,-6.35156 c 0.230419,-0.11915 0.418945,-0.26908 0.418945,-0.33315 0,-0.0641 -0.148393,-0.38694 -0.329762,-0.71747 -0.181368,-0.33052 -0.374662,-0.81725 -0.42954,-1.08161 -0.05488,-0.26436 -0.18199,-0.59886 -0.282473,-0.74332 -0.100482,-0.14448 -0.284407,-0.58605 -0.408723,-0.98128 -0.208497,-0.66287 -0.208943,-0.79371 -0.0058,-1.68707 0.12115,-0.53266 0.222429,-1.38886 0.225064,-1.90268 0.0026,-0.51381 0.09412,-1.4286 0.203294,-2.03285 0.109177,-0.60426 0.199719,-1.78714 0.201207,-2.62863 0.0022,-1.22691 0.05651,-1.64855 0.274347,-2.12862 0.149405,-0.32927 0.273003,-0.88143 0.274661,-1.22704 0.0016,-0.34561 0.166035,-1.0872 0.36528,-1.64797 0.313675,-0.88284 0.595056,-2.1887 1.003874,-4.65886 0.140884,-0.85126 0.731548,-2.97931 1.23883,-4.46326 0.232382,-0.67978 0.49117,-1.45227 0.575087,-1.71663 0.295906,-0.9322 2.523314,-5.20397 3.364284,-6.4521 0.177215,-0.26301 0.322208,-0.58439 0.322208,-0.71416 0,-0.12978 0.08575,-0.28538 0.190564,-0.34579 0.10481,-0.0604 0.417239,-0.54241 0.694285,-1.07113 0.277048,-0.52873 0.579806,-1.02312 0.672797,-1.09866 0.295007,-0.23961 0.717962,-0.9366 1.041718,-1.71663 0.34639,-0.83457 1.065388,-1.99518 1.715681,-2.76946 0.23258,-0.27693 0.700967,-0.91931 1.040861,-1.42752 0.339894,-0.5082 0.973333,-1.3152 1.407642,-1.79332 0.434309,-0.47813 0.789653,-0.91952 0.789653,-0.98088 0,-0.1579 5.562125,-5.80059 5.717765,-5.80059 0.0705,0 0.2459,-0.19918 0.3897,-0.44262 0.1438,-0.24343 0.45067,-0.59703 0.68193,-0.78576 0.23127,-0.18873 0.60641,-0.53433 0.83366,-0.768 0.39537,-0.40654 0.84264,-0.80588 2.60914,-2.32955 1.00655,-0.86819 2.30078,-1.85064 2.44042,-1.85252 0.0588,-7.8e-4 0.76945,-0.31885 1.5793,-0.70678 1.87303,-0.89721 3.53508,-1.60335 4.15043,-1.76337 0.26436,-0.0687 0.69695,-0.18538 0.96131,-0.25919 2.67353,-0.74644 4.2981,-1.04775 5.44268,-1.00944 0.8504,0.0285 1.13414,-0.008 1.18966,-0.15261 0.0401,-0.10449 -0.29096,-0.98692 -0.73571,-1.96096 -0.83632,-1.83165 -0.92269,-2.03711 -1.43724,-3.41894 -0.76054,-2.04243 -1.0871,-2.77077 -1.38878,-3.09746 -0.17819,-0.19296 -0.32478,-0.50196 -0.32576,-0.68665 -0.003,-0.57071 -0.53543,-2.07323 -0.96383,-2.71999 -0.22424,-0.33854 -0.40771,-0.72096 -0.40771,-0.84983 0,-0.12886 -0.0927,-0.31124 -0.20599,-0.40526 -0.1133,-0.094 -0.206,-0.2873 -0.206,-0.42949 0,-0.14218 -0.15449,-0.57877 -0.34333,-0.97019 -0.18883,-0.39143 -0.34332,-0.78808 -0.34332,-0.88145 0,-0.0934 -0.14511,-0.34444 -0.32245,-0.55795 -0.17733,-0.21351 -0.36092,-0.54622 -0.40795,-0.73935 -0.047,-0.19313 -0.36542,-0.77733 -0.70754,-1.2982 -0.34211,-0.52088 -0.62203,-1.02578 -0.62203,-1.12199 0,-0.3728 -0.62468,-0.5628 -2.05996,-0.62655 -1.72678,-0.0767 -3.69767,0.0667 -5.01253,0.36473 -0.52869,0.11983 -1.12426,0.21788 -1.32348,0.21788 -0.19922,0 -1.11775,0.24719 -2.04118,0.54932 -1.97388,0.64582 -2.419539,0.67209 -3.240287,0.19111 -1.274737,-0.74704 -1.192566,-1.70123 0.21901,-2.54316 0.774247,-0.4618 2.131997,-0.81444 4.463257,-1.15924 2.57093,-0.38024 3.6598,-0.48255 5.00663,-0.47042 0.87189,0.008 1.6625,0.0109 1.75692,0.007 0.0944,-0.004 0.17166,-0.13439 0.17166,-0.28937 0,-0.27696 -0.0741,-0.44611 -0.94073,-2.14612 -0.23792,-0.46672 -0.43258,-0.92438 -0.43258,-1.01701 0,-0.0926 -0.16995,-0.38958 -0.37766,-0.65989 -0.47404,-0.6169 -0.62669,-0.87266 -1.04065,-1.74361 -0.1826,-0.38418 -0.67977,-1.10846 -1.10482,-1.6095 -0.42505,-0.50105 -0.77281,-0.98085 -0.77281,-1.06624 0,-0.0854 -0.3399,-0.76083 -0.75532,-1.50099 -0.41543,-0.74017 -0.75532,-1.4046 -0.75532,-1.47651 0,-0.0719 -0.27277,-0.55705 -0.60616,-1.07809 -1.09471,-1.71091 -1.17914,-1.85717 -1.17914,-2.04252 0,-0.10092 -0.20992,-0.43474 -0.46649,-0.74183 -0.25657,-0.30709 -0.59518,-0.8242 -0.75248,-1.14913 -0.43894,-0.90673 -3.516,-4.22374 -3.918198,-4.22374 -0.111766,0 -0.31273,-0.18539 -0.446584,-0.41199 -0.133854,-0.22659 -0.32057,-0.41199 -0.414924,-0.41199 -0.09436,0 -0.237703,-0.1236 -0.318551,-0.27467 -0.08085,-0.15106 -0.213677,-0.27466 -0.295179,-0.27466 -0.0815,0 -0.496469,-0.30038 -0.922151,-0.66752 -0.425683,-0.36715 -0.969825,-0.76784 -1.209206,-0.89045 -0.23938,-0.1226 -0.847343,-0.53878 -1.351027,-0.92483 -0.503684,-0.38606 -1.180297,-0.81892 -1.503586,-0.96193 -0.323287,-0.143 -0.665325,-0.35342 -0.760085,-0.4676 -0.09476,-0.11418 -0.303769,-0.20956 -0.464467,-0.21196 -0.160699,-0.002 -0.41214,-0.0951 -0.558757,-0.206 -0.146617,-0.1109 -0.36789,-0.20163 -0.491716,-0.20163 -0.123827,0 -0.529158,-0.15423 -0.900736,-0.34275 -0.371577,-0.18851 -0.717268,-0.34301 -0.768198,-0.34333 -0.05093,-3.1e-4 -0.730721,-0.30245 -1.510641,-0.67142 -0.779922,-0.36896 -1.727032,-0.74366 -2.104693,-0.83265 -0.377652,-0.089 -0.902943,-0.21511 -1.167304,-0.28024 -1.43865,-0.35443 -1.891275,-0.40849 -5.630569,-0.67246 -0.868618,-0.0614 -1.674646,-0.15345 -1.791173,-0.20473 -0.116526,-0.0513 -0.549119,-0.11995 -0.961317,-0.15259 -0.412197,-0.0326 -1.089343,-0.12678 -1.504769,-0.2092 -1.522636,-0.30211 -1.74101,-0.30858 -2.116091,-0.0628 -0.457341,0.29967 -1.170163,0.30132 -2.896488,0.007 -0.75532,-0.12888 -1.527807,-0.19532 -1.716636,-0.14763 -0.188831,0.0477 -0.652323,0.14001 -1.029982,0.20514 -1.031147,0.17783 -1.481553,0.28263 -1.785303,0.41542 -0.511012,0.22339 -1.515956,0.52163 -2.064057,0.61255 -0.735998,0.12209 -0.946077,0.20599 -3.39524,1.35603 -0.58559,0.27497 -1.126331,0.49995 -1.201646,0.49995 -0.07532,0 -0.136937,0.0606 -0.136937,0.13471 0,0.0741 -0.169948,0.17696 -0.377661,0.22859 -0.494809,0.12299 -1.905463,0.89274 -3.192944,1.74229 -0.56649,0.37381 -1.385411,0.84897 -1.819824,1.05593 -0.434412,0.20697 -1.062803,0.59998 -1.396421,0.87335 -0.33362,0.27338 -0.667879,0.49705 -0.7428,0.49705 -0.188611,0 -1.55813,1.08827 -1.804387,1.43384 -0.110841,0.15553 -0.344514,0.4064 -0.519274,0.55745 -0.598535,0.51739 -2.079161,1.98833 -2.189856,2.17554 -0.06085,0.1029 -0.338073,0.45888 -0.616069,0.79108 -1.525797,1.82328 -2.650222,3.36661 -2.791337,3.83126 -0.05735,0.18884 -0.303117,0.56503 -0.546159,0.83598 -0.243042,0.27096 -0.609604,0.82715 -0.814582,1.23598 -0.481312,0.95999 -0.678427,1.30423 -0.916569,1.6007 -0.618385,0.76986 -0.706252,1.43584 -0.228137,1.72915 1.886593,1.15735 2.437624,1.53969 2.437624,1.69139 0,0.0983 0.123367,0.38105 0.274148,0.62836 0.338539,0.55525 0.353895,1.18358 0.03485,1.42578 -0.271778,0.20631 -0.941627,0.25235 -1.052861,0.0724 -0.04039,-0.0653 -0.321892,-0.15213 -0.625576,-0.19286 -0.423194,-0.0568 -0.694115,-0.22013 -1.159971,-0.69946 -0.334302,-0.34397 -0.89469,-0.76025 -1.245311,-0.92506 l -0.637493,-0.29969 -0.548999,0.53426 c -0.301948,0.29384 -0.7289486,0.81235 -0.9488916,1.15224 -0.219942,0.3399 -0.467125,0.69671 -0.549295,0.79291 -0.08217,0.0962 -0.130144,0.36955 -0.10661,0.60742 0.03646,0.36847 0.124102,0.45961 0.592115,0.61575 0.8809786,0.29389 1.4830856,1.45848 1.0025156,1.93905 -0.110384,0.11039 -0.7247916,0.1648 -1.8607876,0.1648 -1.708009,0 -2.506336,0.18421 -2.506336,0.57833 0,0.0876 -0.11921,0.28687 -0.264911,0.44281 -0.378189,0.40474 -1.65719,2.83104 -2.176448,4.12877 -0.343356,0.85812 -0.544505,1.31481 -0.695612,1.57931 -0.148026,0.25911 -1.251562,2.56711 -1.707229,3.57061 -0.36634701,0.80678 -0.64903701,1.63348 -0.64903701,1.89805 0,0.10358 0.257416,0.16191 0.71456401,0.16191 0.721864,0 2.95853,0.61173 4.056189,1.10937 0.320188,0.14517 0.691777,0.26394 0.825753,0.26394 0.133977,0 0.304597,0.13794 0.379157,0.30655 0.07456,0.16861 0.259161,0.3702 0.410225,0.448 0.603106,0.31056 1.128896,0.70128 1.746357,1.29773 1.7380696,1.67893 3.2567136,2.92699 5.5244466,4.54013 1.704801,1.21271 3.509675,2.86711 3.509675,3.21707 0,0.11111 0.08058,0.25144 0.17906,0.31184 0.253915,0.15574 0.964436,1.25683 1.178593,1.82647 0.09939,0.26436 0.233042,0.60425 0.297007,0.75532 0.3092,0.73022 0.492895,4.52119 0.269507,5.5619 -0.08917,0.41543 -0.342315,1.12611 -0.562544,1.5793 -0.220226,0.4532 -0.400389,0.9274 -0.40036,1.0538 4.4e-5,0.18978 -0.379822,0.76341 -1.115758,1.68488 -0.06381,0.0799 -0.271455,0.33959 -0.461425,0.57709 -0.189969,0.2375 -0.345397,0.48504 -0.345397,0.55009 0,0.0651 -0.200976,0.28585 -0.446613,0.49066 -0.851302,0.70981 -1.750681,1.60491 -1.750681,1.74235 0,0.076 -0.407409,0.43426 -0.90535,0.79622 -0.497941,0.36196 -1.296765,0.98256 -1.775164,1.3791 -0.478399,0.39655 -0.904743,0.72099 -0.947431,0.72099 -0.04269,0 -0.355009,0.21174 -0.694044,0.47053 -0.3390376,0.2588 -0.7567136,0.5133 -0.9281736,0.56557 -0.171457,0.0522 -0.409665,0.18075 -0.529348,0.28551 -0.297466,0.26038 -3.774516,1.97433 -4.005267,1.97433 -0.101997,0 -0.244158,0.0553 -0.315913,0.12286 -0.07176,0.0676 -0.563057,0.27873 -1.091781,0.46925 -0.528724,0.1905 -1.191078,0.44422 -1.471896,0.56379 -0.28082,0.11958 -0.657568,0.21741 -0.83721901,0.21741 -0.179652,0 -0.506081,0.0894 -0.725399,0.19866 -0.21931700255,0.10926 -0.985849,0.26785 -1.70340299,0.35241 -0.717554,0.0846 -1.737236,0.22092 -2.26596,0.303 -0.528724,0.0821 -1.598082,0.15525 -2.376351,0.16258 -1.337506,0.0126 -1.429961,0.0322 -1.687461,0.35666 -0.246799,0.31103 -0.265684,0.4919 -0.200762,1.92263 0.03942,0.86862 0.128061,2.1046 0.196991,2.74662 0.130672,1.21711 1.455265,6.56718 1.921055,7.7592 0.46716,1.19553 1.408764,3.29083 1.539788,3.42641 0.06935,0.0718 0.126082,0.23736 0.126082,0.36801 0,0.31235 1.330224,2.90172 1.895701,3.69012 1.49465399,2.08384 2.28020899,2.9111 5.108176,5.37938 0.264362,0.23073 1.284044,0.81875 2.26596,1.3067 0.981916,0.48795 1.9398,0.97107 2.12863,1.0736 0.18883,0.10252 0.683221,0.33635 1.098647,0.51961 0.415426,0.18326 1.050519,0.46566 1.411316,0.62754 0.3607966,0.16189 0.8587446,0.29434 1.1065506,0.29434 0.394628,0 0.481016,-0.0691 0.695947,-0.5562 0.134967,-0.30591 0.304061,-0.76866 0.375767,-1.02836 0.176184,-0.6381 0.531881,-0.79857 1.582994,-0.7142 0.920884,0.074 1.417417,0.31063 1.765313,0.84159 0.179568,0.27406 0.188128,0.44932 0.05524,1.13107 -0.08649,0.44371 -0.165805,1.14584 -0.176251,1.56028 l -0.019,0.75353 0.695248,0.35213 c 0.382387,0.19367 0.907677,0.43246 1.167312,0.53065 0.259636,0.0982 0.606352,0.24197 0.770479,0.31952 0.525081,0.24813 0.945216,0.0307 1.192698,-0.61737 0.124038,-0.32478 0.225525,-0.68931 0.225525,-0.81004 0,-0.12074 0.276283,-0.52037 0.613962,-0.88807 0.606593,-0.66051 0.623209,-0.66814 1.384511,-0.63537 0.549696,0.0237 0.888623,0.12206 1.182503,0.34333 0.656407,0.49421 1.213778,1.10896 1.211682,1.33641 -0.0011,0.11536 -0.248257,0.66162 -0.549323,1.21393 -0.301066,0.55231 -0.547392,1.12253 -0.547392,1.26714 0,0.35584 0.456779,0.62989 1.442653,0.86557 0.452818,0.10826 1.108135,0.35868 1.45626,0.5565 0.414748,0.23568 0.995938,0.40571 1.68588,0.49318 0.579111,0.0734 1.190366,0.20931 1.358347,0.30197 0.167979,0.0927 0.70711,0.21755 1.198069,0.27753 1.083899,0.13241 2.171333,0.3169 3.089945,0.52423 1.259354,0.28424 5.03362,0.66182 6.753739,0.67565 1.182897,0.01 1.497814,-0.18737 1.257928,-0.78644 -0.304586,-0.76066 -0.454612,-1.06859 -0.693845,-1.42413 -0.134903,-0.20049 -0.245279,-0.43815 -0.245279,-0.52813 0,-0.09 -0.115835,-0.32763 -0.257413,-0.52812 -0.364155,-0.51568 -0.609043,-1.7452 -0.418509,-2.10122 0.178043,-0.33267 1.144853,-0.79669 1.668728,-0.80091 0.206151,-0.002 0.762341,0.20521 1.235979,0.45971 0.87273,0.46895 1.320466,1.03266 1.335224,1.68107 0.0037,0.15941 0.165166,0.5235 0.358975,0.80909 0.193809,0.28559 0.496515,0.80406 0.672679,1.15215 1.130262,2.2333 1.319517,2.48685 1.856237,2.48685 0.865427,0 1.238633,-1.06054 1.238633,-3.51982 v -1.42237 l 0.569929,-0.41286 c 0.389694,-0.2823 0.731028,-0.41285 1.079356,-0.41285 0.736295,0 2.104315,0.74562 2.551218,1.3905 0.327649,0.47279 0.354867,0.60424 0.272967,1.31829 -0.05003,0.43624 -0.222618,1.17753 -0.38352,1.64732 -0.246293,0.71911 -0.26603,0.91238 -0.124826,1.22229 l 0.167725,0.36811 1.634558,-0.0822 c 1.078251,-0.0542 1.777143,-0.15592 2.053504,-0.29883 z m 25.678609,-74.8189 c -0.26944,-0.1676 -0.73293,-0.4953 -1.02998,-0.72822 -0.64663,-0.50705 -0.89627,-0.60775 -1.70741,-0.68875 -1.29974,-0.12978 -1.62212,-0.19687 -2.30024,-0.47869 -0.50093,-0.20817 -0.74588,-0.40343 -0.86407,-0.68877 -0.0907,-0.21903 -0.21926,-0.39824 -0.28563,-0.39824 -0.0664,0 -0.11907,-0.16995 -0.11712,-0.37766 0.003,-0.29707 0.14811,-0.47571 0.68106,-0.83719 0.9735,-0.66027 1.46809,-0.73746 2.58068,-0.40274 1.64189,0.49395 2.85357,1.14975 3.69269,1.99861 0.85105,0.86094 1.55654,1.87591 1.55654,2.23936 0,0.65241 -1.37667,0.87845 -2.20652,0.36229 z m -35.572331,-0.71782 c -0.989382,-0.27136 -2.26651,-0.91605 -3.075827,-1.55266 -0.437123,-0.34384 -1.018928,-0.32615 -1.940802,0.059 -0.503304,0.21029 -2.083391,0.27512 -2.729722,0.11201 -0.657009,-0.16582 -2.230343,-0.99769 -2.750164,-1.4541 -0.262252,-0.23026 -0.636007,-0.73676 -0.830568,-1.12555 -0.194561,-0.38878 -0.464971,-0.83048 -0.600912,-0.98154 -0.173262,-0.19254 -0.273487,-0.60317 -0.335194,-1.37331 -0.04842,-0.60426 -0.102515,-1.24682 -0.120222,-1.42792 -0.03865,-0.39536 0.570154,-0.81337 1.203787,-0.82652 0.432956,-0.009 1.509034,0.2797 1.977875,0.53061 0.301226,0.16121 0.560774,0.91293 0.561981,1.62765 9.34e-4,0.60584 0.311727,1.17245 0.881027,1.60668 0.446059,0.34022 0.491589,0.34776 0.948228,0.15696 0.285179,-0.11916 0.517306,-0.33079 0.572493,-0.52195 0.297977,-1.03218 0.681792,-1.71573 1.125155,-2.00383 0.509458,-0.33107 0.736658,-0.37746 0.943985,-0.19279 0.07175,0.0639 0.579736,0.19765 1.128845,0.2972 0.880911,0.15971 1.028303,0.23086 1.252672,0.60479 0.139857,0.23308 0.293762,0.59157 0.342009,0.79665 0.185636,0.78907 1.233493,2.07664 2.054312,2.52426 0.96619,0.5269 2.733716,-0.42171 3.296798,-1.76935 0.108832,-0.26048 0.426179,-0.64772 0.705216,-0.86055 0.427494,-0.32607 0.564871,-0.36574 0.872891,-0.25209 0.242095,0.0893 0.497054,0.0876 0.754938,-0.005 0.314289,-0.11299 0.41324,-0.0974 0.513059,0.081 0.06802,0.12155 0.340084,0.26159 0.604591,0.31121 0.899637,0.16877 1.034717,1.23765 0.318227,2.5181 -0.242382,0.43317 -0.498328,0.81109 -0.568771,0.83984 -0.07044,0.0287 -0.351071,0.25123 -0.623621,0.49442 -0.557275,0.49724 -1.693473,1.29213 -2.21218,1.54764 -0.18883,0.093 -1.023115,0.23144 -1.853968,0.3076 -1.715944,0.15729 -1.579113,0.16116 -2.416138,-0.0684 z m 15.325246,-6.79553 c -0.302128,-0.0675 -0.951889,-0.1263 -1.443914,-0.13066 -1.078807,-0.01 -2.159509,-0.37673 -2.822779,-0.95909 -0.26443,-0.23218 -0.595617,-0.42213 -0.735972,-0.42213 -0.140355,0 -0.290013,-0.0907 -0.332573,-0.20166 -0.08956,-0.2334 -0.94824,-0.62203 -1.376416,-0.62296 -0.343926,-6.9e-4 -1.824753,-0.58431 -2.0472,-0.80676 -0.08466,-0.0847 -0.227606,-0.15393 -0.317662,-0.15393 -0.220633,0 -1.703962,-1.61394 -1.703962,-1.854 0,-0.10471 -0.108677,-0.27113 -0.241504,-0.36983 -0.132826,-0.0987 -0.518742,-0.76654 -0.857591,-1.4841 l -0.61609,-1.30464 0.0292,-1.64798 c 0.04671,-2.63712 0.355172,-3.55445 1.857654,-5.52461 0.358777,-0.47046 0.652322,-0.88756 0.652322,-0.9269 0,-0.11258 1.424119,-1.53445 1.598397,-1.59588 0.08603,-0.0303 0.382762,-0.32743 0.659398,-0.66025 0.276635,-0.33281 0.793334,-0.75748 1.148221,-0.94371 0.354885,-0.18622 0.737945,-0.4172 0.851243,-0.51328 0.374885,-0.31792 2.938329,-1.27459 3.776601,-1.40942 0.886887,-0.14263 3.952456,-0.004 5.016855,0.22704 0.342245,0.0743 1.114731,0.26842 1.716637,0.43147 0.601903,0.16306 1.217968,0.32877 1.369032,0.36825 1.775674,0.46421 3.085047,1.0178 3.7695,1.59374 0.242092,0.2037 0.506746,0.37038 0.588121,0.37038 0.177116,0 0.874389,0.79982 1.848313,2.12015 0.700171,0.94921 1.00394,1.71568 1.00394,2.53314 0,0.22646 0.0549,0.44567 0.121998,0.48714 0.0671,0.0415 0.167244,1.46305 0.222544,3.15906 0.129736,3.97894 0.143276,3.93521 -1.853645,5.98691 -1.080076,1.1097 -1.68448,1.61084 -2.400603,1.99046 -0.526399,0.27905 -1.02079,0.58222 -1.098647,0.67371 -0.316856,0.37235 -1.317403,0.81987 -2.682179,1.19968 -1.124598,0.31297 -4.891374,0.57116 -5.699234,0.39066 z m 2.471957,-3.08681 c 1.23714,-0.1064 1.657207,-0.23704 2.533176,-0.78781 0.335799,-0.21113 0.712465,-0.38388 0.837034,-0.38388 0.124569,0 0.344071,-0.12992 0.487779,-0.28872 0.14371,-0.15879 0.446833,-0.38351 0.673607,-0.49937 0.226775,-0.11586 0.637956,-0.40308 0.913737,-0.63827 0.275781,-0.23519 0.669265,-0.5441 0.874408,-0.68648 0.205142,-0.14239 0.530705,-0.60338 0.723471,-1.02444 0.328026,-0.7165 0.348841,-0.88911 0.324858,-2.69374 -0.03218,-2.42091 -0.09467,-2.90762 -0.544493,-4.24043 -0.31342,-0.92865 -0.486568,-1.20232 -1.262368,-1.99523 -0.630213,-0.64411 -1.10342,-0.99506 -1.582197,-1.17341 -0.375688,-0.13995 -0.741779,-0.30813 -0.813534,-0.37373 -0.07175,-0.0656 -0.33747,-0.11927 -0.590476,-0.11927 -0.253007,0 -0.65779,-0.10235 -0.899518,-0.22746 -0.982408,-0.50842 -3.854528,-0.65916 -5.108758,-0.26812 -0.453192,0.1413 -1.102081,0.34436 -1.441974,0.45126 -1.078019,0.33905 -2.894923,1.76303 -4.288882,3.36137 -0.942493,1.08068 -1.341686,1.71796 -1.341686,2.1419 0,0.1397 -0.05105,0.31273 -0.113453,0.38448 -0.0624,0.0718 -0.194011,0.38742 -0.292473,0.70149 -0.248902,0.79391 0.01008,3.2459 0.459516,4.35059 0.35725,0.8781 1.05715,1.68474 1.76051,2.02901 0.580359,0.28406 2.414587,0.79136 2.511369,0.69459 0.04067,-0.0406 -0.109171,-0.26342 -0.332988,-0.49498 -0.293449,-0.30361 -0.491377,-0.74236 -0.709719,-1.57326 -0.279044,-1.06191 -0.290697,-1.26109 -0.148634,-2.54062 0.08478,-0.76361 0.241969,-1.69738 0.349306,-2.07504 0.557702,-1.96225 0.793951,-2.67067 1.09915,-3.29594 0.18434,-0.37766 0.431417,-0.91561 0.549062,-1.19544 0.275935,-0.65635 0.891715,-0.98319 1.872231,-0.99373 0.627453,-0.007 0.890917,0.0733 1.556292,0.47253 0.440534,0.26437 0.904026,0.65272 1.029982,0.86303 0.219286,0.36614 0.21501,0.40673 -0.100708,0.95587 -0.182419,0.31729 -0.384491,0.9747 -0.452327,1.47159 -0.280464,2.05435 -0.388257,2.874 -0.506421,3.85072 -0.06854,0.56649 -0.188738,1.24628 -0.267119,1.51064 -0.07838,0.26436 -0.186296,0.63516 -0.239814,0.82398 -0.05352,0.18884 -0.176471,0.43603 -0.273233,0.54933 -0.09676,0.1133 -0.216938,0.37034 -0.26706,0.57121 -0.05012,0.20087 -0.331992,0.60257 -0.626377,0.89266 -0.294386,0.29008 -0.536288,0.60385 -0.537558,0.69724 -0.0022,0.16201 0.456022,0.40582 1.508328,0.80255 0.264363,0.0997 0.727854,0.1602 1.029983,0.13452 0.302127,-0.0257 1.043715,-0.0892 1.647971,-0.14119 z m -34.670352,-0.83716 c -0.56335,-0.19818 -1.088642,-0.44443 -1.167313,-0.54724 -0.07867,-0.10281 -0.315251,-0.25083 -0.525732,-0.32894 -0.210481,-0.0781 -0.809732,-0.42079 -1.331669,-0.7615 -0.521935,-0.34072 -1.005605,-0.61948 -1.074821,-0.61948 -0.219562,0 -1.334925,-1.2877 -1.486903,-1.71664 -0.08028,-0.2266 -0.223164,-0.62829 -0.317512,-0.89265 -0.09435,-0.26436 -0.231532,-0.78254 -0.30485,-1.15151 -0.07332,-0.36896 -0.265488,-0.84964 -0.427043,-1.06815 -0.254052,-0.34362 -0.272347,-0.45396 -0.135422,-0.81671 0.105541,-0.27961 0.115093,-0.5331 0.02866,-0.76043 -0.07131,-0.18756 -0.129244,-0.78502 -0.128746,-1.32772 6.86e-4,-0.75364 0.06535,-1.08402 0.273756,-1.3987 0.150069,-0.2266 0.273666,-0.56649 0.274662,-0.75532 9.35e-4,-0.18883 0.124594,-0.52872 0.274662,-0.75532 0.150069,-0.22659 0.27326,-0.49653 0.273757,-0.59986 5.49e-4,-0.10333 0.186302,-0.39902 0.412898,-0.6571 0.226596,-0.25808 0.411993,-0.56269 0.411993,-0.67693 0,-0.25057 3.061658,-3.46717 3.599421,-3.78159 0.209067,-0.12224 0.46651,-0.29395 0.572098,-0.38158 0.105585,-0.0876 0.492515,-0.31542 0.859843,-0.50621 2.836953,-1.47349 5.899485,-1.7741 8.870268,-0.87067 0.473794,0.14408 1.09012,0.26244 1.369611,0.26302 0.279493,5.5e-4 0.557587,0.0817 0.61799,0.18028 0.0604,0.0986 0.357018,0.36017 0.659145,0.58132 0.686007,0.50214 2.456151,2.01916 2.517734,2.15773 0.02518,0.0567 0.10537,0.103 0.178203,0.103 0.235841,0 1.53146,1.39115 2.097391,2.25204 1.148952,1.74779 1.21632,1.97522 1.138109,3.84221 -0.148456,3.54376 -0.262275,4.21815 -0.999509,5.92221 -0.264423,0.61118 -1.88505,2.11664 -2.38655,2.21693 -0.23217,0.0464 -0.571423,0.26186 -0.753898,0.47872 -0.182474,0.21686 -0.3984,0.39429 -0.479833,0.39429 -0.08143,0 -0.25537,0.0586 -0.386526,0.13034 -0.589643,0.32229 -2.07926,0.96831 -2.232782,0.96831 -0.09336,0 -0.59805,0.15449 -1.121531,0.34333 -0.523481,0.18882 -1.213212,0.34332 -1.532736,0.34332 -0.319524,0 -0.924315,0.0894 -1.343984,0.19875 -0.422156,0.10995 -1.769425,0.23449 -3.015801,0.27875 -2.182705,0.0776 -2.284623,0.0688 -3.27704,-0.2803 z m 1.220097,-2.93462 c 0.167495,-0.10601 0.169625,-0.26278 0.01472,-1.08373 -0.09961,-0.52789 -0.136258,-1.07372 -0.08145,-1.21294 0.05481,-0.13924 0.1309,-1.20986 0.169095,-2.37919 0.03819,-1.16931 0.125774,-2.23128 0.194622,-2.35992 0.06885,-0.12865 0.125176,-0.43164 0.125176,-0.67332 0,-0.24168 0.06669,-0.69379 0.148204,-1.00468 0.33484,-1.27709 0.39949,-1.57143 0.561537,-2.55656 0.151214,-0.91926 0.233413,-1.09849 0.764708,-1.66743 0.753188,-0.80654 1.234537,-0.90565 2.091135,-0.43055 0.64101,0.35552 1.652992,1.30791 1.652992,1.55564 0,0.0792 -0.100519,0.33837 -0.223376,0.57595 -0.133029,0.25726 -0.214358,0.71275 -0.201078,1.12617 0.06269,1.9516 0.04037,2.44985 -0.16643,3.71548 -0.123415,0.75532 -0.226352,1.66315 -0.228747,2.01742 -0.003,0.44125 -0.134108,0.89419 -0.416348,1.43818 -0.353599,0.68153 -0.411992,0.94432 -0.411992,1.85408 0,0.63275 0.06185,1.09822 0.153449,1.15483 0.17258,0.10666 1.484114,-0.1568 2.112511,-0.42436 0.226596,-0.0965 0.844585,-0.34413 1.373309,-0.55033 0.528725,-0.20621 1.084915,-0.48366 1.235979,-0.61658 0.151064,-0.13291 0.547588,-0.37874 0.881166,-0.54627 0.985907,-0.49515 1.832358,-1.50865 2.237455,-2.679 0.154335,-0.4459 0.352125,-1.61871 0.472931,-2.8043 0.08627,-0.84663 -0.282148,-2.46005 -0.588592,-2.57764 -0.103221,-0.0396 -0.187676,-0.22339 -0.187676,-0.4084 0,-0.19075 -0.168442,-0.49651 -0.3891,-0.70629 -0.214004,-0.20346 -0.527206,-0.57077 -0.696006,-0.81624 -0.168798,-0.24549 -0.390897,-0.44633 -0.493553,-0.44633 -0.102656,0 -0.361092,-0.20973 -0.574305,-0.46606 -0.379689,-0.45647 -1.393258,-1.29644 -2.133796,-1.76833 -0.205056,-0.13066 -0.556752,-0.23757 -0.781548,-0.23757 -0.224796,0 -0.451151,-0.0687 -0.503013,-0.15257 -0.161777,-0.26176 -2.832213,0.0956 -3.375771,0.45177 -0.180809,0.11846 -0.60549,0.26074 -0.943734,0.31616 -0.338245,0.0554 -1.047583,0.36052 -1.576307,0.67801 -0.528724,0.31748 -1.069465,0.61791 -1.201645,0.66761 -0.132181,0.0497 -0.24033,0.20214 -0.24033,0.33876 0,0.13661 -0.169947,0.4117 -0.37766,0.61131 -1.341138,1.28878 -1.921299,2.37546 -2.405072,4.50482 -0.19593,0.8624 -0.184524,2.70794 0.02079,3.36461 0.09447,0.30213 0.203993,0.70382 0.24339,0.89265 0.0394,0.18883 0.158697,0.53806 0.265108,0.77608 0.10641,0.23801 0.193473,0.52588 0.193473,0.63971 0,0.34839 1.155263,1.42058 1.728189,1.60391 0.295774,0.0947 0.59648,0.22643 0.668236,0.29283 0.167997,0.15548 0.638169,0.15157 0.889344,-0.008 z m 45.819093,88.68787 c 0.20069,-0.20082 0.20755,-0.38277 0.0645,-1.71124 -0.088,-0.8176 -0.12298,-1.76705 -0.0777,-2.10992 0.14875,-1.12569 0.36572,-3.87894 0.48743,-6.18529 0.22798,-4.32024 0.38304,-6.66156 0.45478,-6.86654 0.0862,-0.24635 0.28575,-11.00255 0.2242,-12.08513 -0.0236,-0.41542 -0.0308,-0.94071 -0.0159,-1.1673 0.0249,-0.3786 0.0218,-1.61226 -0.009,-3.70794 -0.0247,-1.67312 0.19154,-6.19251 0.31482,-6.57804 0.07,-0.21899 0.12731,-0.81001 0.12731,-1.31338 0,-1.21688 0.3451,-3.76987 0.61098,-4.51997 0.11715,-0.33051 0.21711,-0.76309 0.22213,-0.96131 0.015,-0.59356 0.71956,-1.72743 1.10211,-1.77375 0.18191,-0.022 0.46619,-0.10779 0.63175,-0.1906 0.25118,-0.12563 0.37039,-0.0922 0.72024,0.20223 0.23059,0.19402 0.55839,0.39693 0.72845,0.45091 0.61374,0.19479 0.80266,0.7731 0.49916,1.52801 -0.0849,0.21126 -0.20388,0.50772 -0.26432,0.65879 -0.11963,0.29902 -0.21705,0.72726 -0.40613,1.78529 -0.0675,0.37766 -0.19218,1.02656 -0.27709,1.44198 -0.40738,1.9932 -0.62118,7.22437 -0.75212,18.40235 -0.0526,4.49415 -0.12839,8.2244 -0.16832,8.28944 -0.04,0.065 -0.12566,0.99203 -0.19048,2.05997 -0.21722,3.57851 -0.39024,6.04819 -0.54974,7.84694 -0.0871,0.98191 -0.16544,2.50981 -0.17415,3.39534 -0.0147,1.49214 0.007,1.63238 0.28954,1.91519 0.28874,0.28854 0.34482,0.29568 1.02998,0.13136 0.39854,-0.0956 0.84821,-0.22272 0.99927,-0.28252 0.59291,-0.23473 1.2682,-0.42145 1.52417,-0.42145 0.14778,0 0.39059,-0.083 0.53957,-0.18443 0.14899,-0.10143 0.91978,-0.38855 1.71287,-0.63803 0.79308,-0.24949 1.50376,-0.49629 1.5793,-0.54844 0.0755,-0.0522 0.49267,-0.23572 0.92698,-0.40791 0.43431,-0.17218 0.7905,-0.35223 0.79153,-0.40011 7.8e-4,-0.0479 0.0367,-0.21664 0.0792,-0.37502 0.0605,-0.22538 -0.0124,-0.32513 -0.33528,-0.45888 -0.77431,-0.32073 -0.90524,-0.59766 -1.00071,-2.11654 -0.0482,-0.76662 -0.15961,-2.53714 -0.24762,-3.93449 -0.17345,-2.75386 -0.0717,-11.10973 0.14442,-11.86339 0.0672,-0.23425 0.12215,-1.07562 0.12215,-1.8697 0,-0.79409 0.0641,-1.65968 0.14239,-1.92354 0.0783,-0.26387 0.16585,-1.56124 0.19452,-2.88304 0.0286,-1.32182 0.10864,-2.55218 0.17771,-2.73413 0.15731,-0.41442 0.0592,-0.97381 -0.1708,-0.97381 -0.17969,0 -0.32986,0.94559 -0.40657,2.56016 -0.022,0.46393 -0.0816,0.9106 -0.13222,0.99261 -0.0507,0.082 -0.18885,0.9384 -0.30705,1.9031 -0.11818,0.9647 -0.26459,2.1557 -0.32533,2.64665 -0.10784,0.87159 -0.27401,1.97529 -0.54791,3.63928 -0.0746,0.45319 -0.19963,1.47287 -0.27786,2.26595 -0.0782,0.79309 -0.23266,1.73169 -0.3432,2.08577 -0.11054,0.35409 -0.20017,0.81758 -0.19917,1.02999 7.8e-4,0.2124 -0.0738,0.95571 -0.1662,1.65179 -0.15835,1.19285 -0.19034,1.27486 -0.55638,1.42648 -0.53325,0.22088 -0.65253,0.50655 -0.65253,1.56278 0,0.62726 -0.085,1.08421 -0.27467,1.47679 -0.15106,0.31267 -0.27466,0.67146 -0.27466,0.79731 0,0.3293 -0.59953,0.92847 -1.03953,1.0389 -0.6789,0.17039 -0.81491,-0.0537 -0.8102,-1.33483 0.005,-1.48891 0.17551,-3.84761 0.34042,-4.7224 0.0712,-0.37766 0.22993,-1.55184 0.35275,-2.60928 0.3705,-3.18982 0.59498,-4.86367 0.88405,-6.59189 0.0758,-0.45319 0.19581,-1.44197 0.26669,-2.19729 0.0709,-0.75533 0.19967,-1.58961 0.2862,-1.85397 0.0865,-0.26436 0.21191,-1.28405 0.27861,-2.26596 0.0667,-0.98192 0.18745,-2.40329 0.26832,-3.15861 0.0809,-0.75532 0.1693,-2.17669 0.1965,-3.15862 0.0272,-0.98191 0.1121,-2.06339 0.18868,-2.40328 0.0785,-0.34842 0.15675,-3.19394 0.17937,-6.52323 0.0264,-3.88071 0.0937,-6.09356 0.19636,-6.45455 0.30822,-1.08372 1.35399,-1.16852 2.42871,-0.19694 0.35877,0.32434 0.65232,0.65097 0.65232,0.72584 0,0.0749 0.0895,0.23503 0.19889,0.35589 0.16786,0.1855 0.17659,0.48705 0.056,1.93345 -0.0786,0.94252 -0.19385,3.38226 -0.25608,5.42162 -0.0622,2.03936 -0.15198,4.954 -0.19945,6.47697 -0.0831,2.6672 -0.0271,3.16654 0.30937,2.75702 0.15554,-0.18931 0.31473,-1.57557 0.30582,-2.66317 -0.003,-0.38924 0.0664,-0.88363 0.1546,-1.09864 0.1543,-0.37608 0.21891,-1.04158 0.52463,-5.40351 0.0768,-1.09523 0.17227,-2.20761 0.21224,-2.47197 0.0399,-0.26435 0.13714,-0.91324 0.21594,-1.44197 0.0788,-0.52873 0.20502,-1.30121 0.28048,-1.71664 0.0754,-0.41543 0.15621,-1.00251 0.17942,-1.30464 0.16561,-2.15611 0.63831,-3.67435 1.19945,-3.85246 0.96809,-0.30725 2.72397,0.7608 2.72397,1.65691 0,0.25357 -0.0684,0.63501 -0.15195,0.84763 -0.0836,0.21264 -0.20427,0.7265 -0.26821,1.14192 -0.0639,0.41543 -0.18155,1.06432 -0.26136,1.44198 -0.24518,1.1603 -0.58071,3.67001 -0.82621,6.17989 -0.29241,2.98947 -0.43663,4.59699 -0.54213,6.04256 -0.0606,0.83085 -0.20669,2.19043 -0.32456,3.02128 -0.11788,0.83086 -0.28627,2.53032 -0.37421,3.7766 -0.0879,1.24628 -0.25394,3.22385 -0.36892,4.39459 -0.2016,2.05269 -0.24874,2.84421 -0.36397,6.11123 -0.0523,1.48206 -0.22288,2.79127 -0.42423,3.25558 -0.0559,0.12887 -0.005,0.65821 0.11266,1.17633 0.31241,1.37357 0.18594,4.51398 -0.2133,5.29655 -0.23764,0.46583 -0.26633,0.68024 -0.17652,1.31912 0.13924,0.99034 0.13938,2.14128 2.8e-4,2.78851 -0.12557,0.58455 0.0284,0.65896 0.67231,0.3249 0.59343,-0.30787 2.88398,-2.57899 3.40944,-3.38051 0.1238,-0.18884 0.59815,-0.74502 1.05411,-1.23598 0.45597,-0.49096 0.8297,-0.96233 0.83052,-1.0475 7.8e-4,-0.0852 0.0929,-0.23072 0.20464,-0.32344 0.11173,-0.0927 0.28844,-0.33205 0.39268,-0.53181 0.93334,-1.78862 1.61414,-3.26664 1.87523,-4.07115 0.17158,-0.52872 0.42738,-1.25086 0.56843,-1.60476 0.14105,-0.3539 0.25646,-0.79903 0.25646,-0.98919 0,-0.19016 0.061,-0.48769 0.13547,-0.6612 0.22756,-0.52985 0.55931,-3.83465 0.76233,-7.59399 0.20027,-3.7083 0.27588,-9.17465 0.13018,-9.4104 -0.046,-0.0745 -0.1435,-0.64497 -0.21658,-1.26774 -0.0731,-0.62278 -0.2033,-1.47221 -0.28937,-1.88764 -0.0954,-0.46038 -0.16559,-2.52499 -0.17982,-5.28724 -0.0238,-4.61152 -0.11881,-5.5619 -0.55624,-5.5619 -0.19793,0 -0.25312,0.16736 -0.40758,1.23597 -0.0491,0.3399 -0.1475,0.98879 -0.2186,1.44198 -0.27196,1.7334 -0.39667,2.65274 -0.53092,3.91393 -0.0764,0.71755 -0.20567,1.89174 -0.28729,2.60929 -0.0816,0.71755 -0.17776,1.64453 -0.21365,2.05996 -0.42816,4.95541 -0.44679,5.46303 -0.37272,10.16249 0.0423,2.68139 0.0722,5.05171 0.0666,5.26739 -0.005,0.21568 0.10911,0.83367 0.25502,1.37331 0.22729,0.84058 0.5499,3.24173 0.5499,4.09281 0,0.17143 -0.14279,0.31703 -0.39824,0.40608 -0.21902,0.0764 -0.42764,0.25131 -0.4636,0.3888 -0.0847,0.32389 -1.10299,0.44322 -1.487,0.17426 -0.4293,-0.30069 -0.9008,-1.3949 -1.07792,-2.50147 -0.0907,-0.5665 -0.22192,-1.2891 -0.29168,-1.60579 -0.0697,-0.31669 -0.12676,-1.05869 -0.12676,-1.64888 0,-0.59019 -0.0649,-1.28896 -0.14438,-1.55283 -0.13503,-0.44869 -0.19056,-7.87355 -0.0765,-10.23024 0.16482,-3.40592 0.74782,-10.03412 1.03882,-11.81047 0.18152,-1.10804 0.418,-3.25694 0.46849,-4.25725 0.0191,-0.37766 0.10821,-0.82164 0.19811,-0.98662 0.0899,-0.16499 0.16345,-0.48188 0.16345,-0.70422 0,-0.62505 0.35967,-1.35313 0.71554,-1.44846 0.61392,-0.16445 1.02303,-0.0868 1.34442,0.25535 0.42014,0.44723 1.03385,0.46556 1.14941,0.0343 0.14322,-0.53442 0.0945,-1.06261 -0.13982,-1.51574 -0.13597,-0.26292 -0.23683,-0.82244 -0.25253,-1.40082 -0.0288,-1.06014 -0.29895,-1.74657 -0.79282,-2.01426 -0.3139,-0.17014 -1.37777,-0.41083 -1.74955,-0.39582 -0.86075,0.0347 -2.77733,0.27953 -3.22728,0.41218 -1.15203,0.33964 -2.62927,0.86957 -3.1188,1.11879 -0.28023,0.14267 -0.61413,0.2594 -0.74198,0.2594 -0.3357,0 -3.43024,1.5804 -4.03969,2.06309 -0.28393,0.22488 -0.57123,0.40887 -0.63845,0.40887 -0.0672,0 -0.52811,0.39996 -1.02421,0.8888 -0.4961,0.48884 -1.27146,1.16078 -1.72302,1.4932 -0.45156,0.33242 -1.28527,1.06029 -1.85268,1.61749 -0.56741,0.5572 -1.45853,1.42956 -1.98027,1.93858 -1.03842,1.01313 -2.25325,2.29279 -2.25325,2.3735 0,0.0281 -0.648893,0.71671 -1.441979,1.53023 -0.793087,0.81352 -1.441975,1.52886 -1.441975,1.58963 0,0.0608 -0.236121,0.37177 -0.524714,0.69109 -0.288592,0.31932 -0.668043,0.82778 -0.843222,1.12991 -0.445617,0.76855 -0.959207,1.54557 -1.481681,2.24168 -0.245479,0.32705 -0.446326,0.64661 -0.446326,0.71011 0,0.0635 -0.266635,0.56861 -0.592525,1.12246 -0.325889,0.55385 -0.637894,1.0997 -0.693342,1.21299 -0.05545,0.1133 -0.244319,0.48409 -0.419709,0.82399 -0.365157,0.70765 -0.324752,1.03128 0.110878,0.88813 0.819025,-0.26916 1.252131,-0.21983 2.140383,0.24376 1.292835,0.67474 1.402497,1.13493 0.957502,4.01801 -0.136123,0.88194 -0.31927,2.99775 -0.546827,6.31723 -0.07767,1.13298 -0.203797,2.70886 -0.280286,3.50194 -0.07649,0.79309 -0.195493,2.24536 -0.264454,3.22728 -0.06896,0.98191 -0.19944,2.74318 -0.289956,3.91392 -0.190433,2.46307 -0.212731,5.56007 -0.05651,7.84774 0.12411,1.81739 0.0764,2.12545 -0.420652,2.71616 -0.315626,0.37511 -0.438278,0.42259 -1.091698,0.42259 -0.670091,0 -0.766233,-0.04 -1.071784,-0.44634 -0.357397,-0.47523 -0.420733,-0.78264 -0.67197,-3.2616 -0.208376,-2.05606 -0.20782,-6.63426 9.34e-4,-8.03387 0.09014,-0.60425 0.231688,-2.27282 0.31454,-3.70793 0.08285,-1.43511 0.206705,-3.56717 0.275226,-4.73791 0.06852,-1.17075 0.152343,-3.11742 0.186269,-4.32593 0.03392,-1.20851 0.125937,-2.47539 0.204469,-2.81528 0.07853,-0.3399 0.144298,-1.53241 0.146144,-2.65004 l 0.0033,-2.03204 -0.313859,0.23675 c -0.368706,0.27811 -0.744632,0.85731 -1.414515,2.17937 -0.267902,0.52872 -0.666959,1.27031 -0.886793,1.64796 -0.513891,0.88284 -0.506187,1.07701 0.05986,1.50876 0.256287,0.19548 0.557478,0.54435 0.669315,0.77527 0.180008,0.37167 0.179451,0.49321 -0.0048,1.05921 -0.277304,0.85162 -0.559599,2.92234 -0.845397,6.20126 -0.07571,0.86862 -0.205248,2.29 -0.287859,3.15862 -0.08261,0.86862 -0.147791,1.672 -0.144838,1.7853 0.02347,0.9005 -0.01798,4.79162 -0.05923,5.5619 -0.05175,0.96624 0.644704,5.78001 0.907697,6.27387 0.06774,0.12721 0.123175,0.56914 0.123175,0.98208 0,0.71477 -0.02343,0.76461 -0.488508,1.03901 -0.26868,0.15852 -0.630269,0.28823 -0.803532,0.28823 -0.321922,0 -1.533379,-0.57877 -1.818982,-0.869 -0.3073,-0.3123 -0.871602,-1.9754 -0.873727,-2.57505 -0.0012,-0.33397 -0.12478,-1.18824 -0.274662,-1.89837 -0.181567,-0.86027 -0.277042,-1.86854 -0.286092,-3.02128 -0.02466,-3.14101 -0.293588,-4.07537 -0.73548,-2.55531 -0.162518,0.55904 -0.228518,1.3955 -0.241689,3.06307 -0.01637,2.07347 0.01192,2.37541 0.294377,3.14044 0.376395,1.01947 0.315713,1.78833 -0.399138,5.05722 -0.07765,0.35506 -0.06915,0.60871 0.02415,0.72113 0.112667,0.13576 1.664423,0.17138 7.144468,0.16399 3.850297,-0.005 7.040768,0.0311 7.089935,0.0806 0.04917,0.0495 0.627996,0.0691 1.286287,0.0436 0.878472,-0.034 1.256642,-0.10618 1.421462,-0.27111 z m -4.128982,-1.45315 c -0.636535,-0.0887 -0.886048,-0.51617 -0.889597,-1.52411 -0.0017,-0.47704 0.05822,-0.98185 0.133112,-1.12178 0.08197,-0.15315 0.162166,-2.9238 0.201481,-6.96051 0.06511,-6.68565 0.200305,-10.94945 0.458648,-14.46529 0.07493,-1.01968 0.103888,-2.05379 0.06436,-2.29802 -0.03953,-0.24424 -0.0021,-0.61503 0.08313,-0.82399 0.0944,-0.23138 0.18015,-1.74916 0.219313,-3.88187 0.114201,-6.21881 0.275655,-7.33862 1.113101,-7.72019 0.378954,-0.17265 0.921777,0.0228 1.878164,0.67645 0.67167,0.45903 0.8474,1.04578 0.73624,2.45827 -0.0469,0.59594 -0.11667,2.47401 -0.15505,4.17348 -0.0384,1.69947 -0.12872,3.30624 -0.20075,3.57061 -0.072,0.26436 -0.16326,1.03684 -0.20274,1.71663 -0.0395,0.67979 -0.13498,1.94667 -0.21222,2.81528 -0.316007,3.55362 -0.442035,7.32396 -0.488886,14.62575 -0.02714,4.22979 -0.08249,7.82395 -0.122993,7.98702 -0.150441,0.60562 -1.324065,0.95218 -2.615317,0.77227 z m -55.577828,0.34575 c 0.466661,-0.46666 -0.05779,-1.18296 -0.740645,-1.01157 -0.385113,0.0967 -0.419717,0.36327 -0.108746,0.83787 0.239656,0.36576 0.586417,0.43668 0.849391,0.1737 z m 85.127325,-7.11374 c 0.0129,-0.94415 0.0576,-1.93417 0.0996,-2.20004 0.0991,-0.62832 -0.0824,-1.29029 -0.36892,-1.34549 -0.1602,-0.0309 -0.34694,0.20968 -0.63967,0.82398 -0.227385,0.47717 -0.814215,1.48552 -1.304055,2.24078 -0.9693,1.49448 -0.96774,1.45385 -0.0762,1.97294 0.36904,0.21488 0.68793,0.27344 1.373315,0.25217 l 0.89264,-0.0277 z m 8.59417,1.07602 c 0.31505,-0.16304 0.30597,-0.56206 -0.0195,-0.85661 -0.14291,-0.12934 -0.4922,-0.69294 -0.7762,-1.25247 -0.284,-0.55952 -0.56176,-0.98925 -0.61724,-0.95495 -0.0555,0.0343 -0.144,0.29217 -0.1967,0.57307 -0.0527,0.2809 -0.27599,0.90812 -0.49623,1.39382 -0.44334,0.97778 -0.48226,1.19997 -0.22874,1.30601 0.24311,0.10167 2.04627,-0.0596 2.33462,-0.20887 z m 4.58438,-2.04854 c 0.25439,-0.15722 0.46253,-0.33821 0.46253,-0.40218 0,-0.064 0.0804,-0.19799 0.17869,-0.2978 0.41307,-0.41951 1.05729,-2.07454 1.05729,-2.71622 0,-0.73892 -0.19157,-0.97699 -0.99326,-1.23435 -0.91939,-0.29514 -1.08845,-0.18922 -1.3032,0.81649 -0.22965,1.07544 -0.3272,3.54461 -0.15328,3.87959 0.1574,0.30317 0.19023,0.30118 0.75123,-0.0455 z m -5.74691,-3.364 c 0.0215,-0.22077 0.20598,-0.72867 0.40994,-1.12866 0.31734,-0.62237 0.34142,-0.74587 0.16689,-0.85622 -0.25942,-0.16402 -0.89184,-0.16968 -1.20146,-0.0107 -0.13116,0.0674 -0.58711,0.22286 -1.01324,0.34565 -0.66719,0.19225 -1.23665,0.55356 -1.06444,0.67536 0.0297,0.0209 0.40925,0.14622 0.84356,0.27835 0.43431,0.13214 0.78966,0.31201 0.78966,0.39973 0,0.20313 0.71048,0.79021 0.89264,0.7376 0.0755,-0.0218 0.15494,-0.22028 0.17645,-0.44105 z M -4.3002706,282.89146 c 0.528724,-0.0677 1.13645,-0.1951 1.350501,-0.28307 0.214052,-0.088 0.43264,-0.13307 0.485754,-0.10024 0.134772,0.0833 2.33243499,-0.52373 2.83299699,-0.78251 0.226596,-0.11715 0.96818301,-0.40762 1.64797101,-0.64551 2.391351,-0.83681 5.576123,-2.60548 7.671307,-4.26027 1.3415776,-1.05959 3.0384516,-2.78997 4.3513126,-4.43725 1.822243,-2.2864 2.373123,-4.21353 2.029154,-7.09854 -0.210391,-1.76465 -0.811289,-2.90157 -2.199313,-4.16117 -0.599253,-0.54381 -1.212557,-1.03435 -1.362895,-1.09008 -0.150341,-0.0557 -0.425472,-0.28213 -0.611406,-0.5031 -0.185934,-0.22097 -0.674243,-0.62491 -1.085131,-0.89764 -0.410889,-0.27273 -0.78434,-0.55618 -0.8298906,-0.62988 -0.17559,-0.28411 -0.530648,-0.10693 -1.176281,0.58698 -0.368952,0.39654 -0.671904,0.79572 -0.673226,0.88706 -0.0023,0.16079 -0.60976,0.84559 -2.474362,2.78951 -0.490958,0.51185 -1.325243,1.40044 -1.853967,1.97467 -1.774199,1.92689 -5.488792,5.66256 -5.939563,5.97327 -0.245479,0.16921 -0.446325,0.38438 -0.446325,0.47817 0,0.0938 -0.282972,0.50203 -0.628826,0.90721 -0.760534,0.89099 -1.737424,2.36733 -2.030354,3.06841 -0.2403,0.57512 -1.059528,1.04541 -1.830304,1.05072 -0.24102,0.002 -0.483836,0.0768 -0.539588,0.16703 -0.12879,0.20839 -0.292005,1.72238 -0.442857,4.10794 -0.06499,1.02778 -0.162161,1.93986 -0.215932,2.02687 -0.171519,0.27752 0.07039,0.72382 0.487374,0.89914 0.438906,0.18455 1.918474,0.17278 3.48385,-0.0277 z m -0.313554,-3.53931 c -0.369792,-0.25902 -0.716428,-0.89516 -0.716428,-1.3148 0,-0.40989 0.493122,-1.42033 1.05842,-2.16879 0.252556,-0.33438 0.493697,-0.73607 0.535868,-0.89265 0.04218,-0.15658 0.379619,-0.53188 0.749884,-0.834 0.370266,-0.30213 0.674087,-0.63246 0.675159,-0.73406 0.0011,-0.1016 0.593006,-0.7814 1.31540799,-1.51064 0.722404,-0.72925 1.477836,-1.58552 1.678739,-1.90282 0.200904,-0.31731 0.50434901,-0.65135 0.67432301,-0.74232 0.294635,-0.15768 1.250782,-1.2063 1.689386,-1.85276 0.113298,-0.167 0.57679,-0.77836 1.029982,-1.35858 0.453192,-0.58022 0.885784,-1.15313 0.961316,-1.27313 0.07553,-0.11999 0.516789,-0.62452 0.980571,-1.12117 1.222532,-1.30916 1.834713,-2.07042 1.834713,-2.28151 0,-0.10187 0.119099,-0.26863 0.264663,-0.37059 0.145565,-0.10195 0.343141,-0.35761 0.439055,-0.56812 0.418043,-0.91751 1.7998256,-1.11434 2.8481166,-0.40571 0.537298,0.3632 0.67032,0.64368 0.691735,1.45851 0.0115,0.43716 -0.08563,0.62706 -0.6043,1.18156 -0.339894,0.36337 -0.617989,0.70485 -0.617989,0.75883 0,0.054 -0.262646,0.36059 -0.583657,0.68134 -0.3210106,0.32076 -1.0471476,1.12282 -1.6136376,1.78239 -0.56649,0.65956 -1.400776,1.54879 -1.853968,1.97608 -0.453192,0.42729 -0.886375,0.88491 -0.962629,1.01693 -0.07626,0.13202 -0.472133,0.59834 -0.879727,1.03627 -3.467084,3.72507 -5.64218001,6.21237 -5.64218001,6.45204 0,0.0994 -0.05764,0.18074 -0.128076,0.18074 -0.07044,0 -0.162992,0.10816 -0.205667,0.24033 -0.04267,0.13219 -0.29403499,0.47552 -0.55857799,0.76297 -0.264543,0.28745 -0.480988,0.63047 -0.480988,0.76227 0,0.5177 -0.343223,0.9838 -0.823985,1.11901 -0.703158,0.19775 -1.406796,0.16664 -1.755529,-0.0776 z m 8.278748,-2.39005 c -0.532147,-0.22282 -0.857835,-0.66736 -0.952777,-1.30048 -0.08383,-0.55903 -0.04697,-0.70069 0.326134,-1.25353 0.231355,-0.3428 0.420646,-0.67574 0.420646,-0.73986 0,-0.13268 2.937384,-3.16559 3.065889,-3.16559 0.119757,0 2.348006,-2.32667 2.411817,-2.51835 0.02922,-0.0878 0.26097,-0.37075 0.514991,-0.62882 0.254022,-0.25807 0.461857,-0.51838 0.461857,-0.57847 0,-0.0601 0.3398936,-0.49018 0.7553196,-0.95575 0.415426,-0.46558 0.75532,-0.9234 0.75532,-1.01739 0,-0.094 0.417143,-0.55408 0.926984,-1.02241 0.801156,-0.73593 0.980578,-0.84086 1.321811,-0.77309 0.217154,0.0431 0.508094,0.0784 0.646533,0.0784 0.334412,0 0.949939,1.0619 0.949939,1.63884 0,0.43234 -0.420779,1.20069 -0.778233,1.42106 -0.09571,0.059 -0.292135,0.368 -0.436491,0.68665 -0.144356,0.31866 -0.547589,0.82656 -0.896076,1.1287 -0.348486,0.30212 -0.634108,0.61597 -0.634715,0.69743 -0.0012,0.16896 -3.4026246,3.60126 -4.6600526,4.70243 -0.458858,0.40185 -0.834288,0.79645 -0.834288,0.87691 0,0.0804 -0.139048,0.29091 -0.308995,0.46767 -0.565265,0.58795 -0.731238,0.81684 -0.916354,1.26375 -0.377616,0.91165 -1.304515,1.34142 -2.139259,0.99189 z m -8.958889,-7.63623 c 0.230594,-0.19404 0.588033,-0.58028 0.794307,-0.85832 0.206275,-0.27804 0.901363,-1.04839 1.54464,-1.71189 0.643278,-0.66349 1.204924,-1.29841 1.248104,-1.41094 0.04318,-0.11252 0.198253,-0.24945 0.344608,-0.30428 0.146354,-0.0548 0.46072499,-0.3469 0.69860299,-0.64903 0.237878,-0.30213 0.820667,-0.95102 1.295087,-1.44198 0.47442101,-0.49095 1.36057301,-1.51063 1.96922701,-2.26595 0.608654,-0.75532 1.591511,-1.87367 2.184126,-2.48523 0.655365,-0.67631 1.151349,-1.32192 1.266034,-1.64797 0.103704,-0.29483 0.276652,-0.63694 0.384329,-0.76023 0.437505,-0.50098 -0.167144,-1.33217 -0.845269,-1.16198 -0.403197,0.1012 -3.229551,2.91474 -3.229551,3.21491 0,0.0713 -0.57164,0.71587 -1.270311,1.43237 -0.69867101,0.7165 -1.45570801,1.53423 -1.68230401,1.81717 -0.226596,0.28294 -1.07633099,1.17028 -1.88829999,1.97185 -0.811969,0.80157 -1.476307,1.52245 -1.476307,1.60195 0,0.0795 -0.192616,0.35542 -0.428036,0.61318 -0.235419,0.25775 -0.542218,0.73501 -0.681774,1.06059 -0.139556,0.32557 -0.307814,0.59194 -0.373907,0.59194 -0.168524,0 -0.438917,0.63452 -0.438917,1.02999 0,0.18171 -0.06548,0.47411 -0.145505,0.64975 -0.101003,0.22168 -0.102042,0.43366 -0.0034,0.69311 0.174691,0.45948 0.212127,0.46054 0.734515,0.0209 z m 3.491133,-11.75628 c 0.174815,-0.16423 0.318355,-0.36508 0.318977,-0.44632 6.18e-4,-0.0813 0.309616,-0.477 0.68665399,-0.87944 0.377038,-0.40244 0.685524,-0.78077 0.685524,-0.84071 0,-0.0599 0.401693,-0.52887 0.892651,-1.04207 1.10797001,-1.15815 1.13456901,-1.39878 0.210228,-1.90188 -0.375334,-0.20428 -0.718875,-0.43039 -0.763426,-0.50248 -0.291159,-0.4711 -1.165619,0.36767 -1.43803499,1.37934 -0.08757,0.32519 -0.277899,0.81271 -0.422965,1.08337 -0.145065,0.27066 -0.263755,0.56526 -0.263755,0.65468 0,0.0894 -0.08676,0.33752 -0.192789,0.55135 -0.214043,0.43165 -0.493865,1.54789 -0.493865,1.97007 0,0.36373 0.37946,0.35113 0.780801,-0.0259 z"
         id="path5095"
         clip-path="url(#clipPath5102)" />
    </g>
  </g>
</svg>
