<?xml version="1.0" encoding="UTF-8" standalone="no"?>
<svg
   xmlns:dc="http://purl.org/dc/elements/1.1/"
   xmlns:cc="http://creativecommons.org/ns#"
   xmlns:rdf="http://www.w3.org/1999/02/22-rdf-syntax-ns#"
   xmlns:svg="http://www.w3.org/2000/svg"
   xmlns="http://www.w3.org/2000/svg"
   id="svg8"
   version="1.1"
   viewBox="0 0 172.48444 164.88202"
   height="164.88202mm"
   width="172.48444mm">
  <defs
     id="defs2" />
  <metadata
     id="metadata5">
    <rdf:RDF>
      <cc:Work
         rdf:about="">
        <dc:format>image/svg+xml</dc:format>
        <dc:type
           rdf:resource="http://purl.org/dc/dcmitype/StillImage" />
        <dc:title></dc:title>
      </cc:Work>
    </rdf:RDF>
  </metadata>
  <g
     transform="translate(-18.230183,-11.025327)"
     id="layer1">
    <path
       id="path915"
       d="m 97.712799,169.76996 c -0.359593,-0.0807 -0.98479,-0.22065 -1.389325,-0.31107 -0.763647,-0.17068 -1.867495,-1.06401 -2.058551,-1.66598 -0.05421,-0.17081 -0.220021,-0.43846 -0.368466,-0.59479 -0.148445,-0.15634 -0.343453,-0.40659 -0.433351,-0.5561 -0.182801,-0.30404 -1.509309,-0.59948 -2.678364,-0.59654 -0.414742,9.3e-4 -1.563152,-0.10708 -2.552022,-0.24028 -0.988869,-0.13319 -2.754125,-0.3151 -3.922788,-0.40423 -2.134069,-0.16278 -5.016279,-0.64053 -5.244371,-0.8693 -0.06722,-0.0675 -0.480047,-0.12258 -0.917385,-0.12258 -0.43734,0 -1.215769,-0.13659 -1.729842,-0.30353 -0.938703,-0.30483 -3.282639,-0.78319 -3.505859,-0.71549 -0.183729,0.0557 -1.82089,-0.31098 -2.005407,-0.44918 -0.08989,-0.0674 -0.347331,-0.1616 -0.572073,-0.20947 -0.224743,-0.0479 -0.997043,-0.35105 -1.716221,-0.67374 -0.937855,-0.42079 -1.538684,-0.58667 -2.124843,-0.58663 -0.786664,7e-5 -0.846944,0.0339 -1.610721,0.90476 -0.43641,0.49758 -1.282262,1.2227 -1.87967,1.61136 -1.039292,0.67613 -1.153603,0.71081 -2.647144,0.80293 -1.13365,0.07 -1.674547,0.0374 -1.975946,-0.11902 -0.403951,-0.20957 -2.074734,-1.87345 -2.499084,-2.48876 -0.433167,-0.62809 -0.946431,-2.42115 -0.993675,-3.47134 -0.07033,-1.5634 -0.246676,-1.89752 -1.258311,-2.38409 -0.475867,-0.22887 -0.975541,-0.481 -1.110386,-0.56026 -0.692645,-0.40715 -4.412247,-2.14479 -4.936309,-2.30604 -0.332694,-0.10236 -0.876044,-0.37012 -1.20745,-0.59502 -0.331403,-0.2249 -0.905051,-0.52547 -1.274774,-0.66793 -0.369721,-0.14248 -0.896378,-0.46882 -1.170351,-0.72522 -0.273971,-0.25641 -0.56818,-0.46853 -0.653798,-0.47139 -0.08561,-0.003 -0.413101,-0.26914 -0.727741,-0.59174 -0.314641,-0.3226 -0.95568,-0.83577 -1.424532,-1.14036 -1.029905,-0.6691 -4.439498,-4.00097 -4.915513,-4.80348 -0.187542,-0.31617 -0.529458,-0.75192 -0.759811,-0.96833 -0.230353,-0.2164 -0.418824,-0.51634 -0.418824,-0.66654 0,-0.15019 -0.147105,-0.40619 -0.326898,-0.56891 -0.179795,-0.16271 -0.3269,-0.40606 -0.3269,-0.54077 0,-0.13472 -0.189642,-0.65657 -0.421426,-1.15968 -0.231784,-0.50311 -0.607435,-1.31928 -0.834779,-1.81372 -0.227344,-0.49442 -0.62615,-1.34028 -0.886233,-1.87966 -0.260085,-0.53938 -0.472853,-1.05134 -0.472818,-1.13769 3.5e-5,-0.0864 -0.2132,-0.60121 -0.473857,-1.14414 -0.557039,-1.1603 -0.986147,-2.36302 -1.168622,-3.27546 -0.07191,-0.35959 -0.214193,-0.94801 -0.316179,-1.30759 -0.305237,-1.07619 -0.807171,-3.4941 -1.068818,-5.14866 -0.135049,-0.85403 -0.279671,-1.6631 -0.32136,-1.79795 -0.0417,-0.13484 -0.115821,-1.56912 -0.164711,-3.18727 -0.08238,-2.72576 -0.114023,-2.96312 -0.430593,-3.22813 -0.187932,-0.15731 -0.432575,-0.28603 -0.543652,-0.28603 -0.27626,0 -1.247576,-0.48035 -1.618308,-0.80031 -0.167036,-0.14417 -0.482438,-0.61458 -0.700894,-1.04537 l -0.397196,-0.78326 0.355006,-0.49856 c 0.325363,-0.45693 0.411189,-0.48994 1.027795,-0.39541 1.514228,0.23215 1.796391,0.1988 2.000076,-0.23643 0.105183,-0.22475 0.269125,-1.29125 0.36431,-2.37002 0.462895,-5.24602 0.569107,-6.07587 0.862704,-6.74051 0.168334,-0.38108 0.307878,-0.9695 0.310092,-1.3076 0.0019,-0.33809 0.14931,-1.04906 0.326892,-1.57992 0.177591,-0.53087 0.323992,-1.229616 0.325345,-1.552774 0.0028,-0.59546 0.250249,-1.435101 0.617555,-2.092888 0.110923,-0.198644 0.249742,-0.711829 0.308486,-1.140419 0.05874,-0.428591 0.360964,-1.479673 0.671598,-2.335743 0.310635,-0.85608 0.601036,-1.759668 0.645336,-2.00799 0.0443,-0.248312 0.145619,-0.491695 0.225151,-0.540853 0.07953,-0.04911 0.144605,-0.250843 0.144605,-0.44819 0,-0.197356 0.190035,-0.873379 0.4223,-1.502264 0.232265,-0.628894 0.533152,-1.511198 0.668638,-1.960684 0.135485,-0.449487 0.313212,-0.887131 0.394947,-0.972531 0.08174,-0.08544 0.14861,-0.359593 0.14861,-0.609314 0,-0.249721 0.17576,-0.841818 0.39058,-1.315768 0.758643,-1.673786 0.917017,-2.102683 0.917017,-2.483422 0,-0.327504 0.648557,-1.960999 1.156095,-2.911819 0.08332,-0.156102 0.151501,-0.42758 0.151501,-0.603291 0,-0.1757 0.06522,-0.359769 0.14492,-0.409029 0.07971,-0.0493 0.193897,-0.3662 0.253757,-0.704314 0.09866,-0.557274 0.31308,-1.098211 1.118333,-2.821303 0.147041,-0.314642 0.374594,-0.755956 0.505674,-0.980704 0.526863,-0.903329 1.083105,-2.135245 1.087212,-2.407873 0.0024,-0.158975 0.322664,-0.710457 0.711705,-1.225522 0.456057,-0.603782 0.834696,-1.358654 1.065807,-2.124839 0.368059,-1.220204 0.634204,-1.862933 1.067383,-2.577689 0.63964,-1.055428 1.736555,-3.531335 1.69362,-3.822765 -0.03109,-0.211024 -0.220822,-0.364152 -0.538356,-0.434465 -2.523746,-0.558905 -2.680814,-0.635427 -3.028772,-1.475466 -0.257655,-0.622037 -0.103575,-0.805161 1.199698,-1.425845 1.267479,-0.603623 2.276877,-0.834913 3.997153,-0.915874 1.504832,-0.0708 1.80331,-0.208291 2.656442,-1.223466 0.313122,-0.372593 0.99224,-1.152577 1.50915,-1.733295 0.69561,-0.781475 0.939834,-1.181831 0.939834,-1.540674 0,-0.26665 -0.08302,-0.536127 -0.18449,-0.598843 -0.352573,-0.2179 -1.934914,-0.260414 -2.793202,-0.07506 -0.474854,0.102552 -1.377179,0.251556 -2.005165,0.331099 -1.016673,0.128794 -1.201237,0.107908 -1.684258,-0.19062 -0.867688,-0.536266 -0.672002,-0.923075 0.722516,-1.428207 0.641001,-0.232189 1.267999,-0.509348 1.393329,-0.615902 0.125329,-0.106555 0.557054,-0.298222 0.959389,-0.425923 2.129079,-0.675763 1.954907,-0.661734 3.756747,-0.302558 1.566436,0.31226 1.732697,0.318209 2.234783,0.07997 0.298345,-0.141581 0.542444,-0.360816 0.542444,-0.48721 0,-0.298064 1.089786,-1.956079 1.675358,-2.548908 0.15732,-0.159271 0.286036,-0.406666 0.286036,-0.549768 0,-0.143101 0.152858,-0.455704 0.339684,-0.694667 0.563717,-0.721021 2.593718,-3.624314 2.858157,-4.087719 0.135901,-0.238147 0.446548,-0.695983 0.690332,-1.017417 0.243781,-0.321443 0.670643,-0.886436 0.948578,-1.255546 0.277935,-0.36911 0.852419,-0.988747 1.276626,-1.376964 1.48708,-1.360921 2.708303,-2.598425 2.879011,-2.917398 0.122288,-0.228496 0.11906,-0.421383 -0.01111,-0.664631 -0.269485,-0.503536 0.209777,-4.385691 0.639052,-5.17651 0.126692,-0.233393 0.218556,-1.276978 0.248176,-2.819296 0.02586,-1.346806 0.09616,-2.497868 0.156202,-2.557914 0.06005,-0.06005 0.112166,-0.483066 0.115819,-0.940044 0.0055,-0.678693 0.09524,-0.934515 0.490348,-1.396768 0.266031,-0.311245 0.483699,-0.69484 0.483699,-0.852434 0,-0.157594 0.220657,-0.634474 0.490348,-1.059734 0.269692,-0.42526 0.490349,-0.907481 0.490349,-1.071603 0,-0.539261 0.611728,-0.64448 2.288294,-0.39359 2.005253,0.300075 3.401762,0.68396 3.957033,1.087745 0.243577,0.177125 0.667501,0.322047 0.942053,0.322047 0.484606,0 0.634319,0.04934 1.456977,0.4802 1.906775,0.998648 2.570528,1.513735 2.678506,2.078581 0.153492,0.802948 -0.115927,1.164575 -1.075449,1.443516 -0.879625,0.255714 -0.88076,0.255569 -1.877003,-0.238719 -0.548265,-0.272023 -1.056136,-0.494761 -1.128601,-0.494974 -0.07246,-2.12e-4 -0.813297,-0.294421 -1.646294,-0.653797 -0.977066,-0.421532 -1.760124,-0.653274 -2.206569,-0.653024 -0.670367,3.76e-4 -0.705665,0.02723 -1.127593,0.85811 -0.366389,0.7215 -0.759608,2.497371 -0.652886,2.948599 0.01685,0.07121 -0.04622,0.88029 -0.140146,1.797945 -0.220435,2.153718 -0.256154,2.439376 -0.463936,3.710238 -0.09893,0.605084 -0.112115,1.122445 -0.03068,1.203876 0.08143,0.08143 0.370255,0.02933 0.672082,-0.121243 0.291105,-0.145223 0.598134,-0.264041 0.682284,-0.264041 0.08415,0 0.275119,-0.138486 0.424374,-0.307747 0.260113,-0.294977 0.701517,-0.546939 2.314493,-1.321164 1.427184,-0.685044 2.792492,-1.438499 3.082916,-1.70133 0.161616,-0.14626 0.756886,-0.454077 1.322824,-0.684038 0.565937,-0.229961 1.185272,-0.51645 1.376298,-0.63664 0.191026,-0.120191 0.531201,-0.271146 0.755944,-0.335454 0.224743,-0.06431 0.629281,-0.207764 0.898973,-0.318791 0.846162,-0.348347 1.644614,-0.57902 2.004215,-0.57902 0.190581,0 0.391968,-0.07356 0.447528,-0.16345 0.05556,-0.08989 0.409275,-0.164453 0.786032,-0.165681 0.376758,-0.0012 0.857304,-0.04836 1.067883,-0.104739 0.350076,-0.09373 0.373718,-0.163533 0.276022,-0.815016 -0.08228,-0.548626 -0.05494,-0.712508 0.118845,-0.712508 0.124129,0 0.330907,-0.239046 0.4595,-0.531211 l 0.23381,-0.531212 1.144147,0.07207 c 0.62928,0.03964 1.328028,0.06684 1.55277,0.06045 3.479257,-0.09901 9.254316,-0.04386 9.680127,0.09245 0.294506,0.09428 1.050331,0.206102 1.679613,0.248502 0.62928,0.0424 1.47824,0.150407 1.88656,0.240011 0.40834,0.08961 1.40129,0.212116 2.20657,0.272247 0.80528,0.06013 2.05257,0.221572 2.77175,0.358757 0.71917,0.137185 1.81278,0.283322 2.43023,0.324749 0.70368,0.04721 1.31365,0.191799 1.6345,0.387438 0.30513,0.18606 0.81222,0.312363 1.25555,0.312727 0.40903,3.44e-4 0.81357,0.06137 0.89897,0.13564 0.0854,0.07427 0.48627,0.229755 0.8908,0.345529 0.87214,0.249599 1.34587,0.436818 2.1471,0.848538 0.32688,0.167969 0.69464,0.305941 0.81724,0.306603 0.12262,6.54e-4 0.77458,0.291339 1.4488,0.64595 0.67423,0.354612 1.5388,0.803641 1.92128,0.997844 l 0.6954,0.353096 0.63499,-0.573674 c 0.34924,-0.31552 0.8086,-0.62261 1.02081,-0.68242 0.41192,-0.116097 1.02371,-0.361995 1.4869,-0.59762 0.1561,-0.07941 0.38168,-0.144379 0.5013,-0.144379 0.11961,0 0.64894,-0.220657 1.17627,-0.490349 0.52735,-0.269692 1.07406,-0.491985 1.21493,-0.493983 0.14087,-0.002 0.44,-0.147468 0.66475,-0.323264 0.22474,-0.175798 0.53038,-0.321267 0.67921,-0.323265 0.14883,-0.002 0.55336,-0.14402 0.89897,-0.315603 1.01202,-0.50243 2.04611,-0.921249 2.83496,-1.148188 0.40453,-0.11638 0.88262,-0.268385 1.06241,-0.337789 0.1798,-0.0694 0.65789,-0.216508 1.06243,-0.326899 0.40454,-0.110391 0.89094,-0.27292 1.08091,-0.361175 0.51979,-0.241489 3.81686,0.103087 4.02693,0.420853 0.55307,0.836603 0.60738,3.645142 0.0833,4.309158 -0.0872,0.11048 -0.43738,0.993107 -0.77821,1.961394 -0.85631,2.432826 -0.96621,2.736131 -1.49664,4.130542 -0.25648,0.674229 -0.46592,1.354669 -0.46543,1.512089 9.2e-4,0.368552 -1.19178,1.529165 -1.7038,1.657674 -0.51312,0.128784 -0.8953,-0.02953 -1.62258,-0.672165 -0.68499,-0.605253 -0.76562,-1.167881 -0.33746,-2.354461 0.33885,-0.939057 1.14923,-3.672944 1.29495,-4.368606 0.0631,-0.301319 0.2496,-0.682693 0.4144,-0.847497 0.36248,-0.362473 0.65166,-1.333091 0.53271,-1.78796 -0.10035,-0.383726 -0.5852,-0.431552 -1.19254,-0.117629 -0.49125,0.253924 -2.76545,1.130182 -3.67762,1.417005 -0.82729,0.260135 -3.29395,1.424712 -3.86629,1.825386 -0.23863,0.167048 -0.62477,0.303723 -0.85812,0.303723 -0.23333,0 -0.57733,0.153088 -0.76445,0.340197 -0.32405,0.324058 -0.32672,0.355074 -0.0563,0.653798 0.1561,0.172481 0.3573,0.313601 0.44713,0.313601 0.0898,0 0.74076,0.441314 1.44652,0.980697 0.70577,0.539384 1.32815,0.980698 1.38308,0.980698 0.19957,0 1.69645,1.176358 1.69645,1.333192 0,0.203727 0.25751,0.45333 0.9807,0.950592 0.8253,0.567482 2.03217,1.748831 2.82596,2.766222 0.37851,0.485126 0.83508,1.036553 1.01461,1.225384 0.46469,0.488776 1.32065,1.625897 1.55866,2.070621 0.11125,0.207865 0.32104,0.507235 0.4662,0.665256 0.14516,0.158011 0.44392,0.640736 0.66393,1.072719 0.22001,0.431973 0.5326,0.980638 0.69466,1.219258 0.16206,0.23862 0.29466,0.522247 0.29466,0.630284 0,0.108028 0.22065,0.475016 0.49034,0.815529 0.26969,0.340514 0.49035,0.690285 0.49035,0.777278 0,0.08701 0.30556,0.701589 0.67903,1.365798 0.37347,0.664199 0.89325,1.60767 1.15508,2.096585 0.26182,0.488916 0.57466,0.967008 0.69519,1.062424 0.12054,0.09542 0.36942,0.510822 0.55306,0.923131 0.18364,0.41232 0.44787,0.844246 0.58717,0.959854 0.13929,0.115608 0.25326,0.302077 0.25326,0.414377 0,0.112309 0.37906,0.783662 0.84235,1.491895 0.76115,1.163558 2.42664,4.306258 2.42664,4.578941 0,0.0607 0.17187,0.337947 0.38194,0.616125 0.49202,0.651578 2.23325,3.964374 2.23325,4.248909 0,0.119518 0.14711,0.404313 0.3269,0.632888 0.1798,0.228565 0.32935,0.514305 0.33233,0.634972 0.003,0.120668 0.22074,0.513602 0.4839,0.873195 0.61615,0.841948 1.09446,1.767043 1.22802,2.375144 0.0582,0.264816 0.16898,0.520551 0.24628,0.568319 0.20393,0.126042 0.65138,1.066816 0.65264,1.372201 6.6e-4,0.143509 0.14722,0.481576 0.32583,0.751266 0.17861,0.2697 0.32523,0.593738 0.32581,0.720104 6.6e-4,0.126357 0.20336,0.49404 0.45057,0.817068 0.42976,0.561555 0.5701,0.854318 1.02603,2.140452 0.11154,0.314633 0.26649,0.699783 0.34434,0.855885 0.0778,0.156102 0.14154,0.379164 0.14154,0.495698 0,0.116535 0.25678,0.695446 0.57061,1.286478 0.31384,0.591031 0.76104,1.581575 0.99378,2.201222 0.23274,0.619646 0.53623,1.252274 0.67443,1.405856 0.30446,0.338336 1.33406,2.617674 1.51872,3.362149 0.0731,0.294718 0.2036,0.625706 0.29,0.735522 0.0864,0.109826 0.20971,0.419186 0.27406,0.687458 0.0643,0.268282 0.2845,0.856701 0.48924,1.307596 0.20473,0.450904 0.46708,1.114029 0.583,1.473622 0.1159,0.359584 0.38398,1.035236 0.59572,1.50143 0.21174,0.466204 0.38497,0.954239 0.38497,1.084515 0,0.130286 0.10871,0.594701 0.24156,1.03204 0.13285,0.437329 0.43154,1.42034 0.66374,2.184468 0.29363,0.966276 0.44598,1.911915 0.50033,3.105543 0.0799,1.754135 0.18568,2.524762 0.66211,4.821765 0.20606,0.99343 0.27636,2.2894 0.29264,5.39384 0.0227,4.32774 0.28685,7.62957 0.68724,8.59001 0.13321,0.31954 0.26289,1.05507 0.28817,1.6345 0.0253,0.57943 0.13993,1.56838 0.25479,2.19765 0.1944,1.06513 0.15509,4.15924 -0.0872,6.86489 -0.0402,0.44948 -0.10071,1.9573 -0.13434,3.35071 -0.0918,3.8053 -0.51172,8.39709 -0.90236,9.86854 -0.18799,0.70808 -0.34179,1.53555 -0.34179,1.8388 0,0.71404 0.29745,0.72026 2.03947,0.0427 0.71719,-0.27897 1.7837,-0.57808 2.37002,-0.66471 0.58634,-0.0866 1.50737,-0.22532 2.04676,-0.30819 1.53475,-0.23583 7.29189,0.44187 8.53845,1.00509 0.38109,0.17218 0.7718,0.31306 0.86827,0.31306 0.61975,0 1.9927,0.65227 2.77027,1.31613 0.49444,0.42212 1.05659,0.84869 1.24922,0.94793 0.37844,0.19495 0.50198,0.70702 0.655,2.71481 0.0887,1.16315 -0.0796,1.98608 -0.60293,2.94843 -0.14665,0.26969 -0.31722,0.69368 -0.37905,0.9422 -0.11819,0.47509 -1.61923,2.25108 -2.05635,2.43301 -0.14037,0.0584 -0.51265,0.37729 -0.82729,0.70861 -0.31464,0.33131 -0.79268,0.71781 -1.06232,0.85889 -0.56505,0.29564 -2.60082,0.96445 -3.67771,1.20824 -0.76821,0.17391 -0.95133,0.20038 -3.35072,0.48435 -0.80907,0.0958 -1.6917,0.21223 -1.96139,0.25881 -0.72671,0.12554 -5.7906,0.40792 -7.76386,0.43294 -3.11284,0.0395 -4.29296,-0.34417 -5.77843,-1.87849 -0.65735,-0.67897 -1.07253,-0.56793 -1.58118,0.42287 -0.35593,0.69333 -0.71731,1.01504 -2.61519,2.32811 -2.43793,1.68672 -3.37016,2.1795 -4.12305,2.1795 -0.27745,0 -0.87815,0.2098 -1.33491,0.46622 -0.45676,0.25642 -1.20557,0.55532 -1.66403,0.66422 -0.45847,0.1089 -1.41465,0.48705 -2.12484,0.84034 -0.71021,0.3533 -1.40162,0.64605 -1.53646,0.65056 -0.13485,0.005 -0.53938,0.11914 -0.89897,0.25472 -1.20508,0.45438 -2.93341,0.91975 -3.92279,1.05624 -1.68238,0.2321 -2.90333,0.48663 -3.42285,0.71356 -1.45644,0.63617 -5.53817,0.88339 -7.9369,0.4807 -0.49744,-0.0835 -2.14005,-0.10125 -3.67761,-0.0397 -1.57073,0.0628 -3.73787,0.0376 -4.98521,-0.058 -1.82022,-0.13956 -2.56953,-0.12258 -4.27956,0.097 -1.14014,0.14639 -2.18007,0.22507 -2.31094,0.17484 -0.30543,-0.1172 -2.2541,0.23279 -2.51956,0.45252 -0.11113,0.092 -0.4789,0.13393 -0.81725,0.0932 -1.09565,-0.13189 -4.99776,0.20096 -5.39664,0.46034 -0.20258,0.13172 -0.54946,0.51345 -0.77086,0.8483 -0.67674,1.02354 -1.780494,2.12183 -2.21154,2.20061 -0.224739,0.041 -0.702831,0.008 -1.062415,-0.072 z m 9.857011,-7.33208 c 0.76537,-0.22932 1.01855,-0.67599 0.62787,-1.10769 -0.13779,-0.15225 -0.48088,-0.9009 -0.76243,-1.66364 -0.28154,-0.76275 -0.62369,-1.68104 -0.76032,-2.04062 -0.20987,-0.55231 -0.21758,-0.81872 -0.0497,-1.71622 0.19229,-1.02798 0.26719,-1.90678 0.62998,-7.3918 0.1124,-1.69936 0.25522,-2.73487 0.42157,-3.05656 0.13838,-0.26759 0.2516,-0.83433 0.2516,-1.25942 0,-0.70922 0.15973,-1.4239 0.5067,-2.26715 0.22267,-0.54115 0.60859,-2.07688 0.7188,-2.86037 0.32744,-2.32773 0.88385,-4.61719 1.82728,-7.51868 0.30692,-0.94393 0.6381,-1.97366 0.73597,-2.28829 0.0979,-0.31465 0.64627,-1.52826 1.21866,-2.69692 0.99485,-2.03119 1.61885,-3.16661 3.38985,-6.16816 0.43827,-0.74279 0.9731,-1.70282 1.18852,-2.13339 0.21541,-0.43057 0.4949,-0.82248 0.62107,-0.8709 0.23999,-0.0921 1.23461,-1.90585 1.23461,-2.25139 0,-0.27465 1.50724,-2.56012 1.94621,-2.9511 0.19654,-0.17505 0.46564,-0.54281 0.59799,-0.81725 0.13236,-0.27443 0.49668,-0.79238 0.80962,-1.15098 0.31294,-0.35861 0.56898,-0.71239 0.56898,-0.78617 0,-0.0738 0.3523,-0.5159 0.78289,-0.98249 0.43059,-0.46658 0.97446,-1.10576 1.2086,-1.42039 0.32903,-0.44216 5.28959,-5.49497 6.73955,-6.86489 0.14272,-0.13484 0.86613,-0.874874 1.60755,-1.644507 0.74143,-0.769632 2.35773,-2.256273 3.5918,-3.30364 1.81578,-1.541081 2.54842,-2.04802 3.84107,-2.657742 0.87852,-0.414394 2.03862,-0.961651 2.57801,-1.216126 1.87274,-0.883554 2.48627,-1.119598 3.85462,-1.483009 0.75667,-0.200961 1.44932,-0.418611 1.53921,-0.483661 0.0899,-0.06505 0.45766,-0.159522 0.81725,-0.209913 0.35959,-0.05041 1.38932,-0.250481 2.28829,-0.44464 1.15553,-0.249573 1.9021,-0.323491 2.54768,-0.252251 0.50224,0.05541 1.0355,0.05384 1.185,-0.0037 0.38802,-0.148893 0.33754,-0.800296 -0.13033,-1.681709 -0.57464,-1.082551 -2.37656,-5.224701 -2.37602,-5.461866 3.3e-4,-0.109594 -0.13947,-0.493475 -0.31047,-0.853068 -0.17101,-0.359584 -0.40048,-0.948002 -0.50993,-1.307595 -0.10946,-0.359584 -0.37704,-0.844589 -0.59464,-1.07777 -0.2176,-0.23318 -0.43707,-0.711272 -0.48772,-1.062424 -0.13533,-0.938216 -0.70867,-2.551039 -1.04044,-2.926737 -0.15877,-0.179796 -0.34229,-0.510784 -0.40783,-0.735523 -0.0655,-0.224748 -0.25785,-0.637966 -0.4274,-0.918266 -0.16955,-0.2803 -0.30827,-0.632119 -0.30827,-0.781818 0,-0.149699 -0.18387,-0.635047 -0.40862,-1.078557 -0.22474,-0.44351 -0.40862,-0.890143 -0.40862,-0.992527 0,-0.102385 -0.18388,-0.404684 -0.40862,-0.67178 -0.22475,-0.267086 -0.40863,-0.65951 -0.40863,-0.872054 0,-0.212544 -0.0663,-0.427424 -0.14736,-0.477509 -0.27112,-0.167564 -1.27455,-1.802404 -1.384,-2.254884 -0.0691,-0.285999 -0.23968,-0.472347 -0.47339,-0.517363 -0.907,-0.174709 -3.83004,-0.414015 -4.12461,-0.337669 -0.17979,0.04661 -0.91532,0.148069 -1.63449,0.22549 -3.02048,0.325168 -4.7451,0.693295 -7.51494,1.604084 -0.97354,0.320127 -2.0134,0.288918 -2.41266,-0.07237 -0.15964,-0.144473 -0.45524,-0.344517 -0.65688,-0.444539 -0.28521,-0.141461 -0.37669,-0.344359 -0.41191,-0.913475 -0.0424,-0.685364 -0.006,-0.757383 0.57208,-1.138798 0.33953,-0.223942 0.65411,-0.451238 0.69906,-0.505104 0.25581,-0.306571 2.6192,-0.906211 5.06694,-1.285597 2.95419,-0.457882 3.86073,-0.537703 5.99874,-0.528205 2.14277,0.0095 2.32872,-0.01362 2.41982,-0.300603 0.0626,-0.197245 -0.23327,-0.99881 -0.80923,-2.192373 -0.49935,-1.0348 -0.90791,-1.918956 -0.90791,-1.964797 0,-0.04587 -0.34937,-0.618025 -0.77637,-1.271512 -0.42702,-0.653496 -0.94291,-1.519148 -1.14644,-1.923683 -0.20352,-0.404545 -0.73677,-1.16441 -1.18501,-1.688594 -0.44822,-0.524193 -0.81496,-1.079511 -0.81496,-1.234048 0,-0.154536 -0.0666,-0.350845 -0.14805,-0.436254 -0.17885,-0.18758 -0.71604,-1.147638 -1.27055,-2.270692 -0.72154,-1.461344 -0.91138,-1.800903 -1.19325,-2.134272 -0.15201,-0.179797 -0.39747,-0.592589 -0.54548,-0.917312 -0.14799,-0.324733 -0.38077,-0.683112 -0.51728,-0.796404 -0.1365,-0.113291 -0.24818,-0.337122 -0.24818,-0.497403 0,-0.160282 -0.23904,-0.585073 -0.53121,-0.943981 -0.45655,-0.560841 -1.05922,-1.523623 -1.6739,-2.67406 -0.089,-0.166749 -0.28478,-0.342154 -0.43487,-0.389783 -0.15008,-0.04763 -0.40293,-0.286008 -0.56189,-0.529725 -0.31838,-0.488155 -2.50643,-2.649679 -2.68219,-2.649679 -0.0606,0 -0.48781,-0.367762 -0.94927,-0.817248 -0.46146,-0.449486 -0.8864,-0.817248 -0.9443,-0.817248 -0.0579,0 -0.51981,-0.35895 -1.02645,-0.797668 -0.50664,-0.438716 -1.32044,-1.032963 -1.80845,-1.32055 -0.48799,-0.287586 -1.1926,-0.773081 -1.56578,-1.078877 -0.37319,-0.305797 -1.01232,-0.703649 -1.4203,-0.884115 -0.40797,-0.180467 -0.83404,-0.439306 -0.94682,-0.575199 -0.11278,-0.135892 -0.32477,-0.247562 -0.47108,-0.248154 -0.14632,-5.92e-4 -0.48668,-0.147212 -0.75637,-0.325823 -0.26969,-0.178609 -0.66422,-0.325229 -0.87673,-0.325821 -0.21249,-5.89e-4 -0.65381,-0.144638 -0.98069,-0.320102 -1.87107,-1.004354 -4.50166,-2.123583 -5.34414,-2.273751 -0.534,-0.09518 -1.33868,-0.253769 -1.78817,-0.352408 -1.16275,-0.255166 -2.79364,-0.45477 -5.14866,-0.630141 -1.12372,-0.08368 -2.48443,-0.232743 -3.02382,-0.33125 -0.53938,-0.09851 -1.532332,-0.246158 -2.206567,-0.328113 -0.674226,-0.08195 -1.5454,-0.231114 -1.935934,-0.331464 -0.569959,-0.146453 -0.803464,-0.135865 -1.183369,0.05365 -0.840391,0.419245 -1.399314,0.451306 -3.028758,0.173738 -0.978439,-0.166671 -1.951342,-0.234145 -2.506454,-0.173829 -1.780034,0.19341 -2.380486,0.29842 -2.533605,0.443091 -0.0854,0.08069 -0.301163,0.146708 -0.479466,0.146708 -0.178304,0 -0.733624,0.137252 -1.234044,0.305006 -0.500421,0.167753 -1.222453,0.38841 -1.604516,0.490349 -1.794608,0.478819 -2.105772,0.576953 -2.411214,0.760438 -0.17998,0.108117 -0.989055,0.477722 -1.797946,0.821344 -0.808891,0.343622 -1.646124,0.758413 -1.860516,0.921759 -0.214392,0.163347 -0.494116,0.296994 -0.621607,0.296994 -0.127493,0 -0.502408,0.18388 -0.833148,0.408624 -0.330738,0.224743 -0.668597,0.408623 -0.750796,0.408623 -0.0822,0 -0.537292,0.257434 -1.011316,0.572074 -0.474027,0.31464 -0.94134,0.572073 -1.038478,0.572073 -0.09714,0 -0.176612,0.06536 -0.176612,0.145236 0,0.07988 -0.606807,0.456969 -1.34846,0.837975 -0.741651,0.381006 -1.692639,0.977621 -2.113305,1.32581 -0.420666,0.34819 -0.872805,0.633072 -1.004753,0.633072 -0.278446,0 -1.097548,0.65687 -1.815874,1.45622 -0.27542,0.306488 -0.642285,0.67425 -0.815255,0.817248 -0.894282,0.739333 -2.908357,2.947465 -4.390587,4.813613 -1.861524,2.343693 -2.212196,2.849844 -2.229583,3.218111 -0.0066,0.139172 -0.267043,0.506938 -0.57883,0.817243 -0.311787,0.310314 -0.569219,0.644897 -0.572073,0.743511 -0.0029,0.09861 -0.152294,0.348918 -0.332089,0.556217 -0.179795,0.207309 -0.326899,0.473728 -0.326899,0.592051 0,0.319553 -0.663135,1.532797 -0.837797,1.532797 -0.08304,0 -0.221981,0.16549 -0.308746,0.367767 -0.08676,0.202267 -0.2673,0.517437 -0.40119,0.700384 -0.217256,0.296869 -0.213039,0.393518 0.03921,0.898788 0.155456,0.31139 0.503304,0.666609 0.772996,0.789389 0.742373,0.337975 2.554099,1.52721 2.463948,1.617363 -0.04359,0.04355 0.103215,0.439358 0.32624,0.879477 0.316525,0.624631 0.367891,0.870498 0.234094,1.120497 -0.287356,0.536924 -0.752422,0.696446 -1.265724,0.434141 -0.248029,-0.126746 -0.694127,-0.282839 -0.991331,-0.346861 -0.309545,-0.06672 -0.858821,-0.425904 -1.285877,-0.840956 -0.864741,-0.840438 -1.969106,-1.408702 -2.338772,-1.20345 -1.005071,0.558043 -2.618138,2.81302 -2.618138,3.659999 0,0.448644 0.238359,0.680267 0.860835,0.836499 0.5331,0.133797 1.178064,0.970871 1.192533,1.547734 0.01795,0.715841 -0.326138,0.824592 -2.25049,0.711245 -2.588698,-0.15247 -2.797725,-0.0139 -4.350425,2.884649 -1.103019,2.059066 -1.826985,3.570856 -1.826985,3.815129 0,0.06385 -0.338638,0.831282 -0.752529,1.705477 -0.413892,0.874195 -1.066242,2.251419 -1.449668,3.060489 -0.852099,1.798031 -1.246257,2.955352 -1.119253,3.286321 0.0738,0.192316 0.242279,0.224507 0.737224,0.140887 0.352861,-0.05958 0.839619,-0.03614 1.081684,0.05208 0.242066,0.08822 0.771104,0.253131 1.175642,0.366423 1.335728,0.374049 2.144094,0.650744 2.619789,0.89674 0.258236,0.133539 0.611816,0.24279 0.785737,0.24279 0.173919,0 0.435375,0.181863 0.581012,0.404128 0.145635,0.222273 0.669897,0.663272 1.165022,0.979999 0.495129,0.316726 1.248669,0.909991 1.674538,1.318353 0.425867,0.408363 0.994963,0.951515 1.264655,1.20699 0.787838,0.746337 3.806155,3.104699 5.560544,4.344733 1.608556,1.136963 3.674355,3.038333 3.674355,3.381886 0,0.09878 0.152711,0.334453 0.339359,0.523701 0.810438,0.821766 2.074265,3.459363 1.888962,3.942246 -0.04884,0.127293 0.01031,0.705175 0.131461,1.284207 0.363433,1.737029 -0.03548,5.459669 -0.660547,6.16419 -0.126316,0.142369 -0.337662,0.622509 -0.469652,1.066979 -0.131992,0.44446 -0.554584,1.19122 -0.939097,1.65946 -1.063172,1.29468 -1.433584,1.79291 -1.445299,1.94404 -0.0058,0.0757 -0.227514,0.32148 -0.492547,0.54622 -0.81942,0.69485 -2.111979,2.00787 -2.111979,2.14541 0,0.0719 -0.436526,0.42714 -0.97006,0.78945 -0.533532,0.36232 -1.434548,1.04709 -2.002257,1.52172 -2.486006,2.0784 -7.714146,4.87535 -10.830332,5.79401 -0.454347,0.13394 -0.919114,0.31949 -1.032815,0.41233 -0.701466,0.57274 -6.344925,1.47714 -9.415795,1.50894 -1.728,0.0179 -1.787655,0.0309 -2.165707,0.47037 -0.331036,0.38485 -0.388995,0.62656 -0.390338,1.62786 -0.0029,2.16866 0.339858,4.41892 1.262134,8.28595 0.924425,3.87602 1.188305,4.73788 1.951752,6.37452 0.230637,0.49444 0.561313,1.25847 0.734834,1.69784 0.173521,0.43937 0.422908,0.95221 0.554194,1.13966 0.131285,0.18743 0.238839,0.45313 0.239008,0.59045 4.41e-4,0.35796 1.570347,3.39014 2.112708,4.08056 0.251563,0.32024 0.583897,0.82945 0.738518,1.13157 0.29861,0.58347 2.63334,2.97544 4.684753,4.7996 0.965424,0.85848 1.698504,1.31976 3.347064,2.10606 1.160988,0.55374 2.286301,1.14399 2.500694,1.31164 0.214391,0.16766 0.545376,0.30646 0.735523,0.30846 0.190145,0.002 0.529598,0.14747 0.754342,0.32327 0.224743,0.1758 0.508271,0.32126 0.63006,0.32326 0.121791,0.002 0.587536,0.18752 1.034988,0.41227 0.447455,0.22473 1.066764,0.40862 1.376242,0.40862 0.607536,0 0.589544,0.0255 1.211561,-1.71622 0.342096,-0.95791 0.74217,-1.22139 1.688375,-1.11196 2.174744,0.25151 2.789126,1.12202 2.138842,3.0305 -0.140724,0.413 -0.232664,1.03291 -0.204312,1.37758 0.05504,0.66916 0.03923,0.65857 3.204483,2.14831 0.908118,0.42741 1.3555,0.14531 1.723388,-1.08668 0.402363,-1.34744 1.434617,-2.47808 2.262435,-2.47808 0.930033,0 2.913388,1.30776 2.913388,1.92098 0,0.12231 -0.294209,0.7938 -0.653798,1.49222 -0.359589,0.69842 -0.653798,1.38765 -0.653798,1.53165 0,0.43337 0.738737,0.87842 1.83011,1.10254 0.566642,0.11637 1.140586,0.2988 1.275432,0.40541 0.473422,0.37427 1.398002,0.70658 2.288294,0.82244 0.494434,0.0643 1.193182,0.21478 1.55277,0.3343 0.359589,0.11951 1.502654,0.32782 2.540146,0.46289 1.03749,0.13508 2.076926,0.31804 2.309857,0.40661 1.309208,0.49776 9.004949,1.16772 9.819595,0.85485 0.662978,-0.25462 0.58217,-0.70149 -0.514445,-2.84487 -1.435414,-2.80557 -1.469908,-3.5839 -0.181678,-4.09935 0.939169,-0.37578 1.316391,-0.33499 2.463436,0.26638 0.842319,0.44161 1.064755,0.65066 1.318743,1.23943 0.168038,0.38951 0.305522,0.83929 0.305522,0.99951 0,0.16022 0.134008,0.46672 0.297798,0.68111 0.163788,0.21439 0.688135,1.12532 1.165214,2.0243 0.477073,0.89897 0.979666,1.76321 1.116855,1.92053 0.386688,0.44342 1.365168,0.37569 1.837607,-0.1272 0.362448,-0.38581 0.394167,-0.57403 0.477972,-2.83591 0.06486,-1.75075 0.154462,-2.50043 0.323037,-2.70308 0.617812,-0.74268 1.970861,-0.96965 2.872271,-0.48183 0.26969,0.14596 0.64849,0.35179 0.84177,0.45739 0.19328,0.1056 0.54266,0.41927 0.77638,0.69705 0.51062,0.60684 0.5636,1.60355 0.159,2.99133 -0.3853,1.32155 -0.45482,2.09235 -0.2148,2.38155 0.17073,0.20573 0.51974,0.23713 1.95027,0.1755 0.95827,-0.0413 2.048,-0.16665 2.4216,-0.27858 z m 31.00537,-89.257224 c -0.35958,-0.184809 -0.72735,-0.422558 -0.81724,-0.528335 -0.35737,-0.420455 -1.79676,-1.246807 -2.19374,-1.259428 -1.6141,-0.05134 -2.42132,-0.19883 -3.21543,-0.587668 -0.48601,-0.237971 -0.88365,-0.522061 -0.88365,-0.631312 0,-0.109252 -0.11032,-0.290206 -0.24517,-0.402117 -0.13484,-0.111911 -0.24385,-0.396742 -0.24223,-0.632953 0.002,-0.330459 0.18124,-0.545987 0.77638,-0.934862 1.00682,-0.657871 1.80419,-0.806402 2.58275,-0.481095 0.33035,0.138033 0.77364,0.250963 0.98508,0.250963 0.21144,0 0.9196,0.275194 1.57367,0.611538 1.77229,0.911363 3.88615,3.190432 3.88615,4.189863 0,0.284757 -0.79888,0.759949 -1.25861,0.748663 -0.16179,-0.0037 -0.58837,-0.158438 -0.94796,-0.343257 z M 96.650375,72.395614 c -0.224748,-0.07515 -0.820218,-0.258237 -1.323265,-0.406825 -0.503056,-0.148596 -1.521054,-0.67379 -2.262222,-1.167097 -1.476733,-0.982872 -1.193603,-0.947743 -3.052815,-0.378793 -0.324867,0.09941 -1.195169,0.183531 -1.934005,0.186922 -1.232653,0.0056 -1.449969,-0.04578 -2.637463,-0.624289 -1.292032,-0.629459 -2.683444,-1.726428 -2.683444,-2.1156 0,-0.113152 -0.285841,-0.637039 -0.635203,-1.164197 -0.602231,-0.908713 -0.638809,-1.037572 -0.704729,-2.482755 l -0.06953,-1.524291 0.638378,-0.325678 c 0.579746,-0.295766 0.715778,-0.306311 1.481113,-0.114876 0.463506,0.115942 1.074778,0.344749 1.358382,0.508477 0.449438,0.259451 0.538631,0.429657 0.694661,1.325656 0.09846,0.5654 0.179016,1.181729 0.179016,1.369625 0,0.461421 1.244172,1.511262 1.790997,1.511262 0.513401,0 1.151096,-0.41699 1.151096,-0.752694 0,-0.134085 0.147105,-0.548267 0.326898,-0.920407 0.179795,-0.37213 0.3269,-0.774933 0.3269,-0.895118 0,-0.120186 0.168514,-0.282589 0.374479,-0.3609 0.205962,-0.0783 0.463103,-0.249156 0.571425,-0.379674 0.171333,-0.206446 0.308622,-0.198727 1.055704,0.0594 0.472316,0.163164 1.124577,0.299065 1.449465,0.302003 0.496843,0.0046 0.65917,0.104126 1.02156,0.62705 0.23697,0.341949 0.430853,0.768289 0.430853,0.947409 0,0.457669 0.947349,1.880724 1.666016,2.502613 0.874714,0.756909 1.430367,0.871952 2.502808,0.518151 0.998884,-0.329533 2.11674,-1.318141 2.29541,-2.030007 0.061,-0.243021 0.36793,-0.653728 0.68208,-0.912678 0.50097,-0.41294 0.69456,-0.468381 1.57505,-0.451072 0.56859,0.01121 1.09754,0.110503 1.21987,0.229048 0.1188,0.115126 0.39837,0.20931 0.62128,0.20931 0.30798,0 0.46216,0.136106 0.64212,0.566828 0.29475,0.705416 0.29508,1.03759 0.002,1.55802 -0.12675,0.224739 -0.37897,0.721225 -0.56047,1.103289 -0.1815,0.382055 -0.40169,0.694658 -0.4893,0.694658 -0.0876,0 -0.52662,0.312594 -0.97558,0.694658 -0.44895,0.382065 -1.23615,0.948077 -1.74932,1.257798 -0.81251,0.490389 -1.12581,0.578197 -2.425194,0.67972 -0.82069,0.06412 -1.639259,0.15601 -1.819056,0.204177 -0.179796,0.04819 -0.510775,0.02604 -0.735523,-0.04911 z m 16.426675,-8.335498 c -1.83933,-0.125439 -3.03628,-0.492798 -3.75934,-1.153809 -0.26969,-0.246543 -0.69261,-0.495773 -0.93983,-0.553846 -0.24722,-0.0581 -0.44949,-0.175839 -0.44949,-0.261711 0,-0.245051 -0.91305,-0.654887 -1.45898,-0.654887 -0.27198,0 -0.73534,-0.146827 -1.02968,-0.32628 -0.29433,-0.179463 -0.66019,-0.326568 -0.813,-0.326901 -0.65705,-0.0019 -3.23632,-2.279709 -3.23632,-2.858648 0,-0.114116 -0.11418,-0.302234 -0.25372,-0.418046 -0.13954,-0.115811 -0.56247,-0.839287 -0.93984,-1.607724 -0.660334,-1.344662 -0.687522,-1.461863 -0.723735,-3.119303 -0.06551,-2.996866 0.449413,-4.635477 2.165615,-6.892149 0.40281,-0.529651 0.73238,-1.003925 0.73238,-1.053955 0,-0.132547 1.93474,-2.028431 2.082,-2.040171 0.0685,-0.0056 0.382,-0.332424 0.69664,-0.726581 0.31464,-0.394148 0.93984,-0.912503 1.38932,-1.151892 0.44949,-0.239379 0.9691,-0.574389 1.15468,-0.744465 0.18559,-0.170076 0.46221,-0.309221 0.61472,-0.309221 0.15251,0 0.62586,-0.154434 1.05189,-0.343191 0.42602,-0.188748 0.9217,-0.401709 1.1015,-0.473237 1.96168,-0.7804 5.92296,-0.590707 9.72525,0.465713 0.31464,0.08738 1.01338,0.277038 1.55276,0.421372 1.81625,0.486024 3.75648,1.345736 4.23805,1.87787 0.16912,0.186876 0.42761,0.339763 0.57444,0.339763 0.33039,0 1.51831,1.38762 2.89524,3.381951 0.19806,0.286879 0.408,0.875297 0.46653,1.307595 0.0586,0.432316 0.19103,1.043446 0.29447,1.358088 0.20325,0.618321 0.2267,1.097405 0.25958,5.301251 0.0132,1.687009 -0.0433,2.832646 -0.1445,2.933919 -0.0914,0.09137 -0.16615,0.283376 -0.16615,0.426673 0,0.318728 -3.51714,3.946025 -4.08624,4.214214 -0.48172,0.227018 -1.31351,0.742732 -2.30789,1.430903 -0.39375,0.272517 -1.01013,0.589976 -1.36972,0.705472 -0.3596,0.115488 -0.80091,0.271127 -0.9807,0.345861 -1.1105,0.461579 -5.2755,0.71408 -8.33593,0.505372 z m 6.27292,-3.881448 c 0.82457,-0.466129 1.75928,-0.947122 2.14473,-1.103641 0.25716,-0.104424 1.31868,-0.857868 2.79907,-1.986694 0.55745,-0.42507 1.0279,-0.962718 1.28717,-1.471046 0.39961,-0.783449 0.40762,-0.870433 0.36306,-3.942014 -0.0435,-2.99492 -0.0677,-3.202682 -0.52077,-4.47046 -0.51168,-1.431608 -0.62935,-1.607012 -1.91163,-2.849427 -0.8318,-0.80593 -2.055,-1.412464 -3.34127,-1.656782 -0.30542,-0.05801 -0.7024,-0.184375 -0.8822,-0.280792 -0.37669,-0.202027 -1.84528,-0.405193 -3.84106,-0.531393 -1.26382,-0.07988 -1.55087,-0.03697 -3.17774,0.475341 -2.36199,0.743816 -3.90519,1.840591 -6.13889,4.363024 -1.48149,1.672999 -2.00218,2.974821 -2.0891,5.223191 -0.0615,1.591519 0.0692,2.364913 0.66466,3.930607 0.34894,0.917617 1.55185,2.288297 2.00819,2.288297 0.12843,0 0.23351,0.05745 0.23351,0.127766 0,0.07024 0.34937,0.2203 0.77638,0.333388 0.42701,0.113096 1.00226,0.27626 1.27833,0.362586 0.59253,0.185273 1.05083,0.203268 1.05083,0.04124 0,-0.06366 -0.24765,-0.376226 -0.55033,-0.694658 -0.36997,-0.389227 -0.60711,-0.846793 -0.72361,-1.396209 -0.0953,-0.449487 -0.24963,-1.111462 -0.34293,-1.471046 -0.16748,-0.645453 -0.064,-1.782342 0.3162,-3.475653 0.0861,-0.383352 0.15652,-0.844051 0.15652,-1.023773 0,-0.179723 0.0645,-0.454491 0.14338,-0.610593 0.19772,-0.391359 0.51042,-1.407034 0.51042,-1.657867 0,-0.11368 0.21454,-0.660103 0.47676,-1.214264 0.26223,-0.554169 0.56615,-1.248531 0.67539,-1.543027 0.23966,-0.64612 0.79874,-1.05818 1.80796,-1.332522 0.79374,-0.215769 0.87534,-0.193335 2.48781,0.684002 1.03444,0.562824 1.3659,1.34378 0.82433,1.942216 -0.14616,0.161495 -0.33286,0.792483 -0.41491,1.402187 -0.082,0.609703 -0.21728,1.586644 -0.30053,2.170976 -0.0832,0.584341 -0.1941,1.540516 -0.24632,2.124848 -0.14475,1.619661 -0.64261,3.473096 -1.09258,4.067417 -0.16232,0.214397 -0.29513,0.513442 -0.29513,0.66455 0,0.151117 -0.33307,0.607822 -0.74016,1.014915 -0.43688,0.436885 -0.70361,0.835415 -0.65096,0.972623 0.049,0.127859 0.47408,0.429759 0.94448,0.670908 0.83804,0.429601 0.90262,0.436829 3.2054,0.358621 2.15281,-0.07311 2.41355,-0.115673 3.10554,-0.506856 z M 76.546078,59.651806 c -0.134846,-0.09478 -0.399789,-0.173458 -0.588765,-0.174829 -0.188974,-9.27e-4 -0.593511,-0.18102 -0.898973,-0.399198 -0.305459,-0.218188 -0.959702,-0.590198 -1.453872,-0.826696 -0.494171,-0.236497 -1.045812,-0.555429 -1.225872,-0.708724 -0.180059,-0.153303 -0.584814,-0.416738 -0.899454,-0.585415 -0.737995,-0.395621 -1.597929,-1.200448 -1.900994,-1.779173 -0.342331,-0.65371 -1.038505,-2.754632 -1.04057,-3.140255 -10e-4,-0.179796 -0.133042,-0.547553 -0.293509,-0.817243 -0.408476,-0.686513 -0.499776,-4.503615 -0.121526,-5.080895 0.138081,-0.210747 0.251057,-0.59649 0.251057,-0.857219 0,-0.260739 0.147105,-0.661077 0.326899,-0.889643 0.179795,-0.228575 0.3269,-0.538361 0.3269,-0.688412 0,-0.150061 0.220657,-0.493493 0.490348,-0.763183 0.269692,-0.26969 0.490349,-0.636057 0.490349,-0.814149 0,-0.431936 4.261082,-4.881435 4.674726,-4.881435 0.103803,0 0.275876,-0.105005 0.382385,-0.233339 0.413568,-0.498318 3.063762,-1.615977 4.259513,-1.79635 0.314641,-0.04746 0.940536,-0.183254 1.390881,-0.301762 1.057505,-0.278281 4.170307,-0.06339 5.541858,0.38258 0.531755,0.172905 1.282012,0.314373 1.667236,0.314373 0.412542,0 0.754127,0.09026 0.831115,0.219618 0.07189,0.120791 0.427682,0.433388 0.790649,0.69466 2.098539,1.510582 5.63287,4.768103 5.63287,5.191708 0,0.12569 0.116525,0.325233 0.25896,0.443436 0.142425,0.118203 0.51551,0.724357 0.829067,1.347015 l 0.570117,1.132098 -0.183308,2.353219 c -0.100819,1.294271 -0.146076,2.413461 -0.100578,2.487092 0.08294,0.134243 0.01288,0.433808 -0.598463,2.557831 -0.435902,1.514487 -0.684002,1.97425 -1.397724,2.590227 -0.328402,0.283423 -0.745739,0.666535 -0.927418,0.851354 -0.181679,0.184818 -0.685138,0.468807 -1.118799,0.631071 -0.433661,0.162265 -0.829044,0.400755 -0.878629,0.529975 -0.106779,0.278262 -1.883698,1.179857 -3.154659,1.600655 -0.494435,0.1637 -1.046077,0.350947 -1.225871,0.416109 -1.086362,0.393703 -1.71843,0.547729 -2.370019,0.57753 -0.404538,0.01853 -1.103284,0.116525 -1.552771,0.217826 -1.159905,0.261425 -6.472767,0.417722 -6.783156,0.199543 z m 7.682128,-3.734963 c 0.314641,-0.08238 0.807466,-0.27185 1.095168,-0.420956 0.287703,-0.149106 0.639521,-0.271098 0.781818,-0.271098 0.335924,0 1.765897,-0.725163 2.010015,-1.019308 0.103869,-0.125152 0.557816,-0.400365 1.008772,-0.611575 0.450955,-0.211219 0.861592,-0.515334 0.912525,-0.67581 0.05094,-0.160485 0.239776,-0.338493 0.419647,-0.395584 0.191308,-0.06069 0.502266,-0.488165 0.749239,-1.029917 0.232207,-0.509367 0.485815,-1.053844 0.563572,-1.209946 0.07775,-0.156093 0.141374,-0.648233 0.141374,-1.093633 0,-0.445401 0.07356,-0.855274 0.163449,-0.910835 0.08989,-0.0556 0.163449,-0.689663 0.163449,-1.409118 0,-1.386555 -0.375507,-2.888486 -0.758955,-3.035637 -0.121957,-0.0468 -0.221741,-0.297248 -0.221741,-0.55656 0,-0.29736 -0.12258,-0.547442 -0.331928,-0.677172 -0.18256,-0.113134 -0.523548,-0.481521 -0.757751,-0.818634 -0.234204,-0.337113 -0.519613,-0.612937 -0.634242,-0.612937 -0.114628,0 -0.399536,-0.239046 -0.633129,-0.531208 -0.558869,-0.699013 -0.538809,-0.680322 -1.491166,-1.388899 -1.152377,-0.857385 -1.474672,-1.021985 -2.00106,-1.021985 -0.252932,0 -0.529752,-0.06913 -0.615154,-0.153573 -0.437822,-0.43302 -2.813641,-0.157677 -4.286751,0.496802 -0.384467,0.170817 -0.899333,0.311648 -1.144147,0.312983 -0.244812,9.26e-4 -0.605594,0.09326 -0.801734,0.204306 -0.196144,0.111049 -0.913278,0.5164 -1.593634,0.90079 -0.680357,0.38439 -1.237012,0.805577 -1.237012,0.935983 0,0.130407 -0.371023,0.624984 -0.824492,1.099064 -1.296885,1.355818 -1.921222,2.68164 -2.43013,5.160549 -0.215211,1.048302 -0.233179,3.14448 -0.0314,3.66188 0.08053,0.206503 0.237169,0.706436 0.348074,1.110981 0.356484,1.300312 0.706592,2.195449 1.037781,2.653349 0.403657,0.558099 1.461051,1.269437 1.887007,1.269437 0.176418,0 0.366216,0.07357 0.421775,0.16345 0.05556,0.08989 0.375455,0.163451 0.710878,0.163451 h 0.60986 l 0.02378,-3.013555 c 0.02345,-2.971763 0.241974,-5.839538 0.530115,-6.956865 0.475089,-1.842278 0.646328,-2.628599 0.747486,-3.432444 0.14293,-1.135795 0.377726,-1.590583 1.208834,-2.341441 0.721959,-0.652246 1.683069,-0.835221 1.867165,-0.355479 0.05174,0.134845 0.212525,0.24518 0.357289,0.24518 0.298902,0 1.708447,1.346746 1.708447,1.632328 0,0.102913 -0.07959,0.335825 -0.176873,0.517595 -0.340611,0.636437 -0.407294,1.479581 -0.224951,2.844322 0.0616,0.461051 0.0235,1.328028 -0.0862,1.961398 -0.108131,0.624307 -0.249022,1.833854 -0.313092,2.687876 -0.06407,0.854022 -0.200676,1.69988 -0.303568,1.879668 -0.65958,1.152558 -1.025578,3.21218 -0.715662,4.02732 0.149216,0.392471 0.205512,0.411448 0.867372,0.292504 0.389291,-0.06996 0.965234,-0.194632 1.279874,-0.277047 z M 131.33802,161.95 c 0.33463,-0.0929 0.66806,-0.27557 0.74097,-0.40583 0.0729,-0.13028 0.0735,-0.91808 9.2e-4,-1.75066 -0.1345,-1.55053 -0.0732,-3.42868 0.20134,-6.1721 0.0854,-0.85402 0.15669,-2.25152 0.15826,-3.10554 0.002,-0.85402 0.0756,-2.25151 0.16462,-3.10554 0.56681,-5.44053 0.68818,-8.47051 0.74488,-18.59583 0.071,-12.66986 0.33819,-18.34386 1.00259,-21.28586 0.13195,-0.58433 0.29633,-1.35663 0.36526,-1.71622 0.0689,-0.35959 0.34073,-1.05643 0.60398,-1.54852 0.44179,-0.82585 0.53453,-0.90427 1.20501,-1.01873 0.60065,-0.10254 0.78427,-0.0698 1.06081,0.18918 0.18393,0.17225 0.53284,0.38835 0.77536,0.48022 0.24251,0.0919 0.56118,0.35056 0.70816,0.57488 0.23093,0.35245 0.23856,0.49217 0.0562,1.02886 -0.11607,0.34156 -0.27534,0.70943 -0.35394,0.81752 -0.0786,0.10807 -0.17185,0.36551 -0.20723,0.57207 -0.0354,0.20656 -0.21297,1.14787 -0.39463,2.09179 -0.44609,2.31781 -0.70559,4.37736 -0.60164,4.77489 0.0471,0.17992 0.006,0.5215 -0.0908,0.75907 -0.23833,0.58374 -0.24926,0.94758 -0.45247,15.06068 -0.0977,6.78724 -0.24876,13.25984 -0.33564,14.38357 -0.0868,1.12371 -0.23159,3.07285 -0.32161,4.3314 -0.09,1.25857 -0.23264,3.09737 -0.31695,4.08624 -0.0843,0.98888 -0.20546,3.0874 -0.26923,4.66339 -0.10465,2.58627 -0.0886,2.89281 0.16502,3.1464 0.36718,0.36717 1.1839,0.35682 2.34675,-0.0297 0.51408,-0.17089 1.35632,-0.3965 1.87167,-0.50134 0.51534,-0.10485 0.97448,-0.2513 1.0203,-0.32545 0.0459,-0.0741 0.8378,-0.37 1.75994,-0.65744 0.92213,-0.28745 1.89727,-0.62364 2.16696,-0.74711 0.26969,-0.12346 0.83698,-0.36895 1.26064,-0.54554 0.58162,-0.24243 0.79812,-0.43202 0.88398,-0.77408 0.0859,-0.34231 0.0426,-0.495 -0.17706,-0.62483 -1.35143,-0.79856 -1.30436,-0.72305 -1.43518,-2.30212 -0.0668,-0.80607 -0.20741,-2.3482 -0.31252,-3.42697 -0.11729,-1.20387 -0.17063,-4.04459 -0.1381,-7.35523 0.0676,-6.87218 0.0706,-6.95564 0.38272,-10.46077 0.29874,-3.35477 0.60284,-7.34613 0.61952,-8.13125 0.0457,-2.15051 0.0833,-2.55232 0.25844,-2.7634 0.12085,-0.14561 0.2269,-1.02862 0.2729,-2.27216 0.0413,-1.1187 0.15767,-2.24925 0.25842,-2.51234 0.10076,-0.26308 0.2122,-1.16358 0.24765,-2.0011 0.0355,-0.83753 0.10429,-1.58725 0.15299,-1.66605 0.0487,-0.0788 0.1243,-1.05389 0.16799,-2.16685 0.0437,-1.11297 0.27008,-3.27398 0.50308,-4.80223 0.23299,-1.52825 0.52713,-3.6245 0.65364,-4.65831 0.26349,-2.153137 0.34605,-2.495624 0.77813,-3.228136 0.28363,-0.480807 0.38704,-0.531207 1.08994,-0.531207 0.60233,0 0.92746,0.109297 1.449,0.487099 1.01687,0.736616 1.23655,1.151901 1.01136,1.911844 -0.10184,0.34368 -0.25043,1.02942 -0.3302,1.52385 -0.0798,0.49443 -0.2255,1.26674 -0.32384,1.71622 -0.23882,1.09159 -0.45325,2.48245 -0.6426,4.16796 -0.0858,0.76413 -0.23261,1.90419 -0.32616,2.53347 -0.15825,1.06445 -0.33952,3.14466 -0.67655,7.76385 -0.0754,1.03382 -0.21594,2.35776 -0.31226,2.94209 -0.0963,0.58433 -0.2423,1.76117 -0.32441,2.6152 -0.0821,0.85402 -0.22315,2.32507 -0.31341,3.26899 -0.0903,0.94392 -0.20569,2.59885 -0.25647,3.67761 -0.0508,1.07877 -0.16476,2.36593 -0.25326,2.86037 -0.0885,0.49444 -0.23211,2.64502 -0.31912,4.77908 -0.092,2.25796 -0.23547,4.02449 -0.34302,4.22546 -0.11227,0.20977 -0.14492,0.67572 -0.0832,1.18683 0.0559,0.46281 0.14273,2.01213 0.19295,3.44294 0.0843,2.40149 0.066,2.6465 -0.2379,3.18727 -0.41902,0.74565 -0.4565,1.09901 -0.29167,2.74935 0.093,0.93066 0.0728,1.60335 -0.0653,2.17892 -0.26185,1.09152 -0.0839,1.29546 0.78759,0.90249 0.34776,-0.15682 0.92024,-0.55604 1.27215,-0.88716 1.03286,-0.9719 3.17324,-3.29884 3.17324,-3.44992 0,-0.0765 0.44131,-0.60135 0.98069,-1.16644 0.53938,-0.5651 0.9807,-1.11523 0.9807,-1.22254 0,-0.1073 0.11591,-0.2913 0.25759,-0.40887 0.28159,-0.23371 1.50971,-2.39248 1.80736,-3.17697 0.10232,-0.26969 0.35197,-0.89489 0.55478,-1.38932 0.73643,-1.79538 1.30306,-3.45959 1.30306,-3.82713 0,-0.15368 0.1085,-0.62422 0.24111,-1.04565 0.42347,-1.34575 0.72648,-4.92215 1.06892,-12.61632 0.22535,-5.0634 0.079,-7.77551 -0.63783,-11.82143 -0.0928,-0.52362 -0.1609,-2.95084 -0.1514,-5.39383 0.0244,-6.26141 0.0323,-6.08467 -0.3014,-6.76756 -0.3058,-0.62591 -0.53978,-0.7347 -0.73751,-0.34293 -0.13561,0.2687 -0.58831,2.87692 -0.80361,4.63008 -0.0883,0.71917 -0.23547,1.89601 -0.32701,2.61519 -0.15604,1.22609 -0.25185,2.15258 -0.64226,6.21108 -0.4044,4.20389 -0.50363,5.99974 -0.53291,9.64353 -0.0358,4.44962 0.21952,9.25802 0.58138,10.95111 0.13449,0.62929 0.29678,1.88827 0.36063,2.79776 l 0.11609,1.65361 -0.4247,0.10659 c -0.23358,0.0587 -0.4247,0.17348 -0.4247,0.25525 0,0.32484 -0.54308,0.66236 -1.06577,0.66236 -1.3693,0 -2.05467,-2.13747 -2.56806,-8.00904 -0.25709,-2.94023 -0.24095,-12.41991 0.0258,-15.11908 0.10659,-1.07877 0.26352,-2.99113 0.34874,-4.24968 0.29778,-4.39781 0.46005,-6.21664 0.6197,-6.94661 0.20906,-0.95582 0.67828,-5.02255 0.67828,-5.87859 0,-0.3651 0.0672,-0.79155 0.14936,-0.94765 0.0822,-0.1561 0.23744,-0.725124 0.3451,-1.264516 0.10765,-0.53938 0.2701,-1.072636 0.361,-1.18501 0.24296,-0.300362 1.51088,-0.258978 1.77386,0.05792 0.29454,0.354885 0.94247,0.584721 1.31506,0.466462 0.25329,-0.08034 0.30531,-0.2635 0.30531,-1.074702 0,-0.537786 -0.10726,-1.185213 -0.23836,-1.438724 -0.14775,-0.285731 -0.20278,-0.680129 -0.14477,-1.037618 0.12183,-0.750692 -0.35412,-2.186025 -0.88934,-2.682048 -0.27335,-0.253335 -0.6086,-0.379757 -1.007,-0.379757 -0.32848,0 -0.67716,-0.07997 -0.77484,-0.1776 -0.18826,-0.188266 -2.79899,0.03818 -4.01488,0.348204 -1.4088,0.359223 -2.01103,0.547656 -2.15753,0.67506 -0.0854,0.07432 -0.29075,0.13503 -0.45631,0.13503 -0.16556,0 -0.77298,0.220652 -1.34981,0.490352 -0.57684,0.26969 -1.15202,0.490342 -1.27818,0.490342 -0.27475,0 -1.96805,0.803048 -3.21669,1.525505 -1.69544,0.980982 -2.69824,1.710583 -3.77689,2.74796 -0.59399,0.571257 -1.41904,1.284432 -1.83345,1.584841 -1.44904,1.050389 -9.90169,9.680879 -10.82824,11.056049 -0.24128,0.35812 -0.52635,0.72589 -0.63347,0.81726 -0.20802,0.17743 -0.67126,0.88659 -1.01605,1.55543 -0.11585,0.22475 -0.54889,0.88672 -0.96229,1.47105 -1.10494,1.56177 -3.3422,5.56306 -3.3422,5.97744 0,0.13668 -0.20227,0.44743 -0.44949,0.69056 -0.53288,0.52408 -0.63269,0.6869 -1.49843,2.44431 -0.36534,0.74166 -0.72054,1.34846 -0.78931,1.34846 -0.19713,0 -0.85866,1.55403 -0.85866,2.01712 0,0.28315 0.17898,0.55451 0.55483,0.84117 0.81104,0.61861 0.99262,1.1668 0.68199,2.05887 -0.13825,0.39702 -0.25243,0.92739 -0.25374,1.1786 -9.3e-4,0.25122 -0.11073,0.91319 -0.24316,1.47105 -0.13243,0.55787 -0.32213,2.19113 -0.42156,3.62948 -0.0994,1.43836 -0.24665,3.20361 -0.32717,3.9228 -0.25724,2.29792 -0.37167,11.14991 -0.16056,12.42216 0.10442,0.62928 0.26335,1.58546 0.35319,2.12485 0.0899,0.53938 0.31673,1.61284 0.50421,2.38547 0.42925,1.76902 0.35042,2.10442 -0.60695,2.58255 l -0.74566,0.37241 -0.93444,-0.48239 c -0.92915,-0.47964 -1.07036,-0.65322 -1.74525,-2.14538 -0.13838,-0.30598 -0.25232,-0.85762 -0.25316,-1.22587 -8.1e-4,-0.36825 -0.15295,-1.40507 -0.33801,-2.30405 -0.31137,-1.51252 -0.44845,-3.58827 -0.53339,-8.07709 -0.0172,-0.91279 -0.0928,-1.39791 -0.22432,-1.44179 -0.10905,-0.0363 -0.23019,0.10458 -0.2692,0.31324 -0.039,0.20865 -0.15433,0.7839 -0.25628,1.27834 -0.53248,2.58244 -0.69614,7.11799 -0.28989,8.03399 0.55217,1.245 0.65674,2.02182 0.38541,2.86303 -0.14009,0.43429 -0.29065,1.04706 -0.33458,1.3617 -0.0439,0.31464 -0.16946,1.14899 -0.27893,1.85411 -0.16272,1.04812 -0.15978,1.30632 0.0161,1.41504 0.11835,0.0731 3.4214,0.10831 7.34011,0.0781 3.91871,-0.0302 7.75012,0.003 8.51424,0.0734 2.07201,0.19126 3.11856,0.19248 3.79568,0.005 z m -4.11449,-2.0998 c -0.60567,-0.0828 -0.78134,-0.19203 -1.04944,-0.6526 -0.31329,-0.53822 -0.31455,-0.59346 -0.0469,-2.04312 0.19863,-1.07564 0.2623,-2.1717 0.229,-3.94169 -0.0777,-4.12724 0.19439,-15.30453 0.47343,-19.4505 0.29019,-4.31169 0.32209,-4.96057 0.43784,-8.90799 0.28118,-9.58921 0.37899,-10.43332 1.2665,-10.92974 0.37019,-0.20707 0.50491,-0.20188 1.14415,0.0441 0.3985,0.15334 0.96872,0.47945 1.26716,0.72468 0.4933,0.40539 0.55703,0.56213 0.70145,1.72536 0.11168,0.89961 0.10478,1.4433 -0.0233,1.83126 -0.10015,0.30347 -0.21785,2.18942 -0.26153,4.191 -0.0436,2.00157 -0.13736,4.26441 -0.2082,5.02854 -0.18164,1.95982 -0.63054,7.7735 -0.83928,10.86939 -0.097,1.43836 -0.17404,6.21926 -0.17125,10.62422 0.003,4.40497 -0.039,8.50375 -0.0928,9.1084 -0.0911,1.02375 -0.1344,1.12094 -0.62901,1.41276 -0.66539,0.3926 -1.26837,0.49299 -2.19793,0.36594 z m -6.61332,-0.84755 c -0.23276,-0.27662 -0.45597,-0.66277 -0.49601,-0.85811 -0.57867,-2.82249 -0.76523,-8.10816 -0.40408,-11.44827 0.0985,-0.91078 0.24009,-2.79602 0.31471,-4.18942 0.0746,-1.39341 0.2495,-4.26195 0.38867,-6.37454 0.13915,-2.11258 0.25603,-4.68691 0.25972,-5.72073 0.004,-1.03382 0.0744,-2.32098 0.15707,-2.86037 0.0827,-0.53938 0.20026,-2.09111 0.26123,-3.44828 l 0.11087,-2.46758 0.45741,-0.2702 c 0.68047,-0.40196 1.4364,-0.32263 2.53141,0.26561 0.94125,0.50565 0.98622,0.55915 1.12982,1.34386 0.1015,0.55467 0.0817,1.31615 -0.0616,2.37002 -0.24851,1.82781 -0.41758,3.71848 -0.64307,7.19178 -0.21604,3.32771 -0.50404,6.72872 -0.58022,6.85199 -0.0335,0.054 -0.19598,2.08338 -0.36127,4.50959 -0.31531,4.62875 -0.37572,9.71124 -0.14674,12.34768 0.13167,1.51601 0.12308,1.58176 -0.29271,2.24041 -0.50343,0.79748 -0.85922,1.01951 -1.63372,1.01951 -0.43394,0 -0.66835,-0.1189 -0.99149,-0.50295 z m 17.99609,-7.13832 c -0.21349,-0.37438 -0.26904,-1.46775 -0.11714,-2.30546 0.0956,-0.52699 0.2027,-1.6857 0.23808,-2.57491 0.0354,-0.88921 0.14437,-1.8737 0.24218,-2.18775 0.0978,-0.31404 0.17783,-1.02154 0.17783,-1.57221 0,-0.55068 0.11086,-1.6369 0.24634,-2.41383 0.34108,-1.95588 0.74011,-5.05349 0.66117,-5.13243 -0.0359,-0.036 0.0334,-0.34504 0.15398,-0.68691 0.12062,-0.34188 0.30113,-1.53045 0.40115,-2.64129 0.10002,-1.11083 0.25654,-2.35067 0.34783,-2.75521 0.16695,-0.73979 0.35593,-2.50077 0.65776,-6.12936 0.35731,-4.29567 0.45882,-6.31353 0.64135,-12.74906 0.25393,-8.9536 0.2728,-9.58391 0.29971,-10.01128 0.0391,-0.62187 0.58955,-1.021562 1.40673,-1.021562 0.53388,0 0.77179,0.07849 0.88631,0.292504 0.0861,0.160878 0.33899,0.390148 0.56198,0.509478 0.22297,0.11934 0.56956,0.53613 0.77018,0.9262 0.29661,0.57671 0.34464,0.86088 0.25708,1.52098 -0.092,0.69382 -0.20365,3.38859 -0.52545,12.68716 -0.15984,4.61863 -0.2609,6.47891 -0.40845,7.51868 -0.0893,0.62929 -0.1785,1.62224 -0.19822,2.20657 -0.0197,0.58433 -0.0864,1.14188 -0.14804,1.23899 -0.0617,0.0971 -0.23018,1.16361 -0.37436,2.37002 -0.46953,3.92861 -0.73209,5.93628 -0.89608,6.85176 -0.0886,0.49444 -0.31481,1.96549 -0.50277,3.269 -0.18796,1.3035 -0.40559,2.77455 -0.48363,3.26899 -0.078,0.49443 -0.19393,1.51361 -0.25752,2.26483 -0.11127,1.3145 -0.13321,1.37198 -0.58391,1.5291 -0.62239,0.21696 -0.76325,0.52626 -0.88897,1.95208 -0.0582,0.66033 -0.20649,1.44862 -0.32949,1.75176 -0.123,0.30315 -0.22363,0.68364 -0.22363,0.84554 0,0.47233 -0.93852,1.30021 -1.47397,1.30021 -0.25747,0 -0.49959,-0.0551 -0.53803,-0.12259 z m -77.672456,8.51969 c 0.37706,-0.37705 0.24504,-1.01785 -0.27427,-1.33123 -0.381003,-0.22991 -0.496941,-0.23563 -0.85811,-0.0423 -0.506003,0.2708 -0.529777,0.63533 -0.07883,1.20862 0.386502,0.49136 0.825066,0.55108 1.211206,0.16494 z m 100.907056,-6.4124 c 0.37972,-0.1067 0.38333,-0.131 0.45186,-3.03476 0.038,-1.60995 0.0249,-3.06632 -0.0291,-3.23638 -0.0627,-0.19752 -0.21921,-0.291 -0.43337,-0.25881 -0.23852,0.0359 -0.56385,0.49458 -1.1276,1.58996 -0.4358,0.84676 -0.9406,1.69735 -1.12177,1.8902 -0.18118,0.19285 -0.3294,0.40597 -0.3294,0.47359 0,0.0676 -0.18996,0.37199 -0.42211,0.67637 -0.23216,0.30437 -0.39765,0.68561 -0.36776,0.8472 0.0302,0.16344 0.4481,0.49324 0.94176,0.74329 0.86868,0.44 1.62907,0.5365 2.43745,0.30934 z m 10.52748,-0.70816 c 0.57681,-0.22079 0.58981,-0.73819 0.0346,-1.3737 -0.22822,-0.2612 -0.67974,-1.0062 -1.00338,-1.65554 -0.32364,-0.64936 -0.64438,-1.14606 -0.71277,-1.10379 -0.0684,0.0423 -0.21662,0.46322 -0.32941,0.93545 -0.1128,0.47224 -0.4144,1.31183 -0.67022,1.86575 -0.54718,1.18477 -0.53625,1.10497 -0.19767,1.44356 0.21751,0.21751 0.4694,0.24812 1.34846,0.1639 0.59454,-0.057 1.28326,-0.18099 1.53048,-0.27563 z m 5.64825,-2.55459 c 0.40979,-0.3153 0.57336,-0.57246 1.33925,-2.10544 0.43344,-0.86757 0.4993,-1.16172 0.45746,-2.04313 -0.0483,-1.01751 -0.0563,-1.0333 -0.68432,-1.33989 -0.34949,-0.17064 -0.89225,-0.31774 -1.20614,-0.3269 -0.56677,-0.0165 -0.57224,-0.01 -0.79502,0.96405 -0.12337,0.53938 -0.29683,1.29092 -0.38545,1.67008 -0.10424,0.44601 -0.10534,0.83613 -0.003,1.10506 0.0869,0.22862 0.11334,0.74178 0.0587,1.14035 -0.0546,0.39856 -0.0554,0.83907 -0.002,0.97892 0.12994,0.33861 0.75284,0.31662 1.22035,-0.0431 z m -6.92743,-3.9932 c 0.0611,-0.38206 0.29114,-1.00197 0.51123,-1.37756 0.2201,-0.3756 0.40019,-0.76357 0.40019,-0.86215 0,-0.32144 -0.73899,-0.48256 -1.40845,-0.3071 -0.34907,0.0915 -0.8744,0.20441 -1.1674,0.25092 -0.293,0.0465 -0.57316,0.15001 -0.62258,0.22997 -0.0494,0.08 -0.20844,0.14539 -0.35338,0.14539 -0.33064,0 -0.86133,0.46879 -0.86133,0.76086 0,0.1209 0.15695,0.21983 0.3488,0.21983 0.60662,0 1.64287,0.37906 1.74193,0.63721 0.12109,0.31556 0.87482,0.98532 1.11651,0.99213 0.10088,0.003 0.23339,-0.30743 0.29448,-0.6895 z M 37.481635,113.75473 c 0.494434,-0.0898 1.30351,-0.23215 1.797945,-0.31625 1.312068,-0.22318 2.786473,-0.67152 3.370007,-1.02474 0.280303,-0.16968 0.615385,-0.30851 0.744625,-0.30851 0.34606,0 2.813563,-1.02301 4.205547,-1.74358 0.665566,-0.34455 1.673082,-0.86212 2.238922,-1.15019 0.565839,-0.28806 1.593113,-0.95003 2.282833,-1.47105 0.689719,-0.52101 1.449957,-1.0944 1.689419,-1.27419 0.507869,-0.38132 2.462036,-2.19605 3.256162,-3.02382 0.614675,-0.64071 3.134028,-3.844806 3.134028,-3.985834 0,-0.04985 0.199165,-0.515825 0.442586,-1.035394 0.398907,-0.851446 0.669256,-2.374291 0.733544,-4.131948 0.03688,-1.008262 -0.257828,-3.061128 -0.492756,-3.432443 -0.142195,-0.224739 -0.446066,-0.774674 -0.675267,-1.222066 -0.284084,-0.554531 -0.85896,-1.190718 -1.806053,-1.998677 -0.764126,-0.651875 -1.71032,-1.46266 -2.102652,-1.801746 -0.392331,-0.339087 -1.150286,-0.918137 -1.684343,-1.286792 -1.100324,-0.759542 -1.588071,-0.780743 -2.033976,-0.0884 -0.152966,0.237489 -0.377575,0.491019 -0.499133,0.56339 -0.121555,0.07237 -0.321621,0.36658 -0.444588,0.653802 -0.211792,0.494688 -0.5463,0.878513 -3.170427,3.637917 -0.60375,0.634871 -1.424966,1.499114 -1.824929,1.920533 -0.399961,0.421419 -0.784221,0.766222 -0.853913,0.766222 -0.06969,0 -0.2346,0.208634 -0.366468,0.463637 -0.32637,0.631137 -5.648471,5.99906 -6.085306,6.137704 -0.192283,0.06107 -0.44621,0.344183 -0.564282,0.629237 -0.118073,0.285054 -0.385276,0.70553 -0.593784,0.934398 -0.812229,0.89153 -1.873055,2.42006 -2.296822,3.30945 -0.504506,1.05885 -1.255957,1.60154 -2.217625,1.60154 -0.391841,0 -0.63369,0.0944 -0.732639,0.28603 -0.243597,0.47173 -0.653436,3.73637 -0.757583,6.03464 -0.125719,2.77435 -0.170843,2.72785 2.528286,2.60561 1.033817,-0.0468 2.284206,-0.15863 2.778642,-0.24846 z m -0.3269,-4.07187 c -0.704741,-0.31935 -1.159573,-0.77846 -1.327946,-1.34044 -0.164205,-0.54807 -0.145102,-0.67878 0.162293,-1.11047 0.191624,-0.26912 0.348406,-0.59383 0.348406,-0.72161 0,-0.12777 0.191353,-0.41062 0.425228,-0.62857 0.233876,-0.21793 0.571936,-0.72724 0.751243,-1.13177 0.191145,-0.43124 0.623789,-0.97187 1.045818,-1.30684 0.395891,-0.31422 0.719803,-0.64949 0.719803,-0.74505 0,-0.0956 0.667687,-0.8682 1.483749,-1.71698 0.816062,-0.84878 1.678617,-1.800676 1.916789,-2.115318 0.238172,-0.314641 0.959548,-1.094411 1.603059,-1.732822 0.643511,-0.63842 1.262908,-1.337165 1.376437,-1.552776 0.113529,-0.215611 0.384108,-0.612669 0.601285,-0.882368 0.217179,-0.26969 0.893552,-1.1288 1.503055,-1.909135 0.609501,-0.780326 1.650817,-2.017802 2.314033,-2.749934 0.663216,-0.732131 1.296328,-1.546335 1.406914,-1.809344 0.110585,-0.263 0.266584,-0.478185 0.346666,-0.478185 0.08008,0 0.283917,-0.256838 0.452969,-0.570757 0.411307,-0.763748 1.172666,-1.114659 2.112619,-0.973698 0.399574,0.05995 0.817785,0.218938 0.929359,0.353375 0.111574,0.134438 0.371377,0.308498 0.57734,0.386809 0.327972,0.124698 0.374479,0.25453 0.374479,1.045392 0,0.641349 -0.08289,0.986468 -0.286036,1.190996 -0.157321,0.158382 -0.580247,0.654868 -0.939835,1.103289 -0.359589,0.448412 -0.73888,0.870285 -0.842871,0.937485 -0.10399,0.06718 -0.552221,0.584276 -0.996069,1.149065 -0.443847,0.564789 -1.594855,1.829194 -2.557791,2.809795 -0.962939,0.980602 -1.808218,1.885515 -1.878401,2.010927 -0.127263,0.227407 -2.9452,3.275904 -4.18564,4.528104 -0.359589,0.36299 -1.104718,1.21117 -1.655843,1.88484 -0.551126,0.67367 -1.194709,1.43092 -1.430184,1.68276 -0.235475,0.25185 -0.428138,0.52831 -0.428138,0.61435 0,0.22174 -0.957766,1.51691 -1.237648,1.67364 -0.128369,0.0719 -0.236931,0.25577 -0.241249,0.40863 -0.01863,0.65933 -0.56564,1.3788 -1.218021,1.60204 -0.721167,0.24677 -0.865423,0.2579 -1.225872,0.0946 z m 9.002411,-3.26873 c -0.446657,-0.23955 -0.593745,-0.45268 -0.757495,-1.09759 -0.195869,-0.7714 -0.18611,-0.82517 0.270144,-1.48831 0.260344,-0.37839 0.548086,-0.88456 0.639428,-1.1248 0.09134,-0.24025 0.312292,-0.47504 0.491004,-0.52178 0.178713,-0.0467 0.324931,-0.14874 0.324931,-0.2267 0,-0.0779 1.268778,-1.42081 2.819505,-2.984121 1.550728,-1.563312 3.097855,-3.201052 3.438059,-3.639409 0.340204,-0.438358 0.983788,-1.231389 1.430183,-1.76229 0.446397,-0.530893 0.81163,-1.053927 0.81163,-1.162289 0,-0.10837 0.489573,-0.653088 1.087938,-1.210501 1.053441,-0.981325 1.109157,-1.01006 1.757083,-0.9061 0.829256,0.133066 1.250683,0.52575 1.511227,1.408146 0.227003,0.768817 0.08086,1.211391 -0.640749,1.940437 -0.2206,0.222876 -0.53101,0.662661 -0.689801,0.977302 -0.158789,0.314642 -0.600948,0.874455 -0.982574,1.244028 -0.381627,0.369573 -0.762302,0.794235 -0.845944,0.943693 -0.176573,0.315522 -2.680755,2.9136 -3.117524,3.234414 -0.162391,0.11929 -0.455088,0.42445 -0.650436,0.67815 -0.195349,0.2537 -0.708183,0.73076 -1.139631,1.06013 -0.843006,0.64355 -1.50646,1.33014 -1.51481,1.56763 -0.0029,0.0808 -0.272595,0.40666 -0.599452,0.7241 -0.326859,0.31744 -0.733054,0.89086 -0.902655,1.27428 -0.574761,1.29934 -1.581354,1.693 -2.740061,1.07158 z M 35.729307,97.844253 c 0.337765,-0.29217 0.751395,-0.740721 0.919176,-0.99678 0.167781,-0.25606 0.97552,-1.156812 1.794976,-2.001661 0.819455,-0.844848 1.489919,-1.610996 1.489919,-1.70254 0,-0.09155 0.218011,-0.299027 0.484469,-0.461069 0.266459,-0.162042 0.704167,-0.571081 0.972687,-0.908963 0.268518,-0.337891 1.053061,-1.21557 1.743428,-1.950408 0.690367,-0.734837 1.642436,-1.850932 2.115711,-2.480215 0.473272,-0.629274 1.493694,-1.786281 2.267603,-2.571111 0.955788,-0.969278 1.532109,-1.709619 1.796841,-2.30823 0.214356,-0.4847 0.471771,-0.931962 0.572036,-0.993936 0.196869,-0.121669 0.08167,-0.853087 -0.188353,-1.195917 -0.08851,-0.112364 -0.455626,-0.204306 -0.815817,-0.204306 -0.615882,0 -0.755873,0.10283 -2.350006,1.726206 -0.932311,0.949411 -1.695113,1.800968 -1.695113,1.892354 0,0.09137 -0.680358,0.864039 -1.511908,1.717005 -0.83155,0.852975 -1.548685,1.644077 -1.593633,1.758018 -0.04495,0.11394 -0.523038,0.667952 -1.062422,1.231147 -0.539384,0.563186 -1.096318,1.145479 -1.237634,1.293973 -0.141314,0.148495 -0.711345,0.698124 -1.266733,1.221399 -0.555389,0.523276 -1.009799,1.04277 -1.009799,1.154431 0,0.11166 -0.219351,0.413171 -0.487446,0.670028 -0.268097,0.256847 -0.609074,0.785478 -0.757729,1.174724 -0.148655,0.389245 -0.337595,0.707723 -0.419866,0.707723 -0.399857,0 -0.935616,2.489964 -0.720326,3.347749 0.133133,0.530447 0.221088,0.519485 0.959939,-0.119621 z m 4.271266,-14.191789 c 0.232735,-0.276584 0.423154,-0.556152 0.423154,-0.621258 0,-0.06514 0.329507,-0.445604 0.732238,-0.845562 0.402731,-0.399967 0.733716,-0.807282 0.735523,-0.905154 0.0018,-0.09787 0.51815,-0.706269 1.147431,-1.351982 1.327465,-1.362137 1.457201,-1.82885 0.6332,-2.277874 -0.281021,-0.153137 -0.714565,-0.443927 -0.96343,-0.646194 -0.248864,-0.202277 -0.595048,-0.367766 -0.769293,-0.367766 -0.425304,0 -1.23663,1.055928 -1.498006,1.949638 -0.11642,0.398067 -0.351902,0.985392 -0.523293,1.305177 -0.17139,0.319775 -0.311618,0.677024 -0.311618,0.793892 0,0.116868 -0.100753,0.375383 -0.223895,0.574491 -0.288421,0.466342 -0.663886,2.312466 -0.537366,2.642174 0.157001,0.409141 0.69973,0.291902 1.155355,-0.249582 z"
       style="fill:#220055;stroke:#220055;stroke-width:0.5;stroke-miterlimit:4;stroke-dasharray:none;stroke-opacity:1" />
  </g>
</svg>
